<svg width="24" height="24" viewBox="0 0 24 24" fill="none" xmlns="http://www.w3.org/2000/svg">
<g clip-path="url(#clip0_5965_63067)">
<path d="M5.62692 20.0111C4.88878 20.0921 4.26432 19.47 4.34554 18.7346L4.54841 16.8978C4.57719 16.6372 4.69415 16.3944 4.88005 16.2092L5.00221 16.0875C5.45436 15.6371 6.18824 15.6379 6.64138 16.0893L8.28235 17.724C8.73549 18.1754 8.73629 18.9065 8.28415 19.357L8.16198 19.4787C7.97608 19.6639 7.73231 19.7804 7.47076 19.809L5.62692 20.0111Z" fill="#41D797"/>
<path fill-rule="evenodd" clip-rule="evenodd" d="M7.58988 9.11768L5.81085 9.07087C5.30638 9.05759 4.81169 9.20866 4.40191 9.50113L2.85941 10.6021C1.98918 11.2232 2.12332 12.5515 3.10068 12.9915C3.10068 12.9915 4.78624 13.9628 5.97406 14.2849C6.22454 14.3528 6.62087 14.4374 6.62087 14.4374L6.64808 14.465L9.8987 17.7033C9.91248 17.717 9.94049 17.7439 9.94049 17.7439C9.94049 17.7439 10.0254 18.1391 10.0936 18.3889C10.4168 19.5722 11.392 21.2513 11.392 21.2513C11.8336 22.225 13.167 22.3586 13.7905 21.4917L14.8956 19.9551C15.1892 19.5468 15.3408 19.054 15.3275 18.5515L15.2803 16.7705C16.2208 16.1809 17.0931 15.4857 17.8973 14.6846C19.4656 13.1234 20.5671 11.2773 21.2013 9.14616C21.6932 7.49355 21.8394 5.89883 21.6398 4.36202C21.5326 3.53699 20.8825 2.8897 20.0542 2.78324C18.5118 2.58498 16.9113 2.73068 15.2529 3.22029C13.1143 3.85165 11.2607 4.94855 9.69242 6.51091C8.88509 7.31518 8.18419 8.18419 7.58988 9.11768ZM14.83 9.56644C15.5097 10.2436 16.6105 10.2448 17.2888 9.56914C17.967 8.89349 17.9658 7.79684 17.2861 7.11971C16.6064 6.44258 15.5055 6.44137 14.8273 7.11702C14.1491 7.79266 14.1503 8.88931 14.83 9.56644Z" fill="#41D797"/>
</g>
<defs>
<clipPath id="clip0_5965_63067">
<rect width="24" height="24" fill="white"/>
</clipPath>
</defs>
</svg>
