<svg width="24" height="24" viewBox="0 0 24 24" fill="none" xmlns="http://www.w3.org/2000/svg">
<path fill-rule="evenodd" clip-rule="evenodd" d="M16.5 2C17.0523 2 17.5 2.44772 17.5 3V5C17.5 5.55228 17.0523 6 16.5 6C15.9477 6 15.5 5.55228 15.5 5V3C15.5 2.44772 15.9477 2 16.5 2ZM4.5 4C3.39543 4 2.5 4.89543 2.5 6V20C2.5 21.1046 3.39543 22 4.5 22H19.5C20.6046 22 21.5 21.1046 21.5 20V6C21.5 4.89543 20.6046 4 19.5 4H18.5V5C18.5 6.10457 17.6046 7 16.5 7C15.3954 7 14.5 6.10457 14.5 5V4H9.5V5C9.5 6.10457 8.60457 7 7.5 7C6.39543 7 5.5 6.10457 5.5 5V4H4.5ZM8.5 3C8.5 2.44772 8.05228 2 7.5 2C6.94772 2 6.5 2.44772 6.5 3L6.5 5C6.5 5.55228 6.94772 6 7.5 6C8.05228 6 8.5 5.55228 8.5 5V3Z" fill="#5F6BFF"/>
<path d="M4.5 11H19.5V19C19.5 19.5523 19.0523 20 18.5 20H5.5C4.94772 20 4.5 19.5523 4.5 19V11Z" fill="#D2D6FF"/>
</svg>
