<svg width="312" height="400" viewBox="0 0 312 400" fill="none" xmlns="http://www.w3.org/2000/svg">
<rect x="1" y="1" width="310" height="398" rx="7" fill="#F8F9F9"/>
<rect x="1" y="1" width="310" height="398" rx="7" stroke="#E9EBED" stroke-width="2" stroke-linecap="round" stroke-linejoin="round" stroke-dasharray="6 10"/>
<path d="M221.367 117.268C221.366 117.273 221.365 117.277 221.365 117.279L221.366 117.278C221.366 117.276 221.367 117.273 221.368 117.269M221.367 117.268L221.368 117.269M221.367 117.268C221.369 117.258 221.373 117.245 221.375 117.23L221.378 117.22C221.389 117.163 221.412 117.036 221.424 116.869C221.499 116.15 221.383 115.427 221.086 114.772L220.935 114.472L220.761 114.187C220.389 113.633 219.887 113.179 219.302 112.865L219.003 112.719L218.693 112.598C218.065 112.382 217.394 112.321 216.737 112.42L216.41 112.484C215.554 112.685 214.782 113.156 214.21 113.832L214.21 113.831L195.12 136.175L195.119 136.175C194.701 136.664 194.412 137.25 194.276 137.879L194.227 138.15C194.124 138.882 194.232 139.626 194.538 140.296L194.661 140.542C194.968 141.105 195.409 141.582 195.945 141.932L196.18 142.074C196.736 142.383 197.361 142.552 197.999 142.565L204.184 142.69L202.132 152.602L202.085 152.828L202.083 152.909C202.019 153.408 202.047 153.915 202.168 154.404C202.313 154.985 202.585 155.526 202.962 155.988L203.107 156.158C203.457 156.543 203.878 156.856 204.345 157.083L204.345 157.084C204.88 157.343 205.465 157.483 206.058 157.495L206.062 157.495C206.674 157.506 207.283 157.38 207.842 157.126L208.048 157.024C208.515 156.78 208.931 156.446 209.274 156.041L209.276 156.042L228.369 133.697L228.37 133.697C228.848 133.138 229.158 132.453 229.261 131.722L229.29 131.447C229.328 130.897 229.248 130.346 229.056 129.83L228.951 129.576L228.828 129.33C228.565 128.848 228.203 128.428 227.767 128.098L227.543 127.94L227.309 127.798C226.832 127.533 226.305 127.371 225.763 127.322L225.489 127.307L219.309 127.182L221.368 117.269M221.367 117.268L221.368 117.269M221.367 117.268L221.368 117.267L221.371 117.249L221.368 117.269M221.367 117.268L221.368 117.269" fill="#C2C8CC" stroke="#E9EBED" stroke-width="5.07551"/>
<path d="M190.134 97.3031L190.132 97.2675C190.128 97.2122 190.117 97.0831 190.084 96.9177C189.974 96.3003 189.703 95.7242 189.298 95.2471L189.096 95.0298L188.879 94.8302C188.43 94.4502 187.901 94.1881 187.34 94.0581L187.057 94.0043L186.772 93.9722C186.202 93.9318 185.633 94.0257 185.112 94.2446L184.855 94.3652C184.193 94.7079 183.65 95.2542 183.318 95.938L183.317 95.9372L174.991 112.927L174.991 112.928C174.743 113.433 174.627 113.997 174.658 114.569L174.681 114.813C174.765 115.468 175.042 116.084 175.471 116.587L175.637 116.769C176.04 117.177 176.534 117.477 177.07 117.649L177.301 117.714C177.844 117.848 178.408 117.851 178.944 117.725L181.898 117.029L182.238 122.421L182.253 122.657L182.278 122.752C182.345 123.17 182.487 123.573 182.699 123.943L182.803 124.112C183.055 124.5 183.38 124.834 183.756 125.098L183.919 125.206C184.307 125.448 184.734 125.612 185.177 125.696C185.681 125.792 186.197 125.779 186.69 125.663L186.695 125.662C187.203 125.541 187.679 125.311 188.088 124.986L188.238 124.859C188.579 124.555 188.86 124.184 189.06 123.765L189.059 123.764L197.376 106.799L197.376 106.798C197.659 106.221 197.771 105.566 197.686 104.912C197.612 104.339 197.391 103.796 197.049 103.332L196.896 103.139C196.521 102.7 196.047 102.366 195.524 102.158L195.297 102.077L195.065 102.011C194.601 101.896 194.12 101.878 193.655 101.955L193.423 102.002L190.472 102.696L190.134 97.3031ZM190.134 97.3031C190.135 97.3136 190.136 97.3217 190.136 97.3248C190.136 97.3242 190.136 97.3227 190.136 97.3208L190.134 97.3031Z" fill="#C2C8CC" stroke="#E9EBED" stroke-width="5.07551"/>
<rect x="81" y="92" width="150" height="59" fill="url(#paint0_linear_10549_87675)"/>
<mask id="path-5-outside-1_10549_87675" maskUnits="userSpaceOnUse" x="86.9735" y="129.545" width="122.726" height="120.416" fill="black">
<rect fill="white" x="86.9735" y="129.545" width="122.726" height="120.416"/>
<path fill-rule="evenodd" clip-rule="evenodd" d="M177.402 170.749C181.582 172.162 184.729 172.555 185.856 171.647C185.982 171.545 186.084 171.427 186.158 171.293C186.173 171.265 186.187 171.237 186.2 171.208C191.675 161.207 188.041 148.652 178.054 143.127C168.04 137.587 155.431 141.214 149.891 151.228L149.894 151.229L149.893 151.232C149.136 152.6 151.312 155.392 155.293 158.591C150.752 157.84 145.997 157.908 141.223 158.923C136.973 159.826 133.041 161.409 129.518 163.533C131.565 159.405 132.307 156.287 131.247 155.292C131.216 155.264 131.184 155.237 131.151 155.211C131.132 155.197 131.113 155.184 131.093 155.171C121.962 148.328 109.009 150.155 102.129 159.27C95.2345 168.404 97.05 181.398 106.184 188.293L106.185 188.291L106.186 188.292C107.259 189.102 109.678 187.915 112.703 185.349C110.983 191.193 110.65 197.537 112.005 203.914C113.88 212.734 118.679 220.18 125.172 225.455L122.42 229.692C121.402 231.259 121.848 233.355 123.415 234.373C124.982 235.39 127.078 234.945 128.096 233.378L130.783 229.24C138.49 233.498 147.708 235.106 156.997 233.132C166.584 231.094 174.549 225.6 179.866 218.232L184.517 221.252C186.084 222.27 188.18 221.825 189.198 220.258C190.216 218.69 189.77 216.595 188.203 215.577L183.325 212.409C186.822 205.12 188.025 196.66 186.214 188.141C184.788 181.432 181.67 175.518 177.402 170.749Z"/>
</mask>
<path fill-rule="evenodd" clip-rule="evenodd" d="M177.402 170.749C181.582 172.162 184.729 172.555 185.856 171.647C185.982 171.545 186.084 171.427 186.158 171.293C186.173 171.265 186.187 171.237 186.2 171.208C191.675 161.207 188.041 148.652 178.054 143.127C168.04 137.587 155.431 141.214 149.891 151.228L149.894 151.229L149.893 151.232C149.136 152.6 151.312 155.392 155.293 158.591C150.752 157.84 145.997 157.908 141.223 158.923C136.973 159.826 133.041 161.409 129.518 163.533C131.565 159.405 132.307 156.287 131.247 155.292C131.216 155.264 131.184 155.237 131.151 155.211C131.132 155.197 131.113 155.184 131.093 155.171C121.962 148.328 109.009 150.155 102.129 159.27C95.2345 168.404 97.05 181.398 106.184 188.293L106.185 188.291L106.186 188.292C107.259 189.102 109.678 187.915 112.703 185.349C110.983 191.193 110.65 197.537 112.005 203.914C113.88 212.734 118.679 220.18 125.172 225.455L122.42 229.692C121.402 231.259 121.848 233.355 123.415 234.373C124.982 235.39 127.078 234.945 128.096 233.378L130.783 229.24C138.49 233.498 147.708 235.106 156.997 233.132C166.584 231.094 174.549 225.6 179.866 218.232L184.517 221.252C186.084 222.27 188.18 221.825 189.198 220.258C190.216 218.69 189.77 216.595 188.203 215.577L183.325 212.409C186.822 205.12 188.025 196.66 186.214 188.141C184.788 181.432 181.67 175.518 177.402 170.749Z" fill="#7E8991"/>
<path d="M185.856 171.647L182.149 167.029L182.141 167.035L185.856 171.647ZM177.402 170.749L179.297 165.139L157.987 157.939L172.99 174.699L177.402 170.749ZM186.158 171.293L180.977 168.426L180.977 168.426L186.158 171.293ZM186.2 171.208L181.006 168.364L180.87 168.612L180.759 168.872L186.2 171.208ZM178.054 143.127L175.188 148.309L175.188 148.309L178.054 143.127ZM149.891 151.228L144.71 148.361L141.844 153.542L147.024 156.408L149.891 151.228ZM149.894 151.229L155.071 154.104L157.95 148.92L152.762 146.048L149.894 151.229ZM149.893 151.232L144.716 148.357L144.712 148.365L149.893 151.232ZM155.293 158.591L154.326 164.433L176.599 168.118L159.002 153.976L155.293 158.591ZM129.518 163.533L124.213 160.902L115.199 179.08L132.575 168.604L129.518 163.533ZM131.247 155.292L127.179 159.595L127.187 159.603L127.194 159.61L131.247 155.292ZM131.151 155.211L134.719 150.485L134.718 150.485L131.151 155.211ZM131.093 155.171L127.542 159.909L127.708 160.034L127.883 160.146L131.093 155.171ZM102.129 159.27L106.855 162.837L102.129 159.27ZM106.184 188.293L102.617 193.019L107.342 196.586L110.91 191.861L106.184 188.293ZM106.185 188.291L109.754 183.565L105.028 179.997L101.46 184.723L106.185 188.291ZM106.186 188.292L102.618 193.017L102.619 193.018L106.186 188.292ZM112.703 185.349L118.384 187.02L123.973 168.025L108.873 180.833L112.703 185.349ZM125.172 225.455L130.138 228.68L133.037 224.216L128.905 220.859L125.172 225.455ZM122.42 229.692L127.386 232.917L127.386 232.917L122.42 229.692ZM123.415 234.373L120.19 239.339L120.19 239.339L123.415 234.373ZM128.096 233.378L133.062 236.603L133.062 236.603L128.096 233.378ZM130.783 229.24L133.646 224.057L128.819 221.391L125.816 226.015L130.783 229.24ZM179.866 218.232L183.091 213.266L178.362 210.195L175.064 214.767L179.866 218.232ZM184.517 221.252L181.292 226.219L181.292 226.219L184.517 221.252ZM189.198 220.258L194.164 223.483L194.164 223.483L189.198 220.258ZM188.203 215.577L191.428 210.611L191.428 210.611L188.203 215.577ZM183.325 212.409L177.986 209.848L175.735 214.541L180.1 217.376L183.325 212.409ZM182.141 167.035C183.029 166.32 183.818 166.225 183.869 166.218C183.982 166.203 183.864 166.231 183.428 166.183C182.56 166.086 181.173 165.773 179.297 165.139L175.506 176.359C177.81 177.138 180.086 177.727 182.119 177.953C183.133 178.066 184.275 178.111 185.425 177.958C186.514 177.814 188.119 177.427 189.571 176.258L182.141 167.035ZM180.977 168.426C181.303 167.836 181.722 167.372 182.149 167.029L189.562 176.265C190.243 175.719 190.864 175.019 191.339 174.159L180.977 168.426ZM180.759 168.872C180.824 168.719 180.897 168.57 180.977 168.426L191.339 174.159C191.45 173.96 191.55 173.754 191.641 173.544L180.759 168.872ZM175.188 148.309C182.32 152.255 184.916 161.222 181.006 168.364L191.394 174.051C198.433 161.193 193.761 145.05 180.921 137.946L175.188 148.309ZM155.073 154.094C159.03 146.942 168.035 144.352 175.188 148.309L180.921 137.946C168.045 130.823 151.833 135.486 144.71 148.361L155.073 154.094ZM152.762 146.048L152.759 146.047L147.024 156.408L147.027 156.41L152.762 146.048ZM155.07 154.106L155.071 154.104L144.718 148.355L144.716 148.357L155.07 154.106ZM159.002 153.976C157.187 152.517 156.081 151.38 155.562 150.683C155.29 150.319 155.384 150.346 155.503 150.721C155.622 151.099 155.956 152.504 155.074 154.098L144.712 148.365C143.451 150.643 143.773 152.91 144.213 154.297C144.651 155.68 145.395 156.861 146.071 157.766C147.445 159.608 149.417 161.466 151.583 163.207L159.002 153.976ZM142.454 164.715C146.493 163.857 150.503 163.801 154.326 164.433L156.259 152.749C151.001 151.879 145.5 151.96 139.992 153.131L142.454 164.715ZM132.575 168.604C135.542 166.816 138.857 165.48 142.454 164.715L139.992 153.131C135.088 154.173 130.541 156.002 126.461 158.462L132.575 168.604ZM127.194 159.61C126.03 158.517 125.848 157.301 125.817 156.983C125.785 156.645 125.845 156.597 125.761 156.979C125.599 157.724 125.135 159.042 124.213 160.902L134.823 166.164C135.948 163.896 136.878 161.591 137.334 159.496C137.559 158.459 137.734 157.186 137.606 155.855C137.481 154.544 136.993 152.565 135.299 150.975L127.194 159.61ZM127.583 159.937C127.442 159.83 127.307 159.716 127.179 159.595L135.315 150.989C135.126 150.811 134.927 150.643 134.719 150.485L127.583 159.937ZM127.883 160.146C127.78 160.08 127.681 160.011 127.584 159.938L134.718 150.485C134.584 150.384 134.446 150.287 134.304 150.195L127.883 160.146ZM106.855 162.837C111.769 156.328 121.021 155.022 127.542 159.909L134.644 150.432C122.903 141.634 106.249 143.983 97.403 155.703L106.855 162.837ZM109.752 183.566C103.228 178.642 101.931 169.361 106.855 162.837L97.403 155.703C88.5381 167.447 90.8724 184.154 102.617 193.019L109.752 183.566ZM101.46 184.723L101.459 184.724L110.91 191.861L110.911 191.859L101.46 184.723ZM109.755 183.566L109.754 183.565L102.617 193.017L102.618 193.017L109.755 183.566ZM108.873 180.833C107.538 181.965 106.646 182.518 106.228 182.711C106.014 182.81 106.209 182.68 106.711 182.636C107.261 182.588 108.513 182.629 109.754 183.566L102.619 193.018C104.396 194.36 106.353 194.556 107.752 194.433C109.105 194.314 110.294 193.879 111.197 193.461C113.013 192.622 114.843 191.298 116.533 189.865L108.873 180.833ZM117.797 202.683C116.651 197.291 116.934 191.945 118.384 187.02L107.022 183.677C105.032 190.441 104.648 197.782 106.213 205.145L117.797 202.683ZM128.905 220.859C123.425 216.407 119.381 210.131 117.797 202.683L106.213 205.145C108.38 215.336 113.933 223.954 121.438 230.051L128.905 220.859ZM127.386 232.917L130.138 228.68L120.205 222.23L117.454 226.467L127.386 232.917ZM126.64 229.407C127.815 230.17 128.15 231.742 127.386 232.917L117.454 226.467C114.655 230.777 115.88 236.54 120.19 239.339L126.64 229.407ZM123.13 230.153C123.893 228.977 125.465 228.643 126.64 229.407L120.19 239.339C124.5 242.138 130.263 240.913 133.062 236.603L123.13 230.153ZM125.816 226.015L123.13 230.153L133.062 236.603L135.749 232.465L125.816 226.015ZM155.765 227.34C147.922 229.007 140.154 227.652 133.646 224.057L127.92 234.423C136.827 239.344 147.493 241.205 158.228 238.924L155.765 227.34ZM175.064 214.767C170.574 220.99 163.86 225.619 155.765 227.34L158.228 238.924C169.308 236.568 178.525 230.21 184.668 221.696L175.064 214.767ZM187.742 216.286L183.091 213.266L176.641 223.198L181.292 226.219L187.742 216.286ZM184.232 217.032C184.995 215.857 186.567 215.523 187.742 216.286L181.292 226.219C185.602 229.018 191.365 227.793 194.164 223.483L184.232 217.032ZM184.978 220.543C183.802 219.78 183.468 218.208 184.232 217.033L194.164 223.483C196.963 219.173 195.738 213.41 191.428 210.611L184.978 220.543ZM180.1 217.376L184.978 220.543L191.428 210.611L186.55 207.443L180.1 217.376ZM180.422 189.372C181.952 196.568 180.937 203.697 177.986 209.848L188.664 214.97C192.707 206.543 194.098 196.753 192.006 186.909L180.422 189.372ZM172.99 174.699C176.587 178.717 179.217 183.701 180.422 189.372L192.006 186.909C190.36 179.163 186.753 172.318 181.814 166.8L172.99 174.699Z" fill="#E9EBED" mask="url(#path-5-outside-1_10549_87675)"/>
<path d="M178.056 143.129C188.07 148.669 191.696 161.278 186.156 171.292L149.893 151.229C155.433 141.215 168.042 137.589 178.056 143.129Z" fill="#D8DCDE"/>
<path d="M102.132 159.268C95.2377 168.402 97.0531 181.396 106.187 188.291L131.155 155.213C122.021 148.318 109.027 150.134 102.132 159.268Z" fill="#D8DCDE"/>
<path d="M149.892 151.228C148.614 153.539 155.695 159.903 165.709 165.443C175.723 170.983 184.877 173.601 186.155 171.29C188.64 166.8 152.395 146.704 149.892 151.228Z" fill="#C2C8CC"/>
<path d="M131.151 155.213C133.258 156.804 129.378 165.498 122.483 174.632C115.589 183.766 108.291 189.881 106.183 188.29C102.087 185.198 127.025 152.098 131.151 155.213Z" fill="#C2C8CC"/>
<mask id="mask0_10549_87675" style="mask-type:alpha" maskUnits="userSpaceOnUse" x="149" y="150" width="38" height="23">
<path d="M149.892 151.23C148.614 153.541 155.695 159.905 165.709 165.445C175.723 170.985 184.877 173.603 186.155 171.292C188.64 166.802 152.395 146.706 149.892 151.23Z" fill="#D34444"/>
</mask>
<g mask="url(#mask0_10549_87675)">
<path fill-rule="evenodd" clip-rule="evenodd" d="M172.721 150.795C174.289 151.617 174.894 153.554 174.073 155.123L169.557 163.741C168.735 165.309 166.798 165.914 165.229 165.092C163.661 164.271 163.056 162.333 163.878 160.765L168.394 152.147C169.216 150.579 171.153 149.974 172.721 150.795Z" fill="#7E8991"/>
</g>
<mask id="mask1_10549_87675" style="mask-type:alpha" maskUnits="userSpaceOnUse" x="105" y="155" width="27" height="34">
<path d="M131.153 155.213C133.26 156.804 129.38 165.498 122.485 174.632C115.591 183.766 108.293 189.881 106.185 188.29C102.089 185.198 127.027 152.098 131.153 155.213Z" fill="#D34444"/>
</mask>
<g mask="url(#mask1_10549_87675)">
<path fill-rule="evenodd" clip-rule="evenodd" d="M110.122 164.103C109.023 165.492 109.258 167.508 110.647 168.606L118.278 174.642C119.666 175.741 121.682 175.505 122.781 174.117C123.879 172.728 123.644 170.712 122.255 169.614L114.624 163.578C113.236 162.479 111.22 162.715 110.122 164.103Z" fill="#7E8991"/>
</g>
<path fill-rule="evenodd" clip-rule="evenodd" d="M131.079 222.573C133.059 223.858 133.622 226.505 132.336 228.485L128.844 233.862C127.559 235.842 124.912 236.404 122.932 235.119C120.952 233.833 120.389 231.186 121.675 229.206L125.167 223.829C126.453 221.85 129.1 221.287 131.079 222.573Z" fill="#7E8991"/>
<path fill-rule="evenodd" clip-rule="evenodd" d="M177.399 212.594C178.684 210.615 181.331 210.052 183.311 211.338L188.688 214.829C190.668 216.115 191.231 218.762 189.945 220.742C188.659 222.722 186.012 223.284 184.032 221.999L178.655 218.507C176.676 217.221 176.113 214.574 177.399 212.594Z" fill="#7E8991"/>
<circle cx="149.11" cy="196.026" r="37.9333" transform="rotate(-12 149.11 196.026)" fill="#D8DCDE"/>
<circle cx="149.111" cy="196.026" r="27.2478" transform="rotate(-12 149.111 196.026)" fill="#F3F5F6"/>
<path fill-rule="evenodd" clip-rule="evenodd" d="M149.471 182.293C149.164 180.85 147.746 179.929 146.302 180.236C144.859 180.542 143.938 181.961 144.245 183.404L146.911 195.946C147.053 196.615 147.45 197.23 148.069 197.631L164.2 208.107C165.437 208.91 167.091 208.559 167.895 207.321C168.699 206.084 168.347 204.429 167.11 203.626L151.907 193.753L149.471 182.293Z" fill="#7E8991"/>
<path d="M75.0135 266.158H77.7155V264.688H78.9195V266.158H81.5935V267.138H78.9055V267.39C78.9055 268.86 80.0675 270.246 81.8875 270.82L81.3275 271.772C79.9275 271.324 78.8915 270.414 78.3455 269.266C77.8135 270.568 76.7355 271.59 75.2935 272.08L74.6915 271.142C76.5395 270.526 77.7155 269.014 77.7155 267.39V267.138H75.0135V266.158ZM81.2435 268.188H83.6235V264.744H84.8415V273.242H83.6235V269.182H81.2435V268.188ZM80.2355 272.444H81.4675V272.696C81.4675 274.348 83.3015 275.692 85.5695 276.056L85.0935 277.022C83.2035 276.686 81.5795 275.72 80.8515 274.334C80.1235 275.706 78.4855 276.686 76.5955 277.022L76.1195 276.056C78.3595 275.692 80.2355 274.306 80.2355 272.696V272.444ZM95.4958 264.744H96.7138V273.858H95.4958V269.168H92.7518V271.786H87.1658V265.556H88.3558V267.684H91.5618V265.556H92.7518V268.174H95.4958V264.744ZM88.7758 272.962H89.9798V275.804H97.0078V276.784H88.7758V272.962ZM88.3558 268.636V270.792H91.5618V268.636H88.3558ZM107.942 264.744H109.09V277.064H107.942V270.708H106.682V276.434H105.562V264.996H106.682V269.728H107.942V264.744ZM98.6042 266.214H101.628V267.194H100.914V268.398C100.914 269.448 100.956 271.31 101.81 272.668C102.636 271.394 102.692 269.616 102.692 268.398V267.194H101.978V266.214H104.89V267.194H103.742V268.398C103.742 269.994 104.008 272.178 105.422 273.298L104.736 274.138C103.966 273.522 103.504 272.556 103.252 271.506C103.014 272.584 102.594 273.606 101.796 274.264C101.012 273.592 100.592 272.542 100.354 271.464C100.088 272.528 99.6402 273.508 98.8702 274.138L98.1982 273.298C99.5982 272.164 99.8642 269.952 99.8642 268.398V267.194H98.6042V266.214ZM110.336 274.558H115.292V272.304H111.722V268.44H118.932V266.606H111.694V265.626H120.136V269.406H112.912V271.324H120.416V272.304H116.496V274.558H121.494V275.552H110.336V274.558ZM133.989 264.744H135.207V273.718H133.989V264.744ZM127.269 272.808H128.473V275.804H135.571V276.784H127.269V272.808ZM128.585 265.584C130.433 265.584 131.819 266.844 131.819 268.636C131.819 270.414 130.433 271.674 128.585 271.674C126.751 271.674 125.351 270.414 125.351 268.636C125.351 266.844 126.751 265.584 128.585 265.584ZM128.585 266.634C127.423 266.634 126.541 267.446 126.541 268.636C126.541 269.798 127.423 270.61 128.585 270.61C129.747 270.61 130.643 269.798 130.643 268.636C130.643 267.446 129.747 266.634 128.585 266.634ZM136.986 270.582H148.116V271.562H136.986V270.582ZM142.544 272.57C145.176 272.57 146.772 273.396 146.772 274.81C146.772 276.224 145.176 277.05 142.544 277.05C139.898 277.05 138.316 276.224 138.316 274.81C138.316 273.396 139.898 272.57 142.544 272.57ZM142.544 273.536C140.64 273.536 139.534 273.998 139.534 274.81C139.534 275.636 140.64 276.084 142.544 276.084C144.434 276.084 145.54 275.636 145.54 274.81C145.54 273.998 144.434 273.536 142.544 273.536ZM138.008 265.36H147.108V266.354H143.356C143.468 267.642 145.302 268.678 147.528 268.916L147.08 269.868C145.008 269.63 143.23 268.734 142.558 267.404C141.886 268.734 140.094 269.63 138.022 269.868L137.588 268.916C139.786 268.678 141.634 267.628 141.746 266.354H138.008V265.36ZM148.844 266.816H151.294V265.08H152.484V266.816H154.92V267.796H148.844V266.816ZM151.896 268.58C153.436 268.58 154.556 269.756 154.556 271.408C154.556 273.074 153.436 274.236 151.896 274.236C150.356 274.236 149.25 273.074 149.25 271.408C149.25 269.756 150.356 268.58 151.896 268.58ZM151.896 269.602C150.972 269.602 150.328 270.344 150.328 271.408C150.328 272.472 150.972 273.214 151.896 273.214C152.806 273.214 153.478 272.472 153.478 271.408C153.478 270.344 152.806 269.602 151.896 269.602ZM158.154 264.73H159.302V277.05H158.154V270.89H156.656V276.462H155.522V265.024H156.656V269.896H158.154V264.73ZM160.758 271.73H171.902V272.724H166.904V277.064H165.7V272.724H160.758V271.73ZM161.794 265.486H170.824V266.466H167.002V266.48C167.002 268.048 169.018 269.462 171.258 269.77L170.796 270.75C168.85 270.428 167.072 269.406 166.33 267.964C165.574 269.406 163.81 270.428 161.864 270.75L161.402 269.77C163.642 269.462 165.644 268.048 165.644 266.48V266.466H161.794V265.486ZM177.489 269.112H179.449V264.996H180.583V276.434H179.449V270.12H177.489V269.112ZM175.151 265.892H176.313V268.16C176.313 270.12 177.195 272.22 178.819 273.228L178.133 274.166C176.985 273.466 176.187 272.192 175.753 270.75C175.305 272.332 174.437 273.69 173.233 274.432L172.477 273.522C174.185 272.514 175.151 270.302 175.151 268.188V265.892ZM181.955 264.73H183.117V277.05H181.955V264.73ZM184.531 274.488H187.233V271.212C186.211 270.652 185.595 269.784 185.595 268.664C185.595 266.732 187.485 265.486 190.089 265.486C192.721 265.486 194.583 266.732 194.583 268.664C194.583 269.77 193.981 270.638 192.987 271.184V274.488H195.689V275.482H184.531V274.488ZM190.089 266.438C188.157 266.438 186.785 267.32 186.785 268.664C186.785 270.022 188.157 270.89 190.089 270.89C192.035 270.89 193.407 270.022 193.407 268.664C193.407 267.32 192.035 266.438 190.089 266.438ZM188.437 274.488H191.769V271.646C191.265 271.772 190.691 271.842 190.089 271.842C189.501 271.842 188.941 271.772 188.437 271.66V274.488ZM198.895 265.738L198.713 273.48H197.621L197.411 265.738H198.895ZM198.181 274.712C198.615 274.712 198.923 275.02 198.923 275.468C198.923 275.916 198.615 276.238 198.181 276.238C197.733 276.238 197.411 275.916 197.411 275.468C197.411 275.02 197.733 274.712 198.181 274.712ZM212.415 264.744H213.619V270.988H212.415V268.412H209.993C209.769 269.812 208.495 270.75 206.843 270.75C205.009 270.75 203.665 269.602 203.665 267.95C203.665 266.298 205.009 265.136 206.843 265.136C208.481 265.136 209.741 266.06 209.993 267.446H212.415V264.744ZM206.843 266.13C205.681 266.13 204.813 266.872 204.813 267.95C204.813 269.014 205.681 269.756 206.843 269.756C208.005 269.756 208.873 269.014 208.873 267.95C208.873 266.872 208.005 266.13 206.843 266.13ZM205.667 271.646H213.619V274.67H206.899V275.93H214.067V276.896H205.695V273.76H212.429V272.598H205.667V271.646ZM215.369 271.534H226.527V272.528H215.369V271.534ZM216.825 273.452H218.043V275.804H225.379V276.784H216.825V273.452ZM216.783 265.122H225.099V268.244H217.987V269.532H225.365V270.47H216.811V267.348H223.909V266.074H216.783V265.122ZM227.816 270.876C228.208 269.91 229.188 269.252 230.168 269.294C230.574 269.336 231.134 269.518 231.512 269.756L232.688 270.484C232.94 270.652 233.262 270.764 233.444 270.764C233.934 270.792 234.41 270.456 234.606 269.938L235.74 270.372C235.362 271.352 234.382 272.024 233.374 271.968C233.01 271.954 232.464 271.772 232.058 271.52L230.854 270.778C230.63 270.638 230.322 270.512 230.098 270.498C229.622 270.484 229.132 270.834 228.936 271.338L227.816 270.876Z" fill="#C2C8CC"/>
<defs>
<linearGradient id="paint0_linear_10549_87675" x1="156" y1="92" x2="156" y2="151" gradientUnits="userSpaceOnUse">
<stop stop-color="#F8F9F9"/>
<stop offset="1" stop-color="#F8F9F9" stop-opacity="0"/>
</linearGradient>
</defs>
</svg>
