<svg width="24" height="24" viewBox="0 0 24 24" fill="none" xmlns="http://www.w3.org/2000/svg">
<path d="M12 16.75C13.6569 16.75 15 15.4069 15 13.75C15 12.0931 13.6569 10.75 12 10.75C10.3431 10.75 9 12.0931 9 13.75C9 15.4069 10.3431 16.75 12 16.75Z" fill="#75E2B4"/>
<path d="M20.25 7.75H17.4844C17.3438 7.75 17.1694 7.65906 17.0334 7.51562L15.8175 5.59656C15.7983 5.56611 15.7768 5.53712 15.7533 5.50984C15.3333 5.02 14.7656 4.75 14.1562 4.75H9.84375C9.23438 4.75 8.66672 5.02 8.24672 5.50984C8.2232 5.53712 8.20173 5.56611 8.1825 5.59656L6.96656 7.51844C6.8625 7.63187 6.71625 7.75281 6.5625 7.75281H3.9375H3.75C3.15345 7.75343 2.58152 7.99069 2.1597 8.41251C1.73787 8.83433 1.50062 9.40627 1.5 10.0028V19C1.50062 19.5965 1.73787 20.1685 2.1597 20.5903C2.58152 21.0121 3.15345 21.2494 3.75 21.25H20.25C20.8465 21.2494 21.4185 21.0121 21.8403 20.5903C22.2621 20.1685 22.4994 19.5965 22.5 19V10C22.4994 9.40345 22.2621 8.83152 21.8403 8.40969C21.4185 7.98787 20.8465 7.75062 20.25 7.75ZM12 18.25C11.11 18.25 10.24 17.9861 9.49993 17.4916C8.75991 16.9971 8.18314 16.2943 7.84254 15.4721C7.50195 14.6498 7.41283 13.745 7.58647 12.8721C7.7601 11.9992 8.18868 11.1974 8.81802 10.568C9.44736 9.93868 10.2492 9.5101 11.1221 9.33647C11.995 9.16283 12.8998 9.25195 13.7221 9.59254C14.5443 9.93314 15.2471 10.5099 15.7416 11.2499C16.2361 11.99 16.5 12.86 16.5 13.75C16.4986 14.9431 16.0241 16.0869 15.1805 16.9305C14.3369 17.7741 13.1931 18.2486 12 18.25Z" fill="#41D797"/>
<circle cx="19" cy="6" r="5" fill="#31A473"/>
<path d="M19.5 4C19.5 3.72386 19.2761 3.5 19 3.5C18.7239 3.5 18.5 3.72386 18.5 4V5.5H17C16.7239 5.5 16.5 5.72386 16.5 6C16.5 6.27614 16.7239 6.5 17 6.5H18.5V8C18.5 8.27614 18.7239 8.5 19 8.5C19.2761 8.5 19.5 8.27614 19.5 8V6.5H21C21.2761 6.5 21.5 6.27614 21.5 6C21.5 5.72386 21.2761 5.5 21 5.5H19.5V4Z" fill="white"/>
</svg>
