<svg width="68" height="68" viewBox="0 0 68 68" fill="none" xmlns="http://www.w3.org/2000/svg">
<path opacity="0.6" d="M34 0C15.2232 0 0 15.2232 0 34C0 52.7768 15.2232 68 34 68C52.7768 68 68 52.7768 68 34C68 15.2232 52.7768 0 34 0ZM49.6923 39.2308H34C33.3064 39.2308 32.6411 38.9552 32.1506 38.4647C31.6602 37.9743 31.3846 37.309 31.3846 36.6154V13.0769C31.3846 12.3833 31.6602 11.718 32.1506 11.2276C32.6411 10.7371 33.3064 10.4615 34 10.4615C34.6936 10.4615 35.3589 10.7371 35.8494 11.2276C36.3398 11.718 36.6154 12.3833 36.6154 13.0769V34H49.6923C50.386 34 51.0512 34.2755 51.5417 34.766C52.0321 35.2565 52.3077 35.9217 52.3077 36.6154C52.3077 37.309 52.0321 37.9743 51.5417 38.4647C51.0512 38.9552 50.386 39.2308 49.6923 39.2308Z" fill="#9FA6FF"/>
</svg>
