<svg width="327" height="440" viewBox="0 0 327 440" fill="none" xmlns="http://www.w3.org/2000/svg">
<rect width="327" height="440" fill="#FF703B"/>
<mask id="path-1-outside-1_8529_69125" maskUnits="userSpaceOnUse" x="95.3856" y="147.963" width="186.092" height="148.851" fill="black">
<rect fill="white" x="95.3856" y="147.963" width="186.092" height="148.851"/>
<path fill-rule="evenodd" clip-rule="evenodd" d="M124.691 156.536C122.633 156.355 120.818 157.876 120.636 159.934L114.067 234.454L110.34 234.125C108.282 233.944 106.466 235.465 106.285 237.523L103.329 271.057C103.147 273.115 104.668 274.93 106.726 275.111L259.493 288.58C261.551 288.761 263.366 287.24 263.548 285.182L266.504 251.648C266.686 249.59 265.164 247.775 263.107 247.593L259.382 247.265L265.952 172.745C266.133 170.687 264.612 168.872 262.554 168.69L124.691 156.536Z"/>
</mask>
<path fill-rule="evenodd" clip-rule="evenodd" d="M124.691 156.536C122.633 156.355 120.818 157.876 120.636 159.934L114.067 234.454L110.34 234.125C108.282 233.944 106.466 235.465 106.285 237.523L103.329 271.057C103.147 273.115 104.668 274.93 106.726 275.111L259.493 288.58C261.551 288.761 263.366 287.24 263.548 285.182L266.504 251.648C266.686 249.59 265.164 247.775 263.107 247.593L259.382 247.265L265.952 172.745C266.133 170.687 264.612 168.872 262.554 168.69L124.691 156.536Z" fill="#494949"/>
<path d="M120.636 159.934L113.664 159.319L120.636 159.934ZM114.067 234.454L113.452 241.427L120.425 242.041L121.04 235.069L114.067 234.454ZM259.382 247.265L252.409 246.65L251.794 253.623L258.767 254.238L259.382 247.265ZM127.609 160.549C127.451 162.342 125.87 163.667 124.076 163.509L125.306 149.563C119.397 149.042 114.184 153.41 113.664 159.319L127.609 160.549ZM121.04 235.069L127.609 160.549L113.664 159.319L107.094 233.839L121.04 235.069ZM109.725 241.098L113.452 241.427L114.682 227.481L110.954 227.152L109.725 241.098ZM113.258 238.137C113.1 239.931 111.518 241.256 109.725 241.098L110.954 227.152C105.045 226.631 99.833 230.999 99.3121 236.908L113.258 238.137ZM110.302 271.672L113.258 238.137L99.3121 236.908L96.3557 270.442L110.302 271.672ZM107.341 268.139C109.134 268.297 110.46 269.878 110.302 271.672L96.3557 270.442C95.8347 276.351 100.202 281.563 106.111 282.084L107.341 268.139ZM260.108 281.607L107.341 268.139L106.111 282.084L258.879 295.552L260.108 281.607ZM256.575 284.567C256.733 282.774 258.315 281.448 260.108 281.607L258.879 295.552C264.787 296.073 270 291.706 270.521 285.797L256.575 284.567ZM259.531 251.033L256.575 284.567L270.521 285.797L273.477 252.262L259.531 251.033ZM262.492 254.566C260.699 254.408 259.373 252.826 259.531 251.033L273.477 252.262C273.998 246.354 269.63 241.141 263.721 240.62L262.492 254.566ZM258.767 254.238L262.492 254.566L263.721 240.62L259.997 240.292L258.767 254.238ZM258.979 172.13L252.409 246.65L266.355 247.88L272.924 173.36L258.979 172.13ZM261.939 175.663C260.146 175.505 258.82 173.923 258.979 172.13L272.924 173.36C273.445 167.451 269.078 162.238 263.169 161.717L261.939 175.663ZM124.076 163.509L261.939 175.663L263.169 161.717L125.306 149.563L124.076 163.509Z" fill="white" mask="url(#path-1-outside-1_8529_69125)"/>
<rect x="120.965" y="156.207" width="145.879" height="99.1227" rx="3.74048" transform="rotate(5.03821 120.965 156.207)" fill="#DEDEDE"/>
<rect x="106.613" y="233.796" width="160.841" height="41.1453" rx="3.74048" transform="rotate(5.03821 106.613 233.796)" fill="#494949"/>
<rect x="116.479" y="249.685" width="138.398" height="11.2214" rx="3.74048" transform="rotate(5.03821 116.479 249.685)" fill="#2A2A2A"/>
<rect x="130.006" y="181.41" width="26.1833" height="14.9619" rx="3.74048" transform="rotate(5.03821 130.006 181.41)" fill="#2A2A2A"/>
<mask id="path-7-inside-2_8529_69125" fill="white">
<rect x="228.199" y="175.048" width="26.1833" height="29.9238" rx="3.74048" transform="rotate(5.03821 228.199 175.048)"/>
</mask>
<rect x="228.199" y="175.048" width="26.1833" height="29.9238" rx="3.74048" transform="rotate(5.03821 228.199 175.048)" fill="#2A2A2A" stroke="#494949" stroke-width="11.2214" mask="url(#path-7-inside-2_8529_69125)"/>
<circle cx="190.337" cy="199.872" r="28.0536" transform="rotate(5.03821 190.337 199.872)" fill="#2A2A2A"/>
<circle cx="190.337" cy="199.873" r="15.897" transform="rotate(5.03821 190.337 199.873)" fill="#414141" stroke="#6C6C6C" stroke-width="5.61072"/>
<circle cx="140.256" cy="214.232" r="9.3512" transform="rotate(5.03821 140.256 214.232)" fill="#FF632A"/>
<circle cx="237.133" cy="222.773" r="9.3512" transform="rotate(5.03821 237.133 222.773)" fill="#2A2A2A"/>
<path d="M261.077 105.568L261.077 105.568C258.843 102.699 254.322 103.425 253.1 106.85L256.385 108.022L253.1 106.85L247.891 121.451L220.406 113.635C216.363 112.485 213.017 116.905 215.222 120.484L226.631 139.009L215.988 146.157C212.67 148.386 213.567 153.492 217.446 154.455L231.7 157.996L226.783 174.469C225.673 178.188 229.377 181.53 232.963 180.044L253.79 171.413L263.006 182.173L265.665 179.897L263.006 182.173C264.864 184.342 268.226 184.317 270.051 182.121L280.454 169.601L303.035 173.45C307.098 174.142 309.957 169.559 307.549 166.214L297.375 152.084L310.365 142.849C313.656 140.51 312.561 135.37 308.603 134.575L291.993 131.239L296.759 118.496C298.119 114.861 294.651 111.276 290.973 112.514L271.567 119.047L261.077 105.568ZM304.211 166.549L304.206 166.548C304.207 166.549 304.209 166.549 304.211 166.549Z" fill="#50D28D" stroke="white" stroke-width="7"/>
<rect x="139.31" y="273.66" width="95.7259" height="111.746" rx="5.96461" transform="rotate(-3.20409 139.31 273.66)" fill="white" stroke="white" stroke-width="7"/>
<g clip-path="url(#clip0_8529_69125)">
<rect x="146.898" y="280.443" width="81.3321" height="72.7059" rx="2.46461" transform="rotate(-3.20409 146.898 280.443)" fill="#FF703B"/>
<circle cx="206.513" cy="325.143" r="37.2666" transform="rotate(-24.2052 206.513 325.143)" fill="#FFDF75" stroke="white" stroke-width="6"/>
<circle cx="195.153" cy="328.804" r="3.95384" transform="rotate(-24.2052 195.153 328.804)" fill="#494949"/>
<circle cx="195.417" cy="343.858" r="7.24871" transform="rotate(-24.2052 195.417 343.858)" fill="#FFA099"/>
<circle cx="226.673" cy="329.809" r="7.24871" transform="rotate(-24.2052 226.673 329.809)" fill="#FFA099"/>
<circle cx="215.591" cy="319.617" r="3.95384" transform="rotate(-24.2052 215.591 319.617)" fill="#494949"/>
<path d="M209.756 332.357C207.764 333.252 206.534 335.784 207.77 337.584C208.548 338.715 210.972 339.035 210.972 339.035C210.972 339.035 209.602 341.06 209.932 342.392C210.457 344.512 213.168 345.273 215.159 344.377" stroke="#FFB114" stroke-width="3" stroke-linecap="round" stroke-linejoin="round"/>
</g>
<path d="M86.4912 398.655L87.1741 400.535L86.4912 398.655L95.6296 395.335L99.0497 386.26C100.351 382.808 105.235 382.808 106.536 386.26L109.956 395.335L119.094 398.655C122.606 399.931 122.606 404.898 119.094 406.174L109.956 409.494L106.536 418.569C105.235 422.021 100.351 422.021 99.0497 418.569L95.6296 409.494L86.4912 406.174C82.979 404.898 82.979 399.931 86.4912 398.655Z" fill="#50D28D" stroke="white" stroke-width="4"/>
<path d="M25.4912 32.655L26.1741 34.5348L25.4912 32.655L34.6296 29.335L38.0497 20.2603C39.3509 16.8079 44.2345 16.8079 45.5357 20.2603L48.9558 29.335L58.0942 32.655C61.6063 33.931 61.6064 38.8982 58.0942 40.1742L48.9558 43.4942L45.5357 52.5689C44.2345 56.0213 39.3509 56.0213 38.0497 52.5689L34.6296 43.4942L25.4912 40.1742C21.979 38.8982 21.979 33.931 25.4912 32.655Z" fill="#50D28D" stroke="white" stroke-width="4"/>
<path d="M143.491 75.6559L144.174 77.5357L143.491 75.6559L152.63 72.3358L156.05 63.2612C157.351 59.8087 162.235 59.8087 163.536 63.2612L166.956 72.3358L176.094 75.6559C179.606 76.9319 179.606 81.899 176.094 83.175L166.956 86.495L163.536 95.5697C162.235 99.0222 157.351 99.0222 156.05 95.5697L152.63 86.495L143.491 83.175C139.979 81.899 139.979 76.9319 143.491 75.6559Z" fill="#FFD754" stroke="white" stroke-width="4"/>
<path d="M26.4912 299.655L27.1741 301.535L26.4912 299.655L35.6296 296.335L39.0497 287.26C40.3509 283.808 45.2345 283.808 46.5357 287.26L49.9558 296.335L59.0942 299.655C62.6063 300.931 62.6064 305.898 59.0942 307.174L49.9558 310.494L46.5357 319.569C45.2345 323.021 40.3509 323.021 39.0497 319.569L35.6296 310.494L26.4912 307.174C22.979 305.898 22.979 300.931 26.4912 299.655Z" fill="#FFD754" stroke="white" stroke-width="4"/>
<path d="M271.491 386.655L272.174 388.535L271.491 386.655L280.63 383.335L284.05 374.26C285.351 370.808 290.235 370.808 291.536 374.26L294.956 383.335L304.094 386.655C307.606 387.931 307.606 392.898 304.094 394.174L294.956 397.494L291.536 406.569C290.235 410.021 285.351 410.021 284.05 406.569L280.63 397.494L271.491 394.174C267.979 392.898 267.979 387.931 271.491 386.655Z" fill="#FFD754" stroke="white" stroke-width="4"/>
<mask id="path-26-outside-3_8529_69125" maskUnits="userSpaceOnUse" x="29.9316" y="128" width="58" height="67" fill="black">
<rect fill="white" x="29.9316" y="128" width="58" height="67"/>
<path fill-rule="evenodd" clip-rule="evenodd" d="M58.5502 132.003C54.9619 132.108 52.1385 135.103 52.2439 138.691L52.6143 151.298C51.2406 150.8 49.6917 150.76 48.2087 151.291C45.828 152.145 44.2522 154.244 43.9525 156.592C42.5052 155.983 40.8345 155.894 39.24 156.465C35.8607 157.677 34.1033 161.398 35.3147 164.777L38.2215 172.886C38.8243 174.567 40.0485 175.847 41.5428 176.56C43.462 184.73 50.7972 190.813 59.553 190.813C69.4384 190.813 77.5129 183.06 78.027 173.302L78.4278 173.2C81.9072 172.317 84.0114 168.78 83.1276 165.3C82.4942 162.806 80.4975 161.019 78.136 160.532L82.5257 141.987C83.3526 138.493 81.191 134.991 77.6977 134.164C74.2044 133.337 70.7022 135.499 69.8753 138.992L65.7682 156.344L65.2383 138.309C65.1329 134.721 62.1385 131.897 58.5502 132.003Z"/>
</mask>
<path fill-rule="evenodd" clip-rule="evenodd" d="M58.5502 132.003C54.9619 132.108 52.1385 135.103 52.2439 138.691L52.6143 151.298C51.2406 150.8 49.6917 150.76 48.2087 151.291C45.828 152.145 44.2522 154.244 43.9525 156.592C42.5052 155.983 40.8345 155.894 39.24 156.465C35.8607 157.677 34.1033 161.398 35.3147 164.777L38.2215 172.886C38.8243 174.567 40.0485 175.847 41.5428 176.56C43.462 184.73 50.7972 190.813 59.553 190.813C69.4384 190.813 77.5129 183.06 78.027 173.302L78.4278 173.2C81.9072 172.317 84.0114 168.78 83.1276 165.3C82.4942 162.806 80.4975 161.019 78.136 160.532L82.5257 141.987C83.3526 138.493 81.191 134.991 77.6977 134.164C74.2044 133.337 70.7022 135.499 69.8753 138.992L65.7682 156.344L65.2383 138.309C65.1329 134.721 62.1385 131.897 58.5502 132.003Z" fill="#FFDF75"/>
<path d="M52.2439 138.691L56.2422 138.573V138.573L52.2439 138.691ZM58.5502 132.003L58.4328 128.005L58.5502 132.003ZM52.6143 151.298L51.251 155.058L56.7855 157.065L56.6126 151.18L52.6143 151.298ZM48.2087 151.291L46.8589 147.526H46.8589L48.2087 151.291ZM43.9525 156.592L42.4013 160.279L47.2535 162.32L47.9203 157.098L43.9525 156.592ZM39.24 156.465L40.5898 160.231L40.5898 160.231L39.24 156.465ZM35.3147 164.777L31.5493 166.127H31.5493L35.3147 164.777ZM38.2215 172.886L41.9869 171.536L41.9869 171.536L38.2215 172.886ZM41.5428 176.56L45.4368 175.645L44.9977 173.776L43.2642 172.949L41.5428 176.56ZM78.027 173.302L77.0423 169.425L74.1876 170.15L74.0326 173.092L78.027 173.302ZM78.4278 173.2L79.4125 177.077L79.4125 177.077L78.4278 173.2ZM83.1276 165.3L79.2507 166.285L83.1276 165.3ZM78.136 160.532L74.2435 159.611L73.295 163.618L77.3282 164.45L78.136 160.532ZM82.5257 141.987L86.4182 142.908V142.908L82.5257 141.987ZM77.6977 134.164L76.7764 138.057L77.6977 134.164ZM69.8753 138.992L73.7677 139.914V139.914L69.8753 138.992ZM65.7682 156.344L61.7699 156.461L69.6606 157.265L65.7682 156.344ZM65.2383 138.309L69.2366 138.192L65.2383 138.309ZM56.2422 138.573C56.2016 137.193 57.2876 136.042 58.6677 136.001L58.4328 128.005C52.6363 128.175 48.0753 133.012 48.2456 138.808L56.2422 138.573ZM56.6126 151.18L56.2422 138.573L48.2456 138.808L48.616 151.415L56.6126 151.18ZM49.5585 155.057C50.1322 154.851 50.721 154.866 51.251 155.058L53.9777 147.537C51.7602 146.733 49.2512 146.668 46.8589 147.526L49.5585 155.057ZM47.9203 157.098C48.037 156.184 48.6483 155.383 49.5585 155.057L46.8589 147.526C43.0077 148.907 40.4675 152.304 39.9847 156.085L47.9203 157.098ZM40.5898 160.231C41.2052 160.01 41.8408 160.043 42.4013 160.279L45.5036 152.905C43.1696 151.923 40.4638 151.777 37.8901 152.7L40.5898 160.231ZM39.0801 163.428C38.6141 162.128 39.2901 160.696 40.5898 160.231L37.8902 152.7C32.4313 154.657 29.5924 160.668 31.5493 166.127L39.0801 163.428ZM41.9869 171.536L39.0801 163.428L31.5493 166.127L34.4561 174.236L41.9869 171.536ZM43.2642 172.949C42.684 172.673 42.2191 172.184 41.9869 171.536L34.4561 174.236C35.4294 176.951 37.413 179.022 39.8214 180.17L43.2642 172.949ZM59.553 186.813C52.6955 186.813 46.941 182.049 45.4368 175.645L37.6488 177.474C39.983 187.412 48.8988 194.813 59.553 194.813V186.813ZM74.0326 173.092C73.6298 180.736 67.2998 186.813 59.553 186.813V194.813C71.577 194.813 81.396 185.383 82.0215 173.513L74.0326 173.092ZM77.4431 169.324L77.0423 169.425L79.0117 177.179L79.4125 177.077L77.4431 169.324ZM79.2507 166.285C79.5906 167.623 78.7813 168.984 77.4431 169.324L79.4125 177.077C85.033 175.65 88.4321 169.936 87.0045 164.316L79.2507 166.285ZM77.3282 164.45C78.2468 164.639 79.0086 165.332 79.2507 166.285L87.0045 164.316C85.9798 160.281 82.7482 157.399 78.9437 156.614L77.3282 164.45ZM78.6333 141.065L74.2435 159.611L82.0284 161.453L86.4182 142.908L78.6333 141.065ZM76.7764 138.057C78.12 138.375 78.9513 139.722 78.6333 141.065L86.4182 142.908C87.7539 137.265 84.2621 131.608 78.6191 130.272L76.7764 138.057ZM73.7677 139.914C74.0858 138.57 75.4328 137.739 76.7764 138.057L78.6191 130.272C72.976 128.936 67.3186 132.428 65.9829 138.071L73.7677 139.914ZM69.6606 157.265L73.7677 139.914L65.9829 138.071L61.8757 155.422L69.6606 157.265ZM61.24 138.427L61.7699 156.461L69.7664 156.226L69.2366 138.192L61.24 138.427ZM58.6677 136.001C60.0478 135.961 61.1995 137.047 61.24 138.427L69.2366 138.192C69.0663 132.395 64.2292 127.834 58.4328 128.005L58.6677 136.001Z" fill="white" mask="url(#path-26-outside-3_8529_69125)"/>
<mask id="path-28-inside-4_8529_69125" fill="white">
<path fill-rule="evenodd" clip-rule="evenodd" d="M52.1225 138.691C52.0171 135.103 54.8405 132.108 58.4288 132.003C62.0171 131.897 65.0115 134.721 65.1169 138.309L65.6468 156.344L69.7539 138.992C70.5808 135.499 74.083 133.337 77.5763 134.164C81.0697 134.991 83.2312 138.493 82.4043 141.987L77.9316 160.882V172.313C77.9316 182.53 69.6489 190.813 59.4316 190.813C49.2144 190.813 40.9316 182.53 40.9316 172.313V160.813H52.7725L52.1225 138.691Z"/>
</mask>
<path fill-rule="evenodd" clip-rule="evenodd" d="M52.1225 138.691C52.0171 135.103 54.8405 132.108 58.4288 132.003C62.0171 131.897 65.0115 134.721 65.1169 138.309L65.6468 156.344L69.7539 138.992C70.5808 135.499 74.083 133.337 77.5763 134.164C81.0697 134.991 83.2312 138.493 82.4043 141.987L77.9316 160.882V172.313C77.9316 182.53 69.6489 190.813 59.4316 190.813C49.2144 190.813 40.9316 182.53 40.9316 172.313V160.813H52.7725L52.1225 138.691Z" fill="#FFDF75"/>
<path d="M58.4288 132.003L58.3407 129.004L58.4288 132.003ZM52.1225 138.691L55.1212 138.603L52.1225 138.691ZM65.1169 138.309L68.1156 138.221L65.1169 138.309ZM65.6468 156.344L62.6481 156.432L68.5661 157.035L65.6468 156.344ZM69.7539 138.992L66.8346 138.301L69.7539 138.992ZM77.5763 134.164L76.8853 137.084L77.5763 134.164ZM82.4043 141.987L85.3237 142.678V142.678L82.4043 141.987ZM77.9316 160.882L75.0123 160.191L74.9316 160.532V160.882H77.9316ZM40.9316 160.813V157.813H37.9316V160.813H40.9316ZM52.7725 160.813V163.813H55.8619L55.7712 160.725L52.7725 160.813ZM58.3407 129.004C53.0963 129.158 48.9697 133.535 49.1238 138.779L55.1212 138.603C55.0645 136.671 56.5848 135.058 58.5169 135.002L58.3407 129.004ZM68.1156 138.221C67.9615 132.977 63.5852 128.85 58.3407 129.004L58.5169 135.002C60.4491 134.945 62.0615 136.465 62.1182 138.397L68.1156 138.221ZM68.6455 156.255L68.1156 138.221L62.1182 138.397L62.6481 156.432L68.6455 156.255ZM66.8346 138.301L62.7275 155.652L68.5661 157.035L72.6732 139.683L66.8346 138.301ZM78.2674 131.245C73.1617 130.036 68.0431 133.196 66.8346 138.301L72.6732 139.683C73.1185 137.802 75.0043 136.638 76.8853 137.084L78.2674 131.245ZM85.3237 142.678C86.5322 137.572 83.373 132.453 78.2674 131.245L76.8853 137.084C78.7663 137.529 79.9303 139.415 79.485 141.296L85.3237 142.678ZM80.851 161.573L85.3237 142.678L79.485 141.296L75.0123 160.191L80.851 161.573ZM74.9316 160.882V172.313H80.9316V160.882H74.9316ZM74.9316 172.313C74.9316 180.873 67.9921 187.813 59.4316 187.813V193.813C71.3058 193.813 80.9316 184.187 80.9316 172.313H74.9316ZM59.4316 187.813C50.8712 187.813 43.9316 180.873 43.9316 172.313H37.9316C37.9316 184.187 47.5575 193.813 59.4316 193.813V187.813ZM43.9316 172.313V160.813H37.9316V172.313H43.9316ZM40.9316 163.813H52.7725V157.813H40.9316V163.813ZM49.1238 138.779L49.7738 160.901L55.7712 160.725L55.1212 138.603L49.1238 138.779Z" fill="#FFB114" mask="url(#path-28-inside-4_8529_69125)"/>
<rect x="80.3217" y="160.823" width="10" height="17.0932" rx="5" transform="rotate(75.7487 80.3217 160.823)" fill="#FFDF75" stroke="#FFB114" stroke-width="3"/>
<rect x="34.9182" y="159.564" width="10" height="18.6139" rx="5" transform="rotate(-19.7218 34.9182 159.564)" fill="#FFDF75" stroke="#FFB114" stroke-width="3"/>
<rect x="43.8869" y="154.391" width="10" height="22.4419" rx="5" transform="rotate(-19.7218 43.8869 154.391)" fill="#FFDF75" stroke="#FFB114" stroke-width="3"/>
<mask id="path-33-outside-5_8529_69125" maskUnits="userSpaceOnUse" x="232.674" y="12" width="58" height="67" fill="black">
<rect fill="white" x="232.674" y="12" width="58" height="67"/>
<path fill-rule="evenodd" clip-rule="evenodd" d="M262.055 16.0029C265.644 16.1083 268.467 19.1026 268.362 22.6909L267.991 35.2979C269.365 34.7998 270.914 34.7597 272.397 35.2913C274.777 36.1448 276.353 38.244 276.653 40.5918C278.1 39.9829 279.771 39.8935 281.366 40.4651C284.745 41.6766 286.502 45.398 285.291 48.7773L282.384 56.886C281.781 58.5674 280.557 59.8473 279.063 60.5598C277.143 68.7301 269.808 74.8129 261.052 74.8129C251.167 74.8129 243.093 67.0595 242.578 57.3023L242.178 57.2005C238.698 56.3167 236.594 52.7797 237.478 49.3004C238.111 46.8064 240.108 45.0189 242.47 44.532L238.08 25.9867C237.253 22.4934 239.414 18.9912 242.908 18.1643C246.401 17.3374 249.903 19.499 250.73 22.9923L254.837 40.3435L255.367 22.3092C255.473 18.7209 258.467 15.8974 262.055 16.0029Z"/>
</mask>
<path fill-rule="evenodd" clip-rule="evenodd" d="M262.055 16.0029C265.644 16.1083 268.467 19.1026 268.362 22.6909L267.991 35.2979C269.365 34.7998 270.914 34.7597 272.397 35.2913C274.777 36.1448 276.353 38.244 276.653 40.5918C278.1 39.9829 279.771 39.8935 281.366 40.4651C284.745 41.6766 286.502 45.398 285.291 48.7773L282.384 56.886C281.781 58.5674 280.557 59.8473 279.063 60.5598C277.143 68.7301 269.808 74.8129 261.052 74.8129C251.167 74.8129 243.093 67.0595 242.578 57.3023L242.178 57.2005C238.698 56.3167 236.594 52.7797 237.478 49.3004C238.111 46.8064 240.108 45.0189 242.47 44.532L238.08 25.9867C237.253 22.4934 239.414 18.9912 242.908 18.1643C246.401 17.3374 249.903 19.499 250.73 22.9923L254.837 40.3435L255.367 22.3092C255.473 18.7209 258.467 15.8974 262.055 16.0029Z" fill="#FFDF75"/>
<path d="M268.362 22.6909L264.363 22.5735V22.5735L268.362 22.6909ZM262.055 16.0029L262.173 12.0046L262.055 16.0029ZM267.991 35.2979L269.355 39.0584L263.82 41.0649L263.993 35.1804L267.991 35.2979ZM272.397 35.2913L273.747 31.526H273.747L272.397 35.2913ZM276.653 40.5918L278.204 44.2788L273.352 46.3202L272.685 41.0984L276.653 40.5918ZM281.366 40.4651L280.016 44.2305L280.016 44.2305L281.366 40.4651ZM285.291 48.7773L289.056 50.1271H289.056L285.291 48.7773ZM282.384 56.886L278.619 55.5362L278.619 55.5362L282.384 56.886ZM279.063 60.5598L275.169 59.6451L275.608 57.7756L277.341 56.9491L279.063 60.5598ZM242.578 57.3023L243.563 53.4254L246.418 54.1504L246.573 57.0918L242.578 57.3023ZM242.178 57.2005L241.193 61.0774L241.193 61.0774L242.178 57.2005ZM237.478 49.3004L241.355 50.2851L237.478 49.3004ZM242.47 44.532L246.362 43.6107L247.311 47.618L243.277 48.4496L242.47 44.532ZM238.08 25.9867L234.187 26.9081V26.9081L238.08 25.9867ZM242.908 18.1643L243.829 22.0567L242.908 18.1643ZM250.73 22.9923L246.838 23.9136V23.9136L250.73 22.9923ZM254.837 40.3435L258.836 40.461L250.945 41.2649L254.837 40.3435ZM255.367 22.3092L251.369 22.1917L255.367 22.3092ZM264.363 22.5735C264.404 21.1934 263.318 20.0417 261.938 20.0011L262.173 12.0046C267.969 12.1749 272.53 17.0119 272.36 22.8084L264.363 22.5735ZM263.993 35.1804L264.363 22.5735L272.36 22.8084L271.989 35.4153L263.993 35.1804ZM271.047 39.0567C270.473 38.851 269.884 38.8662 269.355 39.0584L266.628 31.5374C268.845 30.7334 271.354 30.6684 273.747 31.526L271.047 39.0567ZM272.685 41.0984C272.569 40.1844 271.957 39.383 271.047 39.0567L273.747 31.526C277.598 32.9065 280.138 36.3037 280.621 40.0852L272.685 41.0984ZM280.016 44.2305C279.4 44.0099 278.765 44.043 278.204 44.2788L275.102 36.9048C277.436 35.9229 280.142 35.7772 282.715 36.6998L280.016 44.2305ZM281.525 47.4275C281.991 46.1278 281.315 44.6964 280.016 44.2305L282.715 36.6998C288.174 38.6567 291.013 44.6683 289.056 50.1271L281.525 47.4275ZM278.619 55.5362L281.525 47.4275L289.056 50.1271L286.149 58.2358L278.619 55.5362ZM277.341 56.9491C277.921 56.6725 278.386 56.184 278.619 55.5362L286.149 58.2358C285.176 60.9509 283.193 63.0222 280.784 64.1704L277.341 56.9491ZM261.052 70.8129C267.91 70.8129 273.664 66.0486 275.169 59.6451L282.957 61.4745C280.622 71.4116 271.707 78.8129 261.052 78.8129V70.8129ZM246.573 57.0918C246.976 64.736 253.306 70.8129 261.052 70.8129V78.8129C249.028 78.8129 239.209 69.3831 238.584 57.5127L246.573 57.0918ZM243.162 53.3236L243.563 53.4254L241.594 61.1792L241.193 61.0774L243.162 53.3236ZM241.355 50.2851C241.015 51.6233 241.824 52.9837 243.162 53.3236L241.193 61.0774C235.572 59.6498 232.173 53.9362 233.601 48.3157L241.355 50.2851ZM243.277 48.4496C242.359 48.639 241.597 49.3316 241.355 50.2851L233.601 48.3157C234.626 44.2811 237.857 41.3989 241.662 40.6144L243.277 48.4496ZM241.972 25.0653L246.362 43.6107L238.577 45.4534L234.187 26.9081L241.972 25.0653ZM243.829 22.0567C242.486 22.3747 241.654 23.7218 241.972 25.0653L234.187 26.9081C232.852 21.265 236.343 15.6076 241.986 14.2718L243.829 22.0567ZM246.838 23.9136C246.52 22.5701 245.173 21.7387 243.829 22.0567L241.986 14.2718C247.629 12.9361 253.287 16.4279 254.623 22.0709L246.838 23.9136ZM250.945 41.2649L246.838 23.9136L254.623 22.0709L258.73 39.4222L250.945 41.2649ZM259.365 22.4266L258.836 40.461L250.839 40.226L251.369 22.1917L259.365 22.4266ZM261.938 20.0011C260.558 19.9606 259.406 21.0465 259.365 22.4266L251.369 22.1917C251.539 16.3952 256.376 11.8343 262.173 12.0046L261.938 20.0011Z" fill="white" mask="url(#path-33-outside-5_8529_69125)"/>
<mask id="path-35-inside-6_8529_69125" fill="white">
<path fill-rule="evenodd" clip-rule="evenodd" d="M268.483 22.6909C268.588 19.1026 265.765 16.1083 262.177 16.0029C258.588 15.8974 255.594 18.7209 255.489 22.3092L254.959 40.3435L250.852 22.9923C250.025 19.499 246.522 17.3374 243.029 18.1643C239.536 18.9912 237.374 22.4934 238.201 25.9867L242.674 44.8824V56.3129C242.674 66.5302 250.957 74.8129 261.174 74.8129C271.391 74.8129 279.674 66.5302 279.674 56.3129V44.8129H267.833L268.483 22.6909Z"/>
</mask>
<path fill-rule="evenodd" clip-rule="evenodd" d="M268.483 22.6909C268.588 19.1026 265.765 16.1083 262.177 16.0029C258.588 15.8974 255.594 18.7209 255.489 22.3092L254.959 40.3435L250.852 22.9923C250.025 19.499 246.522 17.3374 243.029 18.1643C239.536 18.9912 237.374 22.4934 238.201 25.9867L242.674 44.8824V56.3129C242.674 66.5302 250.957 74.8129 261.174 74.8129C271.391 74.8129 279.674 66.5302 279.674 56.3129V44.8129H267.833L268.483 22.6909Z" fill="#FFDF75"/>
<path d="M262.177 16.0029L262.265 13.0042L262.177 16.0029ZM268.483 22.6909L265.484 22.6028L268.483 22.6909ZM255.489 22.3092L252.49 22.2211L255.489 22.3092ZM254.959 40.3435L257.957 40.4316L252.039 41.0345L254.959 40.3435ZM250.852 22.9923L253.771 22.3013L250.852 22.9923ZM243.029 18.1643L243.72 21.0836L243.029 18.1643ZM238.201 25.9867L235.282 26.6777V26.6777L238.201 25.9867ZM242.674 44.8824L245.593 44.1914L245.674 44.5322V44.8824H242.674ZM279.674 44.8129V41.8129H282.674V44.8129H279.674ZM267.833 44.8129V47.8129H264.744L264.834 44.7248L267.833 44.8129ZM262.265 13.0042C267.509 13.1582 271.636 17.5346 271.482 22.7791L265.484 22.6028C265.541 20.6707 264.021 19.0583 262.089 19.0016L262.265 13.0042ZM252.49 22.2211C252.644 16.9766 257.02 12.8501 262.265 13.0042L262.089 19.0016C260.156 18.9448 258.544 20.4651 258.487 22.3973L252.49 22.2211ZM251.96 40.2554L252.49 22.2211L258.487 22.3973L257.957 40.4316L251.96 40.2554ZM253.771 22.3013L257.878 39.6525L252.039 41.0345L247.932 23.6833L253.771 22.3013ZM242.338 15.2449C247.444 14.0364 252.562 17.1956 253.771 22.3013L247.932 23.6833C247.487 21.8023 245.601 20.6384 243.72 21.0836L242.338 15.2449ZM235.282 26.6777C234.073 21.5721 237.232 16.4535 242.338 15.2449L243.72 21.0836C241.839 21.5289 240.675 23.4147 241.12 25.2957L235.282 26.6777ZM239.754 45.5734L235.282 26.6777L241.12 25.2957L245.593 44.1914L239.754 45.5734ZM245.674 44.8824V56.3129H239.674V44.8824H245.674ZM245.674 56.3129C245.674 64.8733 252.613 71.8129 261.174 71.8129V77.8129C249.3 77.8129 239.674 68.187 239.674 56.3129H245.674ZM261.174 71.8129C269.734 71.8129 276.674 64.8733 276.674 56.3129H282.674C282.674 68.187 273.048 77.8129 261.174 77.8129V71.8129ZM276.674 56.3129V44.8129H282.674V56.3129H276.674ZM279.674 47.8129H267.833V41.8129H279.674V47.8129ZM271.482 22.7791L270.832 44.901L264.834 44.7248L265.484 22.6028L271.482 22.7791Z" fill="#FFB114" mask="url(#path-35-inside-6_8529_69125)"/>
<rect x="1.08457" y="1.8231" width="10" height="17.0932" rx="5" transform="matrix(-0.246175 0.969225 0.969225 0.246175 238.784 43.3235)" fill="#FFDF75" stroke="#FFB114" stroke-width="3"/>
<rect x="-1.91819" y="0.905833" width="10" height="18.6139" rx="5" transform="matrix(-0.941342 -0.337453 -0.337453 0.941342 284.187 42.0644)" fill="#FFDF75" stroke="#FFB114" stroke-width="3"/>
<rect x="-1.91819" y="0.905833" width="10" height="22.4419" rx="5" transform="matrix(-0.941342 -0.337453 -0.337453 0.941342 275.219 36.8906)" fill="#FFDF75" stroke="#FFB114" stroke-width="3"/>
<mask id="path-40-outside-7_8529_69125" maskUnits="userSpaceOnUse" x="217.028" y="296.872" width="83.7295" height="87.0237" fill="black">
<rect fill="white" x="217.028" y="296.872" width="83.7295" height="87.0237"/>
<path fill-rule="evenodd" clip-rule="evenodd" d="M273.972 315.03C277.027 316.915 277.975 320.92 276.089 323.975L269.465 334.708C270.904 334.963 272.265 335.703 273.284 336.905C274.919 338.834 275.234 341.44 274.32 343.623C275.877 343.82 277.369 344.577 278.464 345.87C280.785 348.609 280.446 352.71 277.707 355.031L271.136 360.6C269.773 361.755 268.073 362.251 266.422 362.121C260.675 368.237 251.281 369.837 243.699 365.459C235.138 360.517 232.022 349.765 236.455 341.058L236.159 340.769C233.587 338.264 233.534 334.149 236.039 331.577C237.834 329.734 240.457 329.185 242.746 329.944L248.217 311.688C249.247 308.249 252.87 306.297 256.309 307.328C259.748 308.358 261.7 311.981 260.669 315.42L255.551 332.5L265.027 317.147C266.912 314.092 270.917 313.144 273.972 315.03Z"/>
</mask>
<path fill-rule="evenodd" clip-rule="evenodd" d="M273.972 315.03C277.027 316.915 277.975 320.92 276.089 323.975L269.465 334.708C270.904 334.963 272.265 335.703 273.284 336.905C274.919 338.834 275.234 341.44 274.32 343.623C275.877 343.82 277.369 344.577 278.464 345.87C280.785 348.609 280.446 352.71 277.707 355.031L271.136 360.6C269.773 361.755 268.073 362.251 266.422 362.121C260.675 368.237 251.281 369.837 243.699 365.459C235.138 360.517 232.022 349.765 236.455 341.058L236.159 340.769C233.587 338.264 233.534 334.149 236.039 331.577C237.834 329.734 240.457 329.185 242.746 329.944L248.217 311.688C249.247 308.249 252.87 306.297 256.309 307.328C259.748 308.358 261.7 311.981 260.669 315.42L255.551 332.5L265.027 317.147C266.912 314.092 270.917 313.144 273.972 315.03Z" fill="#FFDF75"/>
<path d="M276.089 323.975L272.686 321.874L272.686 321.874L276.089 323.975ZM273.972 315.03L276.073 311.626L273.972 315.03ZM269.465 334.708L268.766 338.646L262.969 337.616L266.061 332.607L269.465 334.708ZM273.284 336.905L276.335 334.319L276.335 334.319L273.284 336.905ZM274.32 343.623L273.819 347.592L268.597 346.934L270.63 342.078L274.32 343.623ZM278.464 345.87L275.412 348.456L275.412 348.456L278.464 345.87ZM277.707 355.031L280.293 358.083L280.293 358.083L277.707 355.031ZM271.136 360.6L268.55 357.548L268.55 357.548L271.136 360.6ZM266.422 362.121L263.507 359.382L264.823 357.982L266.737 358.133L266.422 362.121ZM236.455 341.058L239.246 338.192L241.356 340.248L240.019 342.873L236.455 341.058ZM236.159 340.769L233.367 343.634L233.367 343.634L236.159 340.769ZM236.039 331.577L238.904 334.369L236.039 331.577ZM242.746 329.944L246.577 331.092L245.395 335.037L241.486 333.74L242.746 329.944ZM248.217 311.688L244.385 310.54L244.385 310.54L248.217 311.688ZM256.309 307.328L255.161 311.159L256.309 307.328ZM260.669 315.42L256.838 314.272L256.838 314.272L260.669 315.42ZM255.551 332.5L258.955 334.601L251.719 331.352L255.551 332.5ZM265.027 317.147L261.623 315.046L261.623 315.046L265.027 317.147ZM272.686 321.874C273.411 320.699 273.046 319.159 271.871 318.434L276.073 311.626C281.008 314.672 282.539 321.141 279.493 326.076L272.686 321.874ZM266.061 332.607L272.686 321.874L279.493 326.076L272.869 336.808L266.061 332.607ZM270.232 339.491C269.838 339.026 269.321 338.745 268.766 338.646L270.165 330.769C272.487 331.182 274.692 332.38 276.335 334.319L270.232 339.491ZM270.63 342.078C270.986 341.228 270.857 340.228 270.232 339.491L276.335 334.319C278.98 337.44 279.482 341.652 278.009 345.168L270.63 342.078ZM275.412 348.456C274.99 347.957 274.423 347.668 273.819 347.592L274.82 339.655C277.332 339.971 279.748 341.198 281.516 343.284L275.412 348.456ZM275.121 351.979C276.175 351.087 276.305 349.509 275.412 348.456L281.516 343.284C285.265 347.708 284.717 354.334 280.293 358.083L275.121 351.979ZM268.55 357.548L275.121 351.979L280.293 358.083L273.722 363.652L268.55 357.548ZM266.737 358.133C267.378 358.184 268.025 357.993 268.55 357.548L273.722 363.652C271.521 365.516 268.768 366.318 266.108 366.108L266.737 358.133ZM245.699 361.995C251.637 365.424 259.003 364.175 263.507 359.382L269.337 364.86C262.347 372.299 250.925 374.25 241.699 368.923L245.699 361.995ZM240.019 342.873C236.546 349.694 238.99 358.122 245.699 361.995L241.699 368.923C231.285 362.911 227.497 349.835 232.89 339.243L240.019 342.873ZM238.95 337.904L239.246 338.192L233.664 343.923L233.367 343.634L238.95 337.904ZM238.904 334.369C237.94 335.358 237.961 336.94 238.95 337.904L233.367 343.634C229.214 339.588 229.127 332.94 233.173 328.786L238.904 334.369ZM241.486 333.74C240.596 333.445 239.59 333.664 238.904 334.369L233.173 328.786C236.078 325.805 240.318 324.924 244.005 326.147L241.486 333.74ZM252.048 312.836L246.577 331.092L238.914 328.795L244.385 310.54L252.048 312.836ZM255.161 311.159C253.838 310.763 252.445 311.514 252.048 312.836L244.385 310.54C246.05 304.985 251.902 301.831 257.457 303.496L255.161 311.159ZM256.838 314.272C257.234 312.949 256.483 311.556 255.161 311.159L257.457 303.496C263.012 305.161 266.166 311.014 264.501 316.568L256.838 314.272ZM251.719 331.352L256.838 314.272L264.501 316.568L259.382 333.649L251.719 331.352ZM268.431 319.248L258.955 334.601L252.147 330.399L261.623 315.046L268.431 319.248ZM271.871 318.434C270.696 317.708 269.156 318.073 268.431 319.248L261.623 315.046C264.669 310.111 271.138 308.58 276.073 311.626L271.871 318.434Z" fill="white" mask="url(#path-40-outside-7_8529_69125)"/>
<mask id="path-42-inside-8_8529_69125" fill="white">
<path fill-rule="evenodd" clip-rule="evenodd" d="M276.193 324.036C278.079 320.981 277.131 316.976 274.076 315.09C271.021 313.205 267.016 314.153 265.131 317.208L255.655 332.561L260.774 315.481C261.804 312.042 259.852 308.419 256.413 307.388C252.974 306.358 249.351 308.31 248.321 311.749L242.746 330.349L237.031 340.248C231.922 349.097 234.954 360.411 243.803 365.52C252.651 370.629 263.965 367.597 269.074 358.748L274.824 348.789L264.57 342.869L276.193 324.036Z"/>
</mask>
<path fill-rule="evenodd" clip-rule="evenodd" d="M276.193 324.036C278.079 320.981 277.131 316.976 274.076 315.09C271.021 313.205 267.016 314.153 265.131 317.208L255.655 332.561L260.774 315.481C261.804 312.042 259.852 308.419 256.413 307.388C252.974 306.358 249.351 308.31 248.321 311.749L242.746 330.349L237.031 340.248C231.922 349.097 234.954 360.411 243.803 365.52C252.651 370.629 263.965 367.597 269.074 358.748L274.824 348.789L264.57 342.869L276.193 324.036Z" fill="#FFDF75"/>
<path d="M274.076 315.09L275.652 312.537L274.076 315.09ZM276.193 324.036L273.64 322.46L276.193 324.036ZM265.131 317.208L262.578 315.632L265.131 317.208ZM255.655 332.561L258.208 334.137L252.781 331.7L255.655 332.561ZM260.774 315.481L263.647 316.342L260.774 315.481ZM256.413 307.388L255.552 310.262L256.413 307.388ZM248.321 311.749L245.447 310.888L245.447 310.888L248.321 311.749ZM242.746 330.349L245.62 331.211L245.52 331.546L245.344 331.849L242.746 330.349ZM237.031 340.248L239.629 341.748L237.031 340.248ZM269.074 358.748L266.476 357.248L269.074 358.748ZM274.824 348.789L276.324 346.191L278.922 347.691L277.422 350.289L274.824 348.789ZM264.57 342.869L263.07 345.467L260.394 343.922L262.017 341.293L264.57 342.869ZM275.652 312.537C280.116 315.293 281.502 321.146 278.746 325.611L273.64 322.46C274.656 320.815 274.145 318.658 272.5 317.643L275.652 312.537ZM262.578 315.632C265.334 311.167 271.187 309.782 275.652 312.537L272.5 317.643C270.855 316.628 268.699 317.138 267.684 318.783L262.578 315.632ZM253.102 330.985L262.578 315.632L267.684 318.783L258.208 334.137L253.102 330.985ZM263.647 316.342L258.528 333.422L252.781 331.7L257.9 314.62L263.647 316.342ZM257.274 304.515C262.3 306.021 265.153 311.316 263.647 316.342L257.9 314.62C258.455 312.768 257.404 310.817 255.552 310.262L257.274 304.515ZM245.447 310.888C246.953 305.862 252.248 303.008 257.274 304.515L255.552 310.262C253.7 309.707 251.749 310.758 251.194 312.61L245.447 310.888ZM239.873 329.488L245.447 310.888L251.194 312.61L245.62 331.211L239.873 329.488ZM245.344 331.849L239.629 341.748L234.433 338.748L240.148 328.849L245.344 331.849ZM239.629 341.748C235.349 349.162 237.889 358.642 245.303 362.922L242.303 368.118C232.019 362.181 228.496 349.032 234.433 338.748L239.629 341.748ZM245.303 362.922C252.716 367.202 262.196 364.662 266.476 357.248L271.672 360.248C265.735 370.532 252.586 374.055 242.303 368.118L245.303 362.922ZM266.476 357.248L272.226 347.289L277.422 350.289L271.672 360.248L266.476 357.248ZM273.324 351.387L263.07 345.467L266.07 340.271L276.324 346.191L273.324 351.387ZM278.746 325.611L267.122 344.444L262.017 341.293L273.64 322.46L278.746 325.611Z" fill="#FFB114" mask="url(#path-42-inside-8_8529_69125)"/>
<rect x="0.0277188" y="2.12114" width="10" height="17.0932" rx="5" transform="matrix(-0.697807 0.716286 0.716286 0.697807 239.205 327.603)" fill="#FFDF75" stroke="#FFB114" stroke-width="3"/>
<rect x="-2.11412" y="-0.174622" width="10" height="18.6139" rx="5" transform="matrix(-0.6465 -0.762914 -0.762914 0.6465 279.155 349.215)" fill="#FFDF75" stroke="#FFB114" stroke-width="3"/>
<rect x="-2.11412" y="-0.174622" width="10" height="22.4419" rx="5" transform="matrix(-0.6465 -0.762914 -0.762914 0.6465 273.976 340.25)" fill="#FFDF75" stroke="#FFB114" stroke-width="3"/>
<defs>
<clipPath id="clip0_8529_69125">
<rect width="81.3321" height="72.7059" fill="white" transform="translate(146.898 280.443) rotate(-3.20409)"/>
</clipPath>
</defs>
</svg>
