<svg width="24" height="24" viewBox="0 0 24 24" fill="none" xmlns="http://www.w3.org/2000/svg">
<circle cx="12" cy="12" r="9" fill="#D8DCDE"/>
<path d="M12.0001 12C13.3808 12 14.5001 10.8807 14.5001 9.5C14.5001 8.11929 13.3808 7 12.0001 7C10.6194 7 9.50012 8.11929 9.50012 9.5C9.50012 10.8807 10.6194 12 12.0001 12Z" fill="white"/>
<path d="M6.99963 15.2248C6.54805 15.693 6.53985 16.4282 6.99462 16.8933C8.26553 18.1932 10.0386 19 12.0001 19C13.9617 19 15.7348 18.1932 17.0057 16.8933C17.4604 16.4282 17.4523 15.693 17.0007 15.2248C15.6646 13.8395 13.9151 13 12.0002 13C10.0852 13 8.33572 13.8395 6.99963 15.2248Z" fill="white"/>
</svg>
