<svg width="24" height="24" viewBox="0 0 24 24" fill="none" xmlns="http://www.w3.org/2000/svg">
<path fill-rule="evenodd" clip-rule="evenodd" d="M19.0001 8.5C19.0001 9.88071 17.8808 11 16.5001 11C15.1194 11 14.0001 9.88071 14.0001 8.5C14.0001 7.11929 15.1194 6 16.5001 6C17.8808 6 19.0001 7.11929 19.0001 8.5ZM13.1353 12.8655C14.4007 13.9259 15.3332 15.3707 15.7532 17.0202C15.8431 17.3733 15.8031 17.7088 15.6695 18H21.0001C22.1046 18 23.0329 17.0767 22.6461 16.0421C21.7668 13.6897 19.3472 12 16.5001 12C15.2684 12 14.1168 12.3162 13.1353 12.8655Z" fill="#7E8991"/>
<path fill-rule="evenodd" clip-rule="evenodd" d="M8.00009 11C9.65695 11 11.0001 9.65685 11.0001 8C11.0001 6.34315 9.65695 5 8.00009 5C6.34324 5 5.00009 6.34315 5.00009 8C5.00009 9.65685 6.34324 11 8.00009 11ZM1.28217 17.0264C2.13423 14.1214 4.81943 12 8.00009 12C11.1808 12 13.866 14.1214 14.718 17.0264C15.0289 18.0863 14.1047 19 13.0001 19H3.00009C1.89552 19 0.971292 18.0863 1.28217 17.0264Z" fill="#68737D"/>
</svg>
