<svg width="24" height="24" viewBox="0 0 24 24" fill="none" xmlns="http://www.w3.org/2000/svg">
<path d="M21 19V10H3V19C3 20.1046 3.89543 21 5 21H19C20.1046 21 21 20.1046 21 19Z" fill="white"/>
<path d="M14.5 14.5C14.5 15.8807 13.3807 17 12 17C10.6193 17 9.5 15.8807 9.5 14.5C9.5 13.1193 10.6193 12 12 12C13.3807 12 14.5 13.1193 14.5 14.5Z" fill="#D8DCDE"/>
<path fill-rule="evenodd" clip-rule="evenodd" d="M3.77212 8.4214L10.7721 2.97696C11.4943 2.41523 12.5057 2.41523 13.2279 2.97696L18 6.68861V6.50011C18 5.67168 18.6716 5.00011 19.5 5.00011C20.3284 5.00011 21 5.67168 21 6.50011V10.0001H3C3 9.38293 3.28495 8.80032 3.77212 8.4214Z" fill="#D8DCDE"/>
</svg>
