<svg width="1875" height="11" viewBox="0 0 1875 11" fill="none" xmlns="http://www.w3.org/2000/svg">
<path d="M365.132 10.9999L355.263 0L375 1.60273e-06L365.132 10.9999Z" fill="#F3F5F6"/>
<path d="M345.395 11L335.526 0.000141735L355.263 0L345.395 11Z" fill="#F3F5F6"/>
<path d="M325.658 11L315.789 0.000141735H335.526L325.658 11Z" fill="#F3F5F6"/>
<path d="M305.921 11L296.053 0.000141735H315.789L305.921 11Z" fill="#F3F5F6"/>
<path d="M286.184 11L276.316 0.000141735H296.053L286.184 11Z" fill="#F3F5F6"/>
<path d="M266.447 11L256.579 0.000141735H276.316L266.447 11Z" fill="#F3F5F6"/>
<path d="M246.711 11L236.842 0.000141735H256.579L246.711 11Z" fill="#F3F5F6"/>
<path d="M226.974 11L217.105 0.000141735H236.842L226.974 11Z" fill="#F3F5F6"/>
<path d="M207.237 11L197.368 0.000141735H217.105L207.237 11Z" fill="#F3F5F6"/>
<path d="M187.5 11L177.632 0.000141735H197.368L187.5 11Z" fill="#F3F5F6"/>
<path d="M167.763 11L157.895 0.000113388L177.632 0.000141735L167.763 11Z" fill="#F3F5F6"/>
<path d="M148.026 11L138.158 0.000113388H157.895L148.026 11Z" fill="#F3F5F6"/>
<path d="M128.289 11L118.421 0.000113388H138.158L128.289 11Z" fill="#F3F5F6"/>
<path d="M108.553 11L98.6842 0.000113388H118.421L108.553 11Z" fill="#F3F5F6"/>
<path d="M88.8158 11L78.9474 0.000113388H98.6842L88.8158 11Z" fill="#F3F5F6"/>
<path d="M69.0789 11L59.2105 0.000113388H78.9474L69.0789 11Z" fill="#F3F5F6"/>
<path d="M49.3421 11L39.4737 0.000113388H59.2105L49.3421 11Z" fill="#F3F5F6"/>
<path d="M29.6053 11L19.7368 0.000113388H39.4737L29.6053 11Z" fill="#F3F5F6"/>
<path d="M9.86842 11L0 0.000113388H19.7368L9.86842 11Z" fill="#F3F5F6"/>
<path d="M740.132 10.9999L730.263 0L750 1.60273e-06L740.132 10.9999Z" fill="#F3F5F6"/>
<path d="M720.395 11L710.526 0.000141735L730.263 0L720.395 11Z" fill="#F3F5F6"/>
<path d="M700.658 11L690.789 0.000141735H710.526L700.658 11Z" fill="#F3F5F6"/>
<path d="M680.921 11L671.053 0.000141735H690.789L680.921 11Z" fill="#F3F5F6"/>
<path d="M661.184 11L651.316 0.000141735H671.053L661.184 11Z" fill="#F3F5F6"/>
<path d="M641.447 11L631.579 0.000141735H651.316L641.447 11Z" fill="#F3F5F6"/>
<path d="M621.711 11L611.842 0.000141735H631.579L621.711 11Z" fill="#F3F5F6"/>
<path d="M601.974 11L592.105 0.000141735H611.842L601.974 11Z" fill="#F3F5F6"/>
<path d="M582.237 11L572.368 0.000141735H592.105L582.237 11Z" fill="#F3F5F6"/>
<path d="M562.5 11L552.632 0.000141735H572.368L562.5 11Z" fill="#F3F5F6"/>
<path d="M542.763 11L532.895 0.000113388L552.632 0.000141735L542.763 11Z" fill="#F3F5F6"/>
<path d="M523.026 11L513.158 0.000113388H532.895L523.026 11Z" fill="#F3F5F6"/>
<path d="M503.289 11L493.421 0.000113388H513.158L503.289 11Z" fill="#F3F5F6"/>
<path d="M483.553 11L473.684 0.000113388H493.421L483.553 11Z" fill="#F3F5F6"/>
<path d="M463.816 11L453.947 0.000113388H473.684L463.816 11Z" fill="#F3F5F6"/>
<path d="M444.079 11L434.211 0.000113388H453.947L444.079 11Z" fill="#F3F5F6"/>
<path d="M424.342 11L414.474 0.000113388H434.211L424.342 11Z" fill="#F3F5F6"/>
<path d="M404.605 11L394.737 0.000113388H414.474L404.605 11Z" fill="#F3F5F6"/>
<path d="M384.868 11L375 0.000113388H394.737L384.868 11Z" fill="#F3F5F6"/>
<path d="M1115.13 10.9999L1105.26 0L1125 1.60273e-06L1115.13 10.9999Z" fill="#F3F5F6"/>
<path d="M1095.39 11L1085.53 0.000141735L1105.26 0L1095.39 11Z" fill="#F3F5F6"/>
<path d="M1075.66 11L1065.79 0.000141735H1085.53L1075.66 11Z" fill="#F3F5F6"/>
<path d="M1055.92 11L1046.05 0.000141735H1065.79L1055.92 11Z" fill="#F3F5F6"/>
<path d="M1036.18 11L1026.32 0.000141735H1046.05L1036.18 11Z" fill="#F3F5F6"/>
<path d="M1016.45 11L1006.58 0.000141735H1026.32L1016.45 11Z" fill="#F3F5F6"/>
<path d="M996.711 11L986.842 0.000141735H1006.58L996.711 11Z" fill="#F3F5F6"/>
<path d="M976.974 11L967.105 0.000141735H986.842L976.974 11Z" fill="#F3F5F6"/>
<path d="M957.237 11L947.368 0.000141735H967.105L957.237 11Z" fill="#F3F5F6"/>
<path d="M937.5 11L927.632 0.000141735H947.368L937.5 11Z" fill="#F3F5F6"/>
<path d="M917.763 11L907.895 0.000113388L927.632 0.000141735L917.763 11Z" fill="#F3F5F6"/>
<path d="M898.026 11L888.158 0.000113388H907.895L898.026 11Z" fill="#F3F5F6"/>
<path d="M878.289 11L868.421 0.000113388H888.158L878.289 11Z" fill="#F3F5F6"/>
<path d="M858.553 11L848.684 0.000113388H868.421L858.553 11Z" fill="#F3F5F6"/>
<path d="M838.816 11L828.947 0.000113388H848.684L838.816 11Z" fill="#F3F5F6"/>
<path d="M819.079 11L809.211 0.000113388H828.947L819.079 11Z" fill="#F3F5F6"/>
<path d="M799.342 11L789.474 0.000113388H809.211L799.342 11Z" fill="#F3F5F6"/>
<path d="M779.605 11L769.737 0.000113388H789.474L779.605 11Z" fill="#F3F5F6"/>
<path d="M759.868 11L750 0.000113388H769.737L759.868 11Z" fill="#F3F5F6"/>
<path d="M1490.13 10.9999L1480.26 0L1500 1.60273e-06L1490.13 10.9999Z" fill="#F3F5F6"/>
<path d="M1470.39 11L1460.53 0.000141735L1480.26 0L1470.39 11Z" fill="#F3F5F6"/>
<path d="M1450.66 11L1440.79 0.000141735H1460.53L1450.66 11Z" fill="#F3F5F6"/>
<path d="M1430.92 11L1421.05 0.000141735H1440.79L1430.92 11Z" fill="#F3F5F6"/>
<path d="M1411.18 11L1401.32 0.000141735H1421.05L1411.18 11Z" fill="#F3F5F6"/>
<path d="M1391.45 11L1381.58 0.000141735H1401.32L1391.45 11Z" fill="#F3F5F6"/>
<path d="M1371.71 11L1361.84 0.000141735H1381.58L1371.71 11Z" fill="#F3F5F6"/>
<path d="M1351.97 11L1342.11 0.000141735H1361.84L1351.97 11Z" fill="#F3F5F6"/>
<path d="M1332.24 11L1322.37 0.000141735H1342.11L1332.24 11Z" fill="#F3F5F6"/>
<path d="M1312.5 11L1302.63 0.000141735H1322.37L1312.5 11Z" fill="#F3F5F6"/>
<path d="M1292.76 11L1282.89 0.000113388L1302.63 0.000141735L1292.76 11Z" fill="#F3F5F6"/>
<path d="M1273.03 11L1263.16 0.000113388H1282.89L1273.03 11Z" fill="#F3F5F6"/>
<path d="M1253.29 11L1243.42 0.000113388H1263.16L1253.29 11Z" fill="#F3F5F6"/>
<path d="M1233.55 11L1223.68 0.000113388H1243.42L1233.55 11Z" fill="#F3F5F6"/>
<path d="M1213.82 11L1203.95 0.000113388H1223.68L1213.82 11Z" fill="#F3F5F6"/>
<path d="M1194.08 11L1184.21 0.000113388H1203.95L1194.08 11Z" fill="#F3F5F6"/>
<path d="M1174.34 11L1164.47 0.000113388H1184.21L1174.34 11Z" fill="#F3F5F6"/>
<path d="M1154.61 11L1144.74 0.000113388H1164.47L1154.61 11Z" fill="#F3F5F6"/>
<path d="M1134.87 11L1125 0.000113388H1144.74L1134.87 11Z" fill="#F3F5F6"/>
<path d="M1865.13 10.9999L1855.26 0L1875 1.60273e-06L1865.13 10.9999Z" fill="#F3F5F6"/>
<path d="M1845.39 11L1835.53 0.000141735L1855.26 0L1845.39 11Z" fill="#F3F5F6"/>
<path d="M1825.66 11L1815.79 0.000141735H1835.53L1825.66 11Z" fill="#F3F5F6"/>
<path d="M1805.92 11L1796.05 0.000141735H1815.79L1805.92 11Z" fill="#F3F5F6"/>
<path d="M1786.18 11L1776.32 0.000141735H1796.05L1786.18 11Z" fill="#F3F5F6"/>
<path d="M1766.45 11L1756.58 0.000141735H1776.32L1766.45 11Z" fill="#F3F5F6"/>
<path d="M1746.71 11L1736.84 0.000141735H1756.58L1746.71 11Z" fill="#F3F5F6"/>
<path d="M1726.97 11L1717.11 0.000141735H1736.84L1726.97 11Z" fill="#F3F5F6"/>
<path d="M1707.24 11L1697.37 0.000141735H1717.11L1707.24 11Z" fill="#F3F5F6"/>
<path d="M1687.5 11L1677.63 0.000141735H1697.37L1687.5 11Z" fill="#F3F5F6"/>
<path d="M1667.76 11L1657.89 0.000113388L1677.63 0.000141735L1667.76 11Z" fill="#F3F5F6"/>
<path d="M1648.03 11L1638.16 0.000113388H1657.89L1648.03 11Z" fill="#F3F5F6"/>
<path d="M1628.29 11L1618.42 0.000113388H1638.16L1628.29 11Z" fill="#F3F5F6"/>
<path d="M1608.55 11L1598.68 0.000113388H1618.42L1608.55 11Z" fill="#F3F5F6"/>
<path d="M1588.82 11L1578.95 0.000113388H1598.68L1588.82 11Z" fill="#F3F5F6"/>
<path d="M1569.08 11L1559.21 0.000113388H1578.95L1569.08 11Z" fill="#F3F5F6"/>
<path d="M1549.34 11L1539.47 0.000113388H1559.21L1549.34 11Z" fill="#F3F5F6"/>
<path d="M1529.61 11L1519.74 0.000113388H1539.47L1529.61 11Z" fill="#F3F5F6"/>
<path d="M1509.87 11L1500 0.000113388H1519.74L1509.87 11Z" fill="#F3F5F6"/>
</svg>
