<svg width="327" height="440" viewBox="0 0 327 440" fill="none" xmlns="http://www.w3.org/2000/svg">
<rect width="327" height="440" fill="#41D797"/>
<path d="M122.775 261.955C127.578 260.226 131.38 256.938 133.762 252.884C141.322 256.448 150.594 255.529 157.396 249.777C166.677 241.929 167.843 228.052 159.988 218.782C153.983 211.695 144.454 209.363 136.155 212.159C132.588 208.126 129.942 202.972 129.5 197.228C129.412 196.083 129.203 194.908 128.765 193.851C128.33 192.802 127.538 191.569 126.116 190.846C124.619 190.086 123.07 190.215 121.828 190.662C121.487 190.784 121.156 190.935 120.834 191.107C120.713 190.505 120.538 189.903 120.304 189.304C118.839 185.565 115.55 183.216 111.939 182.176C108.316 181.134 104.101 181.299 100.082 182.747C96.0642 184.193 92.7404 186.743 90.6924 189.87C88.6394 193.005 87.7747 196.928 89.2493 200.693C90.7139 204.432 94.0026 206.781 97.6145 207.821C100.752 208.724 104.334 208.72 107.849 207.763C105.349 213.742 104.407 220.111 105.212 226.204C97.2233 231.156 93.3131 240.999 96.5909 250.102C100.377 260.615 112.172 265.774 122.775 261.955ZM118.561 223.133C117.966 218.925 118.572 214.14 120.43 209.732C121.684 213.411 123.393 216.841 125.513 219.892C124.524 221.219 123.702 222.638 123.048 224.117C121.604 223.627 120.099 223.295 118.561 223.133Z" fill="#CAF4E2" stroke="white" stroke-width="7" stroke-linecap="round"/>
<ellipse cx="115.991" cy="243.116" rx="17.1198" ry="16.524" transform="rotate(-19.804 115.991 243.116)" fill="#F198D0"/>
<ellipse cx="18.5115" cy="18.4902" rx="18.5115" ry="18.4902" transform="matrix(0.763591 -0.6457 0.64646 0.762948 117.094 230.843)" fill="#F075C2"/>
<path d="M136.215 228.533V228.533C139.556 229.541 142.827 226.775 142.383 223.317V223.317" stroke="#DE54AA" stroke-width="5.23027" stroke-linecap="round"/>
<path d="M109.682 235.698V235.698C112.711 236.995 116.228 235.729 117.735 232.798V232.798" stroke="#DE54AA" stroke-width="5.23027" stroke-linecap="round"/>
<ellipse cx="13.0394" cy="9.62146" rx="13.0394" ry="9.62146" transform="matrix(0.940857 -0.338803 0.364677 0.931134 89.2363 190.652)" fill="#50D28D"/>
<path fill-rule="evenodd" clip-rule="evenodd" d="M109.171 228.439C106.58 217.32 110.877 204.367 120.986 195.287C124.027 192.556 125.722 193.761 126.01 197.496C126.665 206.011 131.468 213.197 137.044 217.914L137.557 218.348C138.842 219.435 139.157 221.654 138.261 223.305C137.365 224.956 135.598 225.414 134.313 224.327L133.8 223.893C127.49 218.555 123.223 210.226 121.888 200.792C115.721 207.918 113.654 217.855 115.481 225.695L115.969 227.787C116.344 229.399 115.237 231.321 113.494 232.079C111.752 232.837 110.035 232.144 109.659 230.531L109.171 228.439Z" fill="#404164"/>
<path d="M103.219 195.161L106.68 193.914" stroke="#FDFFAB" stroke-width="5.23027" stroke-linecap="round"/>
<mask id="path-9-outside-1_8529_69449" maskUnits="userSpaceOnUse" x="147.228" y="224.342" width="160.663" height="163.405" fill="black">
<rect fill="white" x="147.228" y="224.342" width="160.663" height="163.405"/>
<path fill-rule="evenodd" clip-rule="evenodd" d="M289.512 295.164C286.431 305.908 278.209 313.783 268.286 316.882C271.475 323.104 272.398 330.506 270.319 337.759C265.976 352.904 250.184 361.663 235.047 357.322C228.905 355.561 223.814 351.914 220.223 347.19C218.197 351.188 215.832 355.077 213.069 358.755C210.789 361.79 206.482 362.403 203.448 360.123C200.415 357.843 199.804 353.534 202.084 350.498C203.084 349.166 204.057 347.807 205.002 346.427C200.893 347.157 196.567 346.987 192.297 345.762C177.159 341.422 168.45 325.481 172.844 310.158C174.535 304.261 177.92 299.314 182.308 295.708C177.358 288.205 175.594 278.664 178.266 269.343C183.12 252.416 200.77 242.627 217.688 247.478C226.478 249.999 233.342 255.976 237.227 263.512C244.401 255.857 254.903 251.987 267.612 255.631C284.573 260.495 294.378 278.194 289.512 295.164ZM231.888 303.592C231.835 303.614 231.781 303.637 231.728 303.66L231.754 303.381C231.798 303.451 231.843 303.522 231.888 303.592Z"/>
</mask>
<path fill-rule="evenodd" clip-rule="evenodd" d="M289.512 295.164C286.431 305.908 278.209 313.783 268.286 316.882C271.475 323.104 272.398 330.506 270.319 337.759C265.976 352.904 250.184 361.663 235.047 357.322C228.905 355.561 223.814 351.914 220.223 347.19C218.197 351.188 215.832 355.077 213.069 358.755C210.789 361.79 206.482 362.403 203.448 360.123C200.415 357.843 199.804 353.534 202.084 350.498C203.084 349.166 204.057 347.807 205.002 346.427C200.893 347.157 196.567 346.987 192.297 345.762C177.159 341.422 168.45 325.481 172.844 310.158C174.535 304.261 177.92 299.314 182.308 295.708C177.358 288.205 175.594 278.664 178.266 269.343C183.12 252.416 200.77 242.627 217.688 247.478C226.478 249.999 233.342 255.976 237.227 263.512C244.401 255.857 254.903 251.987 267.612 255.631C284.573 260.495 294.378 278.194 289.512 295.164ZM231.888 303.592C231.835 303.614 231.781 303.637 231.728 303.66L231.754 303.381C231.798 303.451 231.843 303.522 231.888 303.592Z" fill="#FDFFAB"/>
<path d="M268.286 316.882L266.199 310.2L258.265 312.678L262.057 320.075L268.286 316.882ZM220.223 347.19L225.796 342.954L219.032 334.056L213.979 344.025L220.223 347.19ZM213.069 358.755L218.666 362.959L213.069 358.755ZM203.448 360.123L207.654 354.527L207.654 354.527L203.448 360.123ZM202.084 350.498L207.681 354.702L202.084 350.498ZM205.002 346.427L210.778 350.381L220.199 336.616L203.777 339.535L205.002 346.427ZM182.308 295.708L186.753 301.115L191.621 297.114L188.151 291.853L182.308 295.708ZM237.227 263.512L231.005 266.719L235.551 275.536L242.334 268.299L237.227 263.512ZM231.728 303.66L224.758 303.014L223.674 314.715L234.48 310.096L231.728 303.66ZM231.888 303.592L234.6 310.045L242.262 306.825L237.786 299.822L231.888 303.592ZM231.754 303.381L237.682 299.657L226.691 282.161L224.784 302.735L231.754 303.381ZM270.372 323.564C282.449 319.792 292.484 310.195 296.241 297.094L282.783 293.235C280.379 301.62 273.968 307.774 266.199 310.2L270.372 323.564ZM277.047 339.688C279.636 330.66 278.484 321.43 274.515 313.689L262.057 320.075C264.467 324.777 265.16 330.352 263.59 335.829L277.047 339.688ZM233.117 364.051C251.974 369.458 271.64 358.547 277.047 339.688L263.59 335.829C260.312 347.262 248.394 353.868 236.976 350.594L233.117 364.051ZM214.651 351.426C219.124 357.311 225.474 361.86 233.117 364.051L236.976 350.594C232.335 349.263 228.505 346.518 225.796 342.954L214.651 351.426ZM218.666 362.959C221.699 358.921 224.276 354.678 226.467 350.355L213.979 344.025C212.118 347.698 209.964 351.233 207.472 354.551L218.666 362.959ZM199.243 365.718C205.369 370.323 214.066 369.084 218.666 362.959L207.472 354.551C207.472 354.552 207.476 354.546 207.485 354.538C207.493 354.531 207.503 354.524 207.513 354.518C207.532 354.507 207.547 354.503 207.556 354.502C207.566 354.5 207.581 354.5 207.603 354.505C207.615 354.508 207.627 354.512 207.637 354.518C207.648 354.523 207.654 354.527 207.654 354.527L199.243 365.718ZM196.487 346.294C191.887 352.418 193.117 361.115 199.243 365.718L207.654 354.527C207.654 354.527 207.66 354.531 207.668 354.54C207.676 354.549 207.683 354.559 207.689 354.569C207.7 354.588 207.703 354.602 207.704 354.611C207.706 354.62 207.706 354.634 207.701 354.655C207.698 354.665 207.694 354.677 207.689 354.687C207.684 354.697 207.681 354.703 207.681 354.702L196.487 346.294ZM199.225 342.474C198.336 343.773 197.423 345.048 196.487 346.294L207.681 354.702C208.746 353.284 209.778 351.842 210.778 350.381L199.225 342.474ZM190.367 352.491C195.687 354.017 201.093 354.232 206.227 353.319L203.777 339.535C200.693 340.083 197.447 339.957 194.226 339.034L190.367 352.491ZM166.115 308.228C160.678 327.19 171.436 347.063 190.367 352.491L194.226 339.034C182.882 335.781 176.222 323.772 179.573 312.087L166.115 308.228ZM177.863 290.3C172.41 294.782 168.208 300.929 166.115 308.228L179.573 312.087C180.862 307.592 183.43 303.846 186.753 301.115L177.863 290.3ZM171.537 267.414C168.278 278.781 170.437 290.426 176.465 299.563L188.151 291.853C184.279 285.984 182.909 278.547 184.995 271.273L171.537 267.414ZM219.617 240.749C198.98 234.832 177.456 246.774 171.537 267.414L184.995 271.273C188.784 258.059 202.56 250.422 215.759 254.207L219.617 240.749ZM243.449 260.304C238.717 251.125 230.34 243.824 219.617 240.749L215.759 254.207C222.617 256.174 227.967 260.827 231.005 266.719L243.449 260.304ZM269.541 248.902C254.198 244.503 241.009 249.24 232.119 258.725L242.334 268.299C247.792 262.475 255.608 259.471 265.682 262.36L269.541 248.902ZM296.241 297.094C302.172 276.411 290.222 254.832 269.541 248.902L265.682 262.36C278.924 266.157 286.585 279.978 282.783 293.235L296.241 297.094ZM234.48 310.096C234.52 310.079 234.56 310.062 234.6 310.045L229.176 297.139C229.11 297.167 229.043 297.195 228.977 297.223L234.48 310.096ZM224.784 302.735L224.758 303.014L238.698 304.306L238.724 304.027L224.784 302.735ZM237.786 299.822C237.751 299.767 237.716 299.712 237.682 299.657L225.827 307.104C225.881 307.19 225.935 307.276 225.99 307.361L237.786 299.822Z" fill="white" mask="url(#path-9-outside-1_8529_69449)"/>
<ellipse cx="208.899" cy="278.127" rx="31.8678" ry="31.8842" transform="rotate(16 208.899 278.127)" fill="#75E2B4"/>
<ellipse cx="242.911" cy="329.9" rx="28.5133" ry="28.5279" transform="rotate(16 242.911 329.9)" fill="#75E2B4"/>
<ellipse cx="200.252" cy="318.017" rx="28.5133" ry="28.8636" transform="rotate(16 200.252 318.017)" fill="#75E2B4"/>
<path d="M249.991 317.085C266.952 321.948 284.646 312.134 289.513 295.164C294.379 278.194 284.574 260.495 267.612 255.631C243.55 248.731 227.395 268.771 226.771 290.426C226.415 302.785 217.591 329.853 202.084 350.498C199.805 353.533 200.415 357.843 203.449 360.123C206.482 362.403 210.79 361.79 213.07 358.755C226.081 341.431 230.279 319.436 231.755 303.38C235.793 309.808 242.121 314.828 249.991 317.085Z" fill="#50D28D"/>
<path fill-rule="evenodd" clip-rule="evenodd" d="M251.425 293.079C252.503 295.025 251.8 297.476 249.855 298.555L243.987 301.809C242.042 302.888 239.592 302.186 238.514 300.24C237.437 298.295 238.14 295.844 240.084 294.765L245.953 291.51C247.898 290.432 250.348 291.134 251.425 293.079ZM214.088 282.409C216.033 281.331 218.483 282.033 219.561 283.979L222.812 289.849C223.89 291.794 223.187 294.245 221.243 295.324C219.298 296.402 216.848 295.7 215.77 293.755L212.518 287.885C211.441 285.939 212.144 283.488 214.088 282.409ZM217.259 307.902C218.337 309.847 217.634 312.298 215.689 313.377L209.821 316.632C207.876 317.71 205.426 317.008 204.348 315.063C203.271 313.117 203.974 310.666 205.918 309.587L211.787 306.333C213.731 305.254 216.181 305.956 217.259 307.902ZM235.015 313.691C236.96 312.613 239.41 313.315 240.488 315.261L243.739 321.131C244.817 323.076 244.114 325.527 242.169 326.606C240.225 327.684 237.775 326.982 236.697 325.037L233.445 319.167C232.368 317.221 233.071 314.77 235.015 313.691Z" fill="#FDFFAB"/>
<mask id="path-16-outside-2_8529_69449" maskUnits="userSpaceOnUse" x="148.041" y="145.1" width="153.164" height="81.5719" fill="black">
<rect fill="white" x="148.041" y="145.1" width="153.164" height="81.5719"/>
<path fill-rule="evenodd" clip-rule="evenodd" d="M255.109 213.939C272.158 216.317 287.45 207.697 289.264 194.686C291.079 181.675 278.729 169.2 261.68 166.822C252.372 165.524 243.587 167.504 237.234 171.687C233.803 173.946 229.816 175.629 225.747 175.061C221.679 174.494 218.304 171.784 215.622 168.673C210.656 162.911 202.749 158.603 193.44 157.305C176.391 154.928 161.099 163.548 159.285 176.559C157.47 189.57 169.82 202.045 186.869 204.423C203.918 206.8 219.21 198.18 221.025 185.169C221.087 184.726 221.49 184.406 221.933 184.468L226.843 185.152C227.286 185.214 227.586 185.633 227.524 186.075C225.71 199.087 238.06 211.562 255.109 213.939Z"/>
</mask>
<path fill-rule="evenodd" clip-rule="evenodd" d="M255.109 213.939C272.158 216.317 287.45 207.697 289.264 194.686C291.079 181.675 278.729 169.2 261.68 166.822C252.372 165.524 243.587 167.504 237.234 171.687C233.803 173.946 229.816 175.629 225.747 175.061C221.679 174.494 218.304 171.784 215.622 168.673C210.656 162.911 202.749 158.603 193.44 157.305C176.391 154.928 161.099 163.548 159.285 176.559C157.47 189.57 169.82 202.045 186.869 204.423C203.918 206.8 219.21 198.18 221.025 185.169C221.087 184.726 221.49 184.406 221.933 184.468L226.843 185.152C227.286 185.214 227.586 185.633 227.524 186.075C225.71 199.087 238.06 211.562 255.109 213.939Z" fill="#616294"/>
<path d="M237.234 171.687L233.385 165.84L233.385 165.84L237.234 171.687ZM215.622 168.673L210.32 173.243L210.32 173.243L215.622 168.673ZM221.933 184.468L220.966 191.4L221.933 184.468ZM226.843 185.152L227.81 178.219L226.843 185.152ZM282.332 193.719C281.79 197.605 279.184 201.324 274.462 203.986C269.733 206.651 263.217 208.002 256.076 207.007L254.142 220.872C264.05 222.254 273.704 220.484 281.337 216.181C288.977 211.875 294.925 204.778 296.197 195.653L282.332 193.719ZM260.713 173.755C267.854 174.751 273.752 177.833 277.571 181.691C281.385 185.543 282.873 189.833 282.332 193.719L296.197 195.653C297.47 186.527 293.691 178.074 287.521 171.842C281.356 165.615 272.555 161.271 262.647 159.889L260.713 173.755ZM241.083 177.533C245.865 174.385 252.9 172.665 260.713 173.755L262.647 159.889C251.844 158.382 241.31 160.622 233.385 165.84L241.083 177.533ZM224.781 181.994C231.345 182.91 237.112 180.148 241.083 177.533L233.385 165.84C230.494 167.744 228.287 168.348 226.714 168.129L224.781 181.994ZM210.32 173.243C213.424 176.844 218.216 181.079 224.781 181.994L226.714 168.129C225.142 167.909 223.184 166.724 220.924 164.103L210.32 173.243ZM192.474 164.238C200.287 165.328 206.583 168.907 210.32 173.243L220.924 164.103C214.729 156.915 205.21 151.879 194.407 150.372L192.474 164.238ZM166.218 177.526C166.76 173.64 169.365 169.921 174.087 167.259C178.816 164.593 185.332 163.242 192.474 164.238L194.407 150.372C184.499 148.991 174.845 150.761 167.212 155.063C159.573 159.37 153.625 166.467 152.352 175.592L166.218 177.526ZM187.836 197.49C180.695 196.494 174.797 193.411 170.978 189.554C167.164 185.701 165.676 181.411 166.218 177.526L152.352 175.592C151.079 184.717 154.859 193.171 161.029 199.403C167.193 205.63 175.994 209.974 185.902 211.356L187.836 197.49ZM214.092 184.202C213.55 188.088 210.945 191.807 206.223 194.469C201.494 197.135 194.977 198.486 187.836 197.49L185.902 211.356C195.811 212.737 205.464 210.967 213.098 206.665C220.737 202.358 226.685 195.261 227.958 186.136L214.092 184.202ZM222.9 177.535C218.43 176.911 214.66 180.131 214.092 184.202L227.958 186.136C227.514 189.321 224.55 191.9 220.966 191.4L222.9 177.535ZM227.81 178.219L222.9 177.535L220.966 191.4L225.876 192.085L227.81 178.219ZM234.457 187.042C235.025 182.971 232.279 178.843 227.81 178.219L225.876 192.085C222.292 191.585 220.147 188.294 220.591 185.109L234.457 187.042ZM256.076 207.007C248.935 206.011 243.036 202.928 239.217 199.07C235.404 195.218 233.915 190.928 234.457 187.042L220.591 185.109C219.319 194.234 223.098 202.687 229.268 208.92C235.433 215.147 244.234 219.491 254.142 220.872L256.076 207.007Z" fill="white" mask="url(#path-16-outside-2_8529_69449)"/>
<path fill-rule="evenodd" clip-rule="evenodd" d="M289.264 194.686C287.45 207.697 272.158 216.317 255.109 213.939C238.06 211.562 225.71 199.087 227.524 186.075C227.586 185.633 227.286 185.214 226.843 185.152L221.933 184.468C221.49 184.406 221.087 184.726 221.025 185.169C219.21 198.18 203.918 206.8 186.869 204.423C169.82 202.045 157.47 189.57 159.285 176.559C161.099 163.548 176.391 154.928 193.44 157.305C202.749 158.603 210.656 162.911 215.622 168.673C218.304 171.784 221.679 174.494 225.747 175.061C229.816 175.629 233.803 173.946 237.234 171.687C243.587 167.504 252.372 165.524 261.68 166.822C278.729 169.2 291.079 181.675 289.264 194.686Z" fill="#404164"/>
<ellipse cx="255.551" cy="189.984" rx="22.5564" ry="17.2249" transform="rotate(7.93932 255.551 189.984)" fill="#616294"/>
<ellipse cx="22.5564" cy="17.2249" rx="22.5564" ry="17.2249" transform="matrix(-0.990415 -0.138124 -0.138124 0.990415 217.717 167.316)" fill="#616294"/>
<path d="M250.93 179.301L257.92 188.558" stroke="#7779B8" stroke-width="7" stroke-linecap="round"/>
<path d="M243.998 186.717L248.892 193.196" stroke="#7779B8" stroke-width="7" stroke-linecap="round"/>
<path d="M179.807 177.865L184.7 184.345" stroke="#7779B8" stroke-width="7" stroke-linecap="round"/>
<path d="M270.973 230.384L273.78 230.095L270.973 230.384L270.028 221.179L264.681 218.261C261.485 216.517 262.15 211.744 265.702 210.941L271.643 209.597L275.071 201.002C276.6 197.166 282.247 197.954 282.669 202.061L283.614 211.267L288.961 214.184C292.158 215.929 291.492 220.701 287.94 221.505L281.999 222.848L278.572 231.443C277.042 235.279 271.395 234.492 270.973 230.384ZM282.832 210.84L282.834 210.841C282.834 210.841 282.833 210.84 282.832 210.84L282.021 212.326L282.832 210.84Z" fill="#F9D357" stroke="white" stroke-width="5.64288"/>
<path d="M49.0289 68.0468L47.0866 68.5239C47.8348 71.5697 52.1652 71.5697 52.9134 68.5239L50.9711 68.0468L52.9134 68.5239L54.9322 60.3058L60.228 58.3067C62.8153 57.33 62.8153 53.67 60.228 52.6933L54.9322 50.6942L52.9134 42.4761C52.1652 39.4303 47.8348 39.4303 47.0866 42.4761L45.0678 50.6942L39.772 52.6933L40.4783 54.5644L39.772 52.6933C37.1847 53.67 37.1847 57.33 39.772 58.3067M49.0289 68.0468L39.772 58.3067M49.0289 68.0468L47.0866 68.5239L45.0678 60.3058M49.0289 68.0468L45.0678 60.3058M39.772 58.3067L45.0678 60.3058M39.772 58.3067L45.0678 60.3058M44.9422 51.2053L44.9425 51.2044C44.9424 51.2047 44.9423 51.205 44.9422 51.2053L45.9133 51.4439L44.9422 51.2053Z" fill="#F9D357" stroke="white" stroke-width="4"/>
<path d="M113.029 124.047L111.087 124.524C111.835 127.57 116.165 127.57 116.913 124.524L114.971 124.047L116.913 124.524L118.932 116.306L124.228 114.307C126.815 113.33 126.815 109.67 124.228 108.693L118.932 106.694L116.913 98.4761C116.165 95.4303 111.835 95.4303 111.087 98.4761L109.068 106.694L103.772 108.693L104.478 110.564L103.772 108.693C101.185 109.67 101.185 113.33 103.772 114.307M113.029 124.047L103.772 114.307M113.029 124.047L111.087 124.524L109.068 116.306M113.029 124.047L109.068 116.306M103.772 114.307L109.068 116.306M103.772 114.307L109.068 116.306M108.942 107.205L108.942 107.204C108.942 107.205 108.942 107.205 108.942 107.205L109.913 107.444L108.942 107.205Z" fill="#50D28D" stroke="#CAF4E2" stroke-width="4"/>
<path d="M37.0289 205.047L35.0866 205.524C35.8348 208.57 40.1652 208.57 40.9134 205.524L38.9711 205.047L40.9134 205.524L42.9322 197.306L48.228 195.307C50.8153 194.33 50.8153 190.67 48.228 189.693L42.9322 187.694L40.9134 179.476C40.1652 176.43 35.8348 176.43 35.0866 179.476L33.0678 187.694L27.772 189.693L28.4783 191.564L27.772 189.693C25.1847 190.67 25.1847 194.33 27.772 195.307M37.0289 205.047L27.772 195.307M37.0289 205.047L35.0866 205.524L33.0678 197.306M37.0289 205.047L33.0678 197.306M27.772 195.307L33.0678 197.306M27.772 195.307L33.0678 197.306M32.9422 188.205L32.9425 188.204C32.9424 188.205 32.9423 188.205 32.9422 188.205L33.9133 188.444L32.9422 188.205Z" fill="#F9D357" stroke="white" stroke-width="4"/>
<path d="M130.029 414.047L128.087 414.524C128.835 417.57 133.165 417.57 133.913 414.524L131.971 414.047L133.913 414.524L135.932 406.306L141.228 404.307C143.815 403.33 143.815 399.67 141.228 398.693L135.932 396.694L133.913 388.476C133.165 385.43 128.835 385.43 128.087 388.476L126.068 396.694L120.772 398.693L121.478 400.564L120.772 398.693C118.185 399.67 118.185 403.33 120.772 404.307M130.029 414.047L120.772 404.307M130.029 414.047L128.087 414.524L126.068 406.306M130.029 414.047L126.068 406.306M120.772 404.307L126.068 406.306M120.772 404.307L126.068 406.306M125.942 397.205L125.942 397.204C125.942 397.205 125.942 397.205 125.942 397.205L126.913 397.444L125.942 397.205Z" fill="#F9D357" stroke="white" stroke-width="4"/>
<path d="M285.029 422.047L283.087 422.524C283.835 425.57 288.165 425.57 288.913 422.524L286.971 422.047L288.913 422.524L290.932 414.306L296.228 412.307C298.815 411.33 298.815 407.67 296.228 406.693L290.932 404.694L288.913 396.476C288.165 393.43 283.835 393.43 283.087 396.476L281.068 404.694L275.772 406.693L276.478 408.564L275.772 406.693C273.185 407.67 273.185 411.33 275.772 412.307M285.029 422.047L275.772 412.307M285.029 422.047L283.087 422.524L281.068 414.306M285.029 422.047L281.068 414.306M275.772 412.307L281.068 414.306M275.772 412.307L281.068 414.306M280.942 405.205L280.942 405.204C280.942 405.205 280.942 405.205 280.942 405.205L281.913 405.444L280.942 405.205Z" fill="#50D28D" stroke="#CAF4E2" stroke-width="4"/>
<path d="M61.0289 350.047L59.0866 350.524C59.8348 353.57 64.1652 353.57 64.9134 350.524L62.9711 350.047L64.9134 350.524L66.9322 342.306L72.228 340.307C74.8153 339.33 74.8153 335.67 72.228 334.693L66.9322 332.694L64.9134 324.476C64.1652 321.43 59.8348 321.43 59.0866 324.476L57.0678 332.694L51.772 334.693L52.4783 336.564L51.772 334.693C49.1847 335.67 49.1847 339.33 51.772 340.307M61.0289 350.047L51.772 340.307M61.0289 350.047L59.0866 350.524L57.0678 342.306M61.0289 350.047L57.0678 342.306M51.772 340.307L57.0678 342.306M51.772 340.307L57.0678 342.306M56.9422 333.205L56.9425 333.204C56.9424 333.205 56.9423 333.205 56.9422 333.205L57.9133 333.444L56.9422 333.205Z" fill="#50D28D" stroke="#CAF4E2" stroke-width="4"/>
<path d="M261.029 84.0468L259.087 84.5239C259.835 87.5697 264.165 87.5697 264.913 84.5239L262.971 84.0468L264.913 84.5239L266.932 76.3058L272.228 74.3067C274.815 73.33 274.815 69.67 272.228 68.6933L266.932 66.6942L264.913 58.4761C264.165 55.4303 259.835 55.4303 259.087 58.4761L257.068 66.6942L251.772 68.6933L252.478 70.5644L251.772 68.6933C249.185 69.67 249.185 73.33 251.772 74.3067M261.029 84.0468L251.772 74.3067M261.029 84.0468L259.087 84.5239L257.068 76.3058M261.029 84.0468L257.068 76.3058M251.772 74.3067L257.068 76.3058M251.772 74.3067L257.068 76.3058M256.942 67.2053L256.942 67.2044C256.942 67.2047 256.942 67.205 256.942 67.2053L257.913 67.4439L256.942 67.2053Z" fill="#50D28D" stroke="#CAF4E2" stroke-width="4"/>
<path d="M190.029 41.0468L188.087 41.5239C188.835 44.5697 193.165 44.5697 193.913 41.5239L191.971 41.0468L193.913 41.5239L195.932 33.3058L201.228 31.3067C203.815 30.33 203.815 26.67 201.228 25.6933L195.932 23.6942L193.913 15.4761C193.165 12.4303 188.835 12.4303 188.087 15.4761L186.068 23.6942L180.772 25.6933L181.478 27.5644L180.772 25.6933C178.185 26.67 178.185 30.33 180.772 31.3067M190.029 41.0468L180.772 31.3067M190.029 41.0468L188.087 41.5239L186.068 33.3058M190.029 41.0468L186.068 33.3058M180.772 31.3067L186.068 33.3058M180.772 31.3067L186.068 33.3058M185.942 24.2053L185.942 24.2044C185.942 24.2047 185.942 24.205 185.942 24.2053L186.913 24.4439L185.942 24.2053Z" fill="#F9D357" stroke="white" stroke-width="4"/>
</svg>
