<svg width="65" height="65" viewBox="0 0 65 65" fill="none" xmlns="http://www.w3.org/2000/svg">
<path d="M24.7328 62.969C24.3925 62.9693 24.0562 62.895 23.7476 62.7515C23.439 62.6079 23.1657 62.3985 22.9466 62.138C22.7276 61.8775 22.5683 61.5722 22.4799 61.2436C22.3915 60.9149 22.3762 60.5709 22.4349 60.2357V60.2217L26.0036 40.6252H12.1873C11.8038 40.6252 11.4281 40.5166 11.1038 40.312C10.7794 40.1074 10.5196 39.8151 10.3544 39.469C10.1892 39.123 10.1253 38.7372 10.1702 38.3563C10.2151 37.9754 10.3669 37.6151 10.608 37.3168L38.4323 2.92016C38.749 2.51813 39.1887 2.2309 39.6841 2.10239C40.1795 1.97388 40.7033 2.01116 41.1755 2.20854C41.6478 2.40591 42.0423 2.75252 42.2989 3.19535C42.5555 3.63818 42.66 4.15286 42.5964 4.66069C42.5964 4.69878 42.5862 4.73559 42.5799 4.77368L38.9985 24.3752H52.8123C53.1958 24.3753 53.5714 24.4839 53.8958 24.6885C54.2202 24.8931 54.48 25.1854 54.6452 25.5314C54.8104 25.8775 54.8742 26.2633 54.8294 26.6442C54.7845 27.0251 54.6327 27.3854 54.3916 27.6836L26.5635 62.0803C26.3448 62.3566 26.0666 62.58 25.7497 62.7339C25.4327 62.8877 25.0851 62.9681 24.7328 62.969V62.969Z" fill="#E8EAFF"/>
</svg>
