<svg width="24" height="24" viewBox="0 0 24 24" fill="none" xmlns="http://www.w3.org/2000/svg">
<path fill-rule="evenodd" clip-rule="evenodd" d="M22.216 7.49392C23.0775 8.0904 23.0775 9.36402 22.216 9.9605L16.1137 14.1851C15.1189 14.8739 13.7599 14.1618 13.7599 12.9518V11.3138C12.1667 10.8068 10.2908 11.2734 9.15389 12.4024C8.20407 13.3456 7.55845 13.7699 7.52945 12.4316C7.48141 10.2148 8.61293 6.69413 13.7599 6.33642V4.50259C13.7599 3.2926 15.1189 2.58056 16.1137 3.2693L22.216 7.49392ZM4 6.31378C4 5.76149 4.44772 5.31378 5 5.31378H10.7945C11.3467 5.31378 11.7945 4.86606 11.7945 4.31378C11.7945 3.76149 11.3467 3.31378 10.7945 3.31378H5C3.34315 3.31378 2 4.65692 2 6.31378V17.9027C2 19.5596 3.34315 20.9027 5 20.9027H16.5889C18.2458 20.9027 19.5889 19.5596 19.5889 17.9027V15.4487C19.5889 14.8964 19.1412 14.4487 18.5889 14.4487C18.0366 14.4487 17.5889 14.8964 17.5889 15.4487V17.9027C17.5889 18.455 17.1412 18.9027 16.5889 18.9027H5C4.44772 18.9027 4 18.455 4 17.9027V6.31378Z" fill="#68737D"/>
</svg>
