<svg width="327" height="440" viewBox="0 0 327 440" fill="none" xmlns="http://www.w3.org/2000/svg">
<rect width="327" height="440" fill="#F9D357"/>
<mask id="path-1-outside-1_8529_69501" maskUnits="userSpaceOnUse" x="244.699" y="34.7307" width="41.6255" height="41.6255" fill="black">
<rect fill="white" x="244.699" y="34.7307" width="41.6255" height="41.6255"/>
<path fill-rule="evenodd" clip-rule="evenodd" d="M250.712 44.9854C250.943 41.6797 253.811 39.1874 257.116 39.4185L275.072 40.6742C278.378 40.9053 280.87 43.7724 280.639 47.0781L279.849 58.3763C279.78 59.3672 279.548 60.3298 279.171 61.2289C279.422 61.4389 279.581 61.7527 279.585 62.0988L270.045 70.3919C269.703 70.3394 269.414 70.1386 269.241 69.8608C268.298 70.1091 267.313 70.2048 266.322 70.1355L255.024 69.3455C251.718 69.1143 249.226 66.2472 249.457 62.9415L250.712 44.9854Z"/>
</mask>
<path fill-rule="evenodd" clip-rule="evenodd" d="M250.712 44.9854C250.943 41.6797 253.811 39.1874 257.116 39.4185L275.072 40.6742C278.378 40.9053 280.87 43.7724 280.639 47.0781L279.849 58.3763C279.78 59.3672 279.548 60.3298 279.171 61.2289C279.422 61.4389 279.581 61.7527 279.585 62.0988L270.045 70.3919C269.703 70.3394 269.414 70.1386 269.241 69.8608C268.298 70.1091 267.313 70.2048 266.322 70.1355L255.024 69.3455C251.718 69.1143 249.226 66.2472 249.457 62.9415L250.712 44.9854Z" fill="#DCDCDC"/>
<path d="M280.639 47.0781L284.629 47.3571L280.639 47.0781ZM279.849 58.3763L275.859 58.0972L279.849 58.3763ZM279.171 61.2289L275.482 59.6819L274.341 62.4032L276.604 64.2968L279.171 61.2289ZM279.585 62.0988L282.209 65.1176L283.608 63.9017L283.585 62.0486L279.585 62.0988ZM270.045 70.3919L269.438 74.3457L271.27 74.6266L272.669 73.4107L270.045 70.3919ZM269.241 69.8608L272.636 67.7459L271.076 65.2413L268.223 65.9927L269.241 69.8608ZM266.322 70.1355L266.043 74.1258L266.322 70.1355ZM255.024 69.3455L255.303 65.3552L255.024 69.3455ZM257.395 35.4283C251.886 35.043 247.107 39.197 246.722 44.7064L254.703 45.2644C254.78 44.1625 255.735 43.3317 256.837 43.4088L257.395 35.4283ZM275.351 36.6839L257.395 35.4283L256.837 43.4088L274.793 44.6644L275.351 36.6839ZM284.629 47.3571C285.015 41.8477 280.861 37.0692 275.351 36.6839L274.793 44.6644C275.895 44.7415 276.726 45.6972 276.649 46.7991L284.629 47.3571ZM283.839 58.6553L284.629 47.3571L276.649 46.7991L275.859 58.0972L283.839 58.6553ZM282.86 62.7758C283.404 61.4771 283.739 60.0865 283.839 58.6553L275.859 58.0972C275.82 58.6479 275.692 59.1824 275.482 59.6819L282.86 62.7758ZM283.585 62.0486C283.565 60.4927 282.85 59.0917 281.738 58.161L276.604 64.2968C275.994 63.7861 275.596 63.0126 275.585 62.149L283.585 62.0486ZM272.669 73.4107L282.209 65.1176L276.961 59.0799L267.421 67.3731L272.669 73.4107ZM265.846 71.9757C266.613 73.2068 267.901 74.1098 269.438 74.3457L270.651 66.4381C271.505 66.569 272.215 67.0704 272.636 67.7459L265.846 71.9757ZM266.043 74.1258C267.474 74.2258 268.898 74.0876 270.26 73.729L268.223 65.9927C267.699 66.1306 267.151 66.1838 266.601 66.1453L266.043 74.1258ZM254.745 73.3357L266.043 74.1258L266.601 66.1453L255.303 65.3552L254.745 73.3357ZM245.466 62.6625C245.081 68.1719 249.235 72.9505 254.745 73.3357L255.303 65.3552C254.201 65.2782 253.37 64.3224 253.447 63.2206L245.466 62.6625ZM246.722 44.7064L245.466 62.6625L253.447 63.2206L254.703 45.2644L246.722 44.7064Z" fill="white" mask="url(#path-1-outside-1_8529_69501)"/>
<path fill-rule="evenodd" clip-rule="evenodd" d="M257.116 39.4185C253.811 39.1874 250.943 41.6797 250.712 44.9854L249.457 62.9415C249.226 66.2472 251.718 69.1143 255.024 69.3455L266.322 70.1355C268.703 70.302 271.053 69.5158 272.854 67.9498L276.776 64.5408C278.577 62.9749 279.683 60.7574 279.849 58.3763L280.639 47.0781C280.87 43.7724 278.378 40.9053 275.072 40.6742L257.116 39.4185Z" fill="#FFDB65"/>
<path fill-rule="evenodd" clip-rule="evenodd" d="M279.585 62.0988C279.578 61.5046 279.115 61.0057 278.512 60.9635L271.606 60.4806C270.546 60.4065 269.627 61.2053 269.553 62.2648L269.07 69.171C269.028 69.7744 269.458 70.3018 270.045 70.3919L279.585 62.0988Z" fill="#FFB114"/>
<mask id="path-5-outside-2_8529_69501" maskUnits="userSpaceOnUse" x="40.6601" y="34.7307" width="41.6255" height="41.6255" fill="black">
<rect fill="white" x="40.6601" y="34.7307" width="41.6255" height="41.6255"/>
<path fill-rule="evenodd" clip-rule="evenodd" d="M46.6733 44.9854C46.9044 41.6797 49.7715 39.1874 53.0772 39.4185L71.0333 40.6742C74.339 40.9053 76.8313 43.7724 76.6002 47.0781L75.8101 58.3763C75.7408 59.3672 75.5089 60.3298 75.1319 61.2289C75.3829 61.4389 75.5416 61.7527 75.5459 62.0988L66.0058 70.3919C65.6637 70.3394 65.3751 70.1386 65.202 69.8608C64.2592 70.1091 63.2736 70.2048 62.2827 70.1355L50.9845 69.3455C47.6789 69.1143 45.1865 66.2472 45.4176 62.9415L46.6733 44.9854Z"/>
</mask>
<path fill-rule="evenodd" clip-rule="evenodd" d="M46.6733 44.9854C46.9044 41.6797 49.7715 39.1874 53.0772 39.4185L71.0333 40.6742C74.339 40.9053 76.8313 43.7724 76.6002 47.0781L75.8101 58.3763C75.7408 59.3672 75.5089 60.3298 75.1319 61.2289C75.3829 61.4389 75.5416 61.7527 75.5459 62.0988L66.0058 70.3919C65.6637 70.3394 65.3751 70.1386 65.202 69.8608C64.2592 70.1091 63.2736 70.2048 62.2827 70.1355L50.9845 69.3455C47.6789 69.1143 45.1865 66.2472 45.4176 62.9415L46.6733 44.9854Z" fill="#DCDCDC"/>
<path d="M75.1319 61.2289L71.4431 59.6819L70.3019 62.4032L72.5651 64.2968L75.1319 61.2289ZM75.5459 62.0988L78.1702 65.1176L79.5689 63.9017L79.5456 62.0486L75.5459 62.0988ZM66.0058 70.3919L65.3994 74.3457L67.2313 74.6266L68.63 73.4107L66.0058 70.3919ZM65.202 69.8608L68.5972 67.7459L67.037 65.2413L64.1835 65.9927L65.202 69.8608ZM62.2827 70.1355L62.0036 74.1258L62.2827 70.1355ZM50.9845 69.3455L51.2635 65.3552L50.9845 69.3455ZM53.3562 35.4283C47.8468 35.043 43.0683 39.197 42.683 44.7064L50.6635 45.2644C50.7406 44.1625 51.6963 43.3317 52.7982 43.4088L53.3562 35.4283ZM71.3124 36.6839L53.3562 35.4283L52.7982 43.4088L70.7543 44.6644L71.3124 36.6839ZM80.5904 47.3571C80.9757 41.8477 76.8218 37.0692 71.3124 36.6839L70.7543 44.6644C71.8562 44.7415 72.687 45.6972 72.6099 46.7991L80.5904 47.3571ZM79.8004 58.6553L80.5904 47.3571L72.6099 46.7991L71.8199 58.0972L79.8004 58.6553ZM78.8206 62.7758C79.3652 61.4771 79.7003 60.0865 79.8004 58.6553L71.8199 58.0972C71.7814 58.6479 71.6526 59.1824 71.4431 59.6819L78.8206 62.7758ZM79.5456 62.0486C79.5261 60.4927 78.811 59.0917 77.6986 58.161L72.5651 64.2968C71.9547 63.7861 71.5571 63.0126 71.5463 62.149L79.5456 62.0486ZM68.63 73.4107L78.1702 65.1176L72.9217 59.0799L63.3815 67.3731L68.63 73.4107ZM61.8069 71.9757C62.5737 73.2068 63.8615 74.1098 65.3994 74.3457L66.6122 66.4381C67.4658 66.569 68.1764 67.0704 68.5972 67.7459L61.8069 71.9757ZM62.0036 74.1258C63.4349 74.2258 64.8587 74.0876 66.2206 73.729L64.1835 65.9927C63.6597 66.1306 63.1124 66.1838 62.5617 66.1453L62.0036 74.1258ZM50.7055 73.3357L62.0036 74.1258L62.5617 66.1453L51.2635 65.3552L50.7055 73.3357ZM41.4274 62.6625C41.0421 68.1719 45.1961 72.9505 50.7055 73.3357L51.2635 65.3552C50.1616 65.2782 49.3308 64.3224 49.4079 63.2206L41.4274 62.6625ZM42.683 44.7064L41.4274 62.6625L49.4079 63.2206L50.6635 45.2644L42.683 44.7064Z" fill="white" mask="url(#path-5-outside-2_8529_69501)"/>
<path fill-rule="evenodd" clip-rule="evenodd" d="M53.0772 39.4185C49.7715 39.1874 46.9044 41.6797 46.6733 44.9854L45.4176 62.9415C45.1865 66.2472 47.6789 69.1143 50.9845 69.3455L62.2827 70.1355C64.6638 70.302 67.0135 69.5158 68.815 67.9498L72.7366 64.5408C74.538 62.9749 75.6436 60.7574 75.8101 58.3763L76.6002 47.0781C76.8313 43.7724 74.339 40.9053 71.0333 40.6742L53.0772 39.4185Z" fill="#FFDB65"/>
<path fill-rule="evenodd" clip-rule="evenodd" d="M75.5464 62.0988C75.5389 61.5046 75.0764 61.0057 74.473 60.9635L67.5668 60.4806C66.5073 60.4065 65.5884 61.2053 65.5143 62.2648L65.0314 69.171C64.9892 69.7744 65.4188 70.3018 66.0062 70.3919L75.5464 62.0988Z" fill="#FFB114"/>
<mask id="path-9-outside-3_8529_69501" maskUnits="userSpaceOnUse" x="142.75" y="34.5683" width="41.6255" height="41.6255" fill="black">
<rect fill="white" x="142.75" y="34.5683" width="41.6255" height="41.6255"/>
<path fill-rule="evenodd" clip-rule="evenodd" d="M147.438 46.9854C147.207 43.6797 149.699 40.8126 153.005 40.5815L170.961 39.3258C174.267 39.0947 177.134 41.5871 177.365 44.8927L178.155 56.191C178.224 57.1819 178.129 58.1674 177.88 59.1102C178.158 59.2833 178.359 59.572 178.411 59.9142L170.119 69.454C169.772 69.4498 169.459 69.2911 169.249 69.0401C168.349 69.4171 167.387 69.649 166.396 69.7183L155.098 70.5084C151.792 70.7395 148.925 68.2472 148.694 64.9415L147.438 46.9854Z"/>
</mask>
<path fill-rule="evenodd" clip-rule="evenodd" d="M147.438 46.9854C147.207 43.6797 149.699 40.8126 153.005 40.5815L170.961 39.3258C174.267 39.0947 177.134 41.5871 177.365 44.8927L178.155 56.191C178.224 57.1819 178.129 58.1674 177.88 59.1102C178.158 59.2833 178.359 59.572 178.411 59.9142L170.119 69.454C169.772 69.4498 169.459 69.2911 169.249 69.0401C168.349 69.4171 167.387 69.649 166.396 69.7183L155.098 70.5084C151.792 70.7395 148.925 68.2472 148.694 64.9415L147.438 46.9854Z" fill="#DCDCDC"/>
<path d="M177.88 59.1102L174.012 58.0917L173.261 60.945L175.765 62.5052L177.88 59.1102ZM178.411 59.9142L181.43 62.5385L182.646 61.1403L182.365 59.3091L178.411 59.9142ZM170.119 69.454L170.07 73.4537L171.922 73.4764L173.137 72.0783L170.119 69.454ZM169.249 69.0401L172.316 66.4729L170.423 64.2103L167.702 65.3513L169.249 69.0401ZM152.726 36.5912C147.216 36.9765 143.063 41.755 143.448 47.2644L151.428 46.7064C151.351 45.6045 152.182 44.6488 153.284 44.5717L152.726 36.5912ZM170.682 35.3356L152.726 36.5912L153.284 44.5717L171.24 43.3161L170.682 35.3356ZM181.355 44.6137C180.97 39.1043 176.191 34.9503 170.682 35.3356L171.24 43.3161C172.342 43.2391 173.298 44.0698 173.375 45.1717L181.355 44.6137ZM182.145 55.912L181.355 44.6137L173.375 45.1717L174.165 56.47L182.145 55.912ZM181.749 60.1286C182.107 58.7668 182.245 57.3432 182.145 55.912L174.165 56.47C174.203 57.0207 174.15 57.5679 174.012 58.0917L181.749 60.1286ZM182.365 59.3091C182.13 57.7706 181.227 56.4823 179.996 55.7152L175.765 62.5052C175.09 62.0843 174.588 61.3734 174.458 60.5194L182.365 59.3091ZM173.137 72.0783L181.43 62.5385L175.393 57.29L167.1 66.8298L173.137 72.0783ZM166.181 71.6072C167.112 72.7197 168.513 73.4347 170.07 73.4537L170.168 65.4543C171.031 65.4649 171.805 65.8625 172.316 66.4729L166.181 71.6072ZM166.675 73.7086C168.106 73.6085 169.497 73.2734 170.795 72.7288L167.702 65.3513C167.202 65.5608 166.668 65.6896 166.117 65.7281L166.675 73.7086ZM155.377 74.4986L166.675 73.7086L166.117 65.7281L154.819 66.5181L155.377 74.4986ZM144.703 65.2206C145.089 70.73 149.867 74.8839 155.377 74.4986L154.819 66.5181C153.717 66.5952 152.761 65.7644 152.684 64.6625L144.703 65.2206ZM143.448 47.2644L144.703 65.2206L152.684 64.6625L151.428 46.7064L143.448 47.2644Z" fill="white" mask="url(#path-9-outside-3_8529_69501)"/>
<path fill-rule="evenodd" clip-rule="evenodd" d="M153.005 40.5815C149.699 40.8126 147.207 43.6797 147.438 46.9854L148.694 64.9415C148.925 68.2472 151.792 70.7395 155.098 70.5084L166.396 69.7183C168.777 69.5518 170.995 68.4462 172.561 66.6448L175.969 62.7234C177.535 60.9219 178.322 58.5722 178.155 56.191L177.365 44.8927C177.134 41.5871 174.267 39.0947 170.961 39.3258L153.005 40.5815Z" fill="#FFDB65"/>
<path fill-rule="evenodd" clip-rule="evenodd" d="M178.411 59.9143C178.321 59.3267 177.793 58.8969 177.19 58.9391L170.284 59.422C169.224 59.4961 168.425 60.415 168.499 61.4745L168.982 68.3808C169.025 68.9843 169.524 69.4468 170.118 69.4541L178.411 59.9143Z" fill="#FFB114"/>
<mask id="path-13-outside-4_8529_69501" maskUnits="userSpaceOnUse" x="244.699" y="354.823" width="41.6255" height="41.6255" fill="black">
<rect fill="white" x="244.699" y="354.823" width="41.6255" height="41.6255"/>
<path fill-rule="evenodd" clip-rule="evenodd" d="M250.712 365.078C250.943 361.772 253.811 359.28 257.116 359.511L275.072 360.767C278.378 360.998 280.87 363.865 280.639 367.171L279.849 378.469C279.78 379.46 279.548 380.423 279.171 381.322C279.422 381.532 279.581 381.845 279.585 382.191L270.045 390.485C269.703 390.432 269.414 390.231 269.241 389.954C268.298 390.202 267.313 390.298 266.322 390.228L255.024 389.438C251.718 389.207 249.226 386.34 249.457 383.034L250.712 365.078Z"/>
</mask>
<path fill-rule="evenodd" clip-rule="evenodd" d="M250.712 365.078C250.943 361.772 253.811 359.28 257.116 359.511L275.072 360.767C278.378 360.998 280.87 363.865 280.639 367.171L279.849 378.469C279.78 379.46 279.548 380.423 279.171 381.322C279.422 381.532 279.581 381.845 279.585 382.191L270.045 390.485C269.703 390.432 269.414 390.231 269.241 389.954C268.298 390.202 267.313 390.298 266.322 390.228L255.024 389.438C251.718 389.207 249.226 386.34 249.457 383.034L250.712 365.078Z" fill="#DCDCDC"/>
<path d="M250.712 365.078L246.722 364.799L250.712 365.078ZM280.639 367.171L284.629 367.45L280.639 367.171ZM279.849 378.469L275.859 378.19L279.849 378.469ZM279.171 381.322L275.482 379.775L274.341 382.496L276.604 384.389L279.171 381.322ZM279.585 382.191L282.209 385.21L283.608 383.994L283.585 382.141L279.585 382.191ZM270.045 390.485L269.438 394.438L271.27 394.719L272.669 393.503L270.045 390.485ZM269.241 389.954L272.636 387.839L271.076 385.334L268.223 386.085L269.241 389.954ZM266.322 390.228L266.043 394.218L266.322 390.228ZM255.024 389.438L255.303 385.448L255.024 389.438ZM249.457 383.034L253.447 383.313L249.457 383.034ZM257.395 355.521C251.886 355.136 247.107 359.29 246.722 364.799L254.703 365.357C254.78 364.255 255.735 363.424 256.837 363.502L257.395 355.521ZM275.351 356.777L257.395 355.521L256.837 363.502L274.793 364.757L275.351 356.777ZM284.629 367.45C285.015 361.94 280.861 357.162 275.351 356.777L274.793 364.757C275.895 364.834 276.726 365.79 276.649 366.892L284.629 367.45ZM283.839 378.748L284.629 367.45L276.649 366.892L275.859 378.19L283.839 378.748ZM282.86 382.869C283.404 381.57 283.739 380.179 283.839 378.748L275.859 378.19C275.82 378.741 275.692 379.275 275.482 379.775L282.86 382.869ZM283.585 382.141C283.565 380.585 282.85 379.184 281.738 378.254L276.604 384.389C275.994 383.879 275.596 383.105 275.585 382.242L283.585 382.141ZM272.669 393.503L282.209 385.21L276.961 379.173L267.421 387.466L272.669 393.503ZM265.846 392.068C266.613 393.3 267.901 394.203 269.438 394.438L270.651 386.531C271.505 386.662 272.215 387.163 272.636 387.839L265.846 392.068ZM266.043 394.218C267.474 394.319 268.898 394.18 270.26 393.822L268.223 386.085C267.699 386.223 267.151 386.276 266.601 386.238L266.043 394.218ZM254.745 393.428L266.043 394.218L266.601 386.238L255.303 385.448L254.745 393.428ZM245.466 382.755C245.081 388.265 249.235 393.043 254.745 393.428L255.303 385.448C254.201 385.371 253.37 384.415 253.447 383.313L245.466 382.755ZM246.722 364.799L245.466 382.755L253.447 383.313L254.703 365.357L246.722 364.799Z" fill="white" mask="url(#path-13-outside-4_8529_69501)"/>
<path fill-rule="evenodd" clip-rule="evenodd" d="M257.116 359.511C253.811 359.28 250.943 361.772 250.712 365.078L249.457 383.034C249.226 386.34 251.718 389.207 255.024 389.438L266.322 390.228C268.703 390.395 271.053 389.609 272.854 388.043L276.776 384.634C278.577 383.068 279.683 380.85 279.849 378.469L280.639 367.171C280.87 363.865 278.378 360.998 275.072 360.767L257.116 359.511Z" fill="#FFDB65"/>
<path fill-rule="evenodd" clip-rule="evenodd" d="M279.585 382.191C279.578 381.597 279.115 381.098 278.512 381.056L271.606 380.573C270.546 380.499 269.627 381.298 269.553 382.358L269.07 389.264C269.028 389.867 269.458 390.395 270.045 390.485L279.585 382.191Z" fill="#FFB114"/>
<mask id="path-17-outside-5_8529_69501" maskUnits="userSpaceOnUse" x="40.6601" y="354.823" width="41.6255" height="41.6255" fill="black">
<rect fill="white" x="40.6601" y="354.823" width="41.6255" height="41.6255"/>
<path fill-rule="evenodd" clip-rule="evenodd" d="M46.6733 365.078C46.9044 361.772 49.7715 359.28 53.0772 359.511L71.0333 360.767C74.339 360.998 76.8313 363.865 76.6002 367.171L75.8101 378.469C75.7408 379.46 75.5089 380.423 75.1319 381.322C75.3829 381.532 75.5416 381.845 75.5459 382.191L66.0058 390.485C65.6637 390.432 65.3751 390.231 65.202 389.954C64.2592 390.202 63.2736 390.298 62.2827 390.228L50.9845 389.438C47.6789 389.207 45.1865 386.34 45.4176 383.034L46.6733 365.078Z"/>
</mask>
<path fill-rule="evenodd" clip-rule="evenodd" d="M46.6733 365.078C46.9044 361.772 49.7715 359.28 53.0772 359.511L71.0333 360.767C74.339 360.998 76.8313 363.865 76.6002 367.171L75.8101 378.469C75.7408 379.46 75.5089 380.423 75.1319 381.322C75.3829 381.532 75.5416 381.845 75.5459 382.191L66.0058 390.485C65.6637 390.432 65.3751 390.231 65.202 389.954C64.2592 390.202 63.2736 390.298 62.2827 390.228L50.9845 389.438C47.6789 389.207 45.1865 386.34 45.4176 383.034L46.6733 365.078Z" fill="#DCDCDC"/>
<path d="M46.6733 365.078L42.683 364.799L46.6733 365.078ZM75.1319 381.322L71.4431 379.775L70.3019 382.496L72.5651 384.389L75.1319 381.322ZM75.5459 382.191L78.1702 385.21L79.5689 383.994L79.5456 382.141L75.5459 382.191ZM66.0058 390.485L65.3994 394.438L67.2313 394.719L68.63 393.503L66.0058 390.485ZM65.202 389.954L68.5972 387.839L67.037 385.334L64.1835 386.085L65.202 389.954ZM62.2827 390.228L62.0036 394.218L62.2827 390.228ZM50.9845 389.438L51.2635 385.448L50.9845 389.438ZM45.4176 383.034L49.4079 383.313L45.4176 383.034ZM53.3562 355.521C47.8468 355.136 43.0683 359.29 42.683 364.799L50.6635 365.357C50.7406 364.255 51.6963 363.424 52.7982 363.502L53.3562 355.521ZM71.3124 356.777L53.3562 355.521L52.7982 363.502L70.7543 364.757L71.3124 356.777ZM80.5904 367.45C80.9757 361.94 76.8218 357.162 71.3124 356.777L70.7543 364.757C71.8562 364.834 72.687 365.79 72.6099 366.892L80.5904 367.45ZM79.8004 378.748L80.5904 367.45L72.6099 366.892L71.8199 378.19L79.8004 378.748ZM78.8206 382.869C79.3652 381.57 79.7003 380.179 79.8004 378.748L71.8199 378.19C71.7814 378.741 71.6526 379.275 71.4431 379.775L78.8206 382.869ZM79.5456 382.141C79.5261 380.585 78.811 379.184 77.6986 378.254L72.5651 384.389C71.9547 383.879 71.5571 383.105 71.5463 382.242L79.5456 382.141ZM68.63 393.503L78.1702 385.21L72.9217 379.173L63.3815 387.466L68.63 393.503ZM61.8069 392.068C62.5737 393.3 63.8615 394.203 65.3994 394.438L66.6122 386.531C67.4658 386.662 68.1764 387.163 68.5972 387.839L61.8069 392.068ZM62.0036 394.218C63.4349 394.319 64.8587 394.18 66.2206 393.822L64.1835 386.085C63.6597 386.223 63.1124 386.276 62.5617 386.238L62.0036 394.218ZM50.7055 393.428L62.0036 394.218L62.5617 386.238L51.2635 385.448L50.7055 393.428ZM41.4274 382.755C41.0421 388.265 45.1961 393.043 50.7055 393.428L51.2635 385.448C50.1616 385.371 49.3308 384.415 49.4079 383.313L41.4274 382.755ZM42.683 364.799L41.4274 382.755L49.4079 383.313L50.6635 365.357L42.683 364.799Z" fill="white" mask="url(#path-17-outside-5_8529_69501)"/>
<path fill-rule="evenodd" clip-rule="evenodd" d="M53.0772 359.511C49.7715 359.28 46.9044 361.772 46.6733 365.078L45.4176 383.034C45.1865 386.34 47.6789 389.207 50.9845 389.438L62.2827 390.228C64.6638 390.395 67.0135 389.609 68.815 388.043L72.7366 384.634C74.538 383.068 75.6436 380.85 75.8101 378.469L76.6002 367.171C76.8313 363.865 74.339 360.998 71.0333 360.767L53.0772 359.511Z" fill="#FFDB65"/>
<path fill-rule="evenodd" clip-rule="evenodd" d="M75.5464 382.191C75.5389 381.597 75.0764 381.098 74.473 381.056L67.5668 380.573C66.5073 380.499 65.5884 381.298 65.5143 382.358L65.0314 389.264C64.9892 389.867 65.4188 390.395 66.0062 390.485L75.5464 382.191Z" fill="#FFB114"/>
<mask id="path-21-outside-6_8529_69501" maskUnits="userSpaceOnUse" x="142.75" y="354.661" width="41.6255" height="41.6255" fill="black">
<rect fill="white" x="142.75" y="354.661" width="41.6255" height="41.6255"/>
<path fill-rule="evenodd" clip-rule="evenodd" d="M147.438 367.078C147.207 363.772 149.699 360.905 153.005 360.674L170.961 359.419C174.267 359.187 177.134 361.68 177.365 364.985L178.155 376.284C178.224 377.275 178.129 378.26 177.88 379.203C178.158 379.376 178.359 379.665 178.411 380.007L170.119 389.547C169.772 389.543 169.459 389.384 169.249 389.133C168.349 389.51 167.387 389.742 166.396 389.811L155.098 390.601C151.792 390.832 148.925 388.34 148.694 385.034L147.438 367.078Z"/>
</mask>
<path fill-rule="evenodd" clip-rule="evenodd" d="M147.438 367.078C147.207 363.772 149.699 360.905 153.005 360.674L170.961 359.419C174.267 359.187 177.134 361.68 177.365 364.985L178.155 376.284C178.224 377.275 178.129 378.26 177.88 379.203C178.158 379.376 178.359 379.665 178.411 380.007L170.119 389.547C169.772 389.543 169.459 389.384 169.249 389.133C168.349 389.51 167.387 389.742 166.396 389.811L155.098 390.601C151.792 390.832 148.925 388.34 148.694 385.034L147.438 367.078Z" fill="#DCDCDC"/>
<path d="M177.88 379.203L174.012 378.184L173.261 381.038L175.765 382.598L177.88 379.203ZM178.411 380.007L181.43 382.631L182.646 381.233L182.365 379.402L178.411 380.007ZM170.119 389.547L170.07 393.546L171.922 393.569L173.137 392.171L170.119 389.547ZM169.249 389.133L172.316 386.566L170.423 384.303L167.702 385.444L169.249 389.133ZM152.726 356.684C147.216 357.069 143.063 361.848 143.448 367.357L151.428 366.799C151.351 365.697 152.182 364.741 153.284 364.664L152.726 356.684ZM170.682 355.428L152.726 356.684L153.284 364.664L171.24 363.409L170.682 355.428ZM181.355 364.706C180.97 359.197 176.191 355.043 170.682 355.428L171.24 363.409C172.342 363.332 173.298 364.163 173.375 365.264L181.355 364.706ZM182.145 376.005L181.355 364.706L173.375 365.264L174.165 376.563L182.145 376.005ZM181.749 380.221C182.107 378.86 182.245 377.436 182.145 376.005L174.165 376.563C174.203 377.113 174.15 377.661 174.012 378.184L181.749 380.221ZM182.365 379.402C182.13 377.863 181.227 376.575 179.996 375.808L175.765 382.598C175.09 382.177 174.588 381.466 174.458 380.612L182.365 379.402ZM173.137 392.171L181.43 382.631L175.393 377.383L167.1 386.923L173.137 392.171ZM166.181 391.7C167.112 392.812 168.513 393.527 170.07 393.546L170.168 385.547C171.031 385.558 171.805 385.955 172.316 386.566L166.181 391.7ZM166.675 393.801C168.106 393.701 169.497 393.366 170.795 392.822L167.702 385.444C167.202 385.653 166.668 385.782 166.117 385.821L166.675 393.801ZM155.377 394.591L166.675 393.801L166.117 385.821L154.819 386.611L155.377 394.591ZM144.703 385.313C145.089 390.823 149.867 394.977 155.377 394.591L154.819 386.611C153.717 386.688 152.761 385.857 152.684 384.755L144.703 385.313ZM143.448 367.357L144.703 385.313L152.684 384.755L151.428 366.799L143.448 367.357Z" fill="white" mask="url(#path-21-outside-6_8529_69501)"/>
<path fill-rule="evenodd" clip-rule="evenodd" d="M153.005 360.674C149.699 360.905 147.207 363.772 147.438 367.078L148.694 385.034C148.925 388.34 151.792 390.832 155.098 390.601L166.396 389.811C168.777 389.645 170.995 388.539 172.561 386.737L175.969 382.816C177.535 381.015 178.322 378.665 178.155 376.284L177.365 364.985C177.134 361.68 174.267 359.187 170.961 359.419L153.005 360.674Z" fill="#FFDB65"/>
<path fill-rule="evenodd" clip-rule="evenodd" d="M178.411 380.007C178.321 379.419 177.793 378.99 177.19 379.032L170.284 379.515C169.224 379.589 168.425 380.508 168.499 381.567L168.982 388.473C169.025 389.077 169.524 389.539 170.118 389.547L178.411 380.007Z" fill="#FFB114"/>
<path d="M231.838 166.075C233.29 164.319 233.745 161.745 232.381 159.413L232.03 158.814C233.355 157.79 234.231 156.205 234.293 154.401C234.293 154.401 234.293 154.401 234.293 154.401L234.213 154.398C234.242 154.338 234.27 154.277 234.296 154.216M231.838 166.075L233.993 152.344C234.192 152.937 234.298 153.568 234.296 154.216M231.838 166.075C231.939 166.843 231.887 167.644 231.66 168.436L227.489 182.981C227.261 183.777 226.878 184.486 226.383 185.086C226.485 185.857 226.434 186.661 226.206 187.457L225.885 188.576C224.998 191.67 221.771 193.459 218.677 192.571L166.844 177.709C162.313 182.933 154.757 185.141 147.538 183.071C140.314 180.999 135.082 175.124 134.007 168.293L82.1736 153.43C79.0796 152.543 77.2906 149.315 78.1778 146.221L78.4986 145.102C78.7267 144.307 79.1096 143.598 79.6051 142.998C79.5026 142.227 79.5538 141.422 79.7819 140.627L83.9528 126.081C84.1799 125.289 84.5604 124.583 85.0528 123.985C84.7524 121.727 85.7303 119.303 88.1229 118.048L88.7379 117.726C88.157 116.155 88.2539 114.347 89.1577 112.784L89.2265 112.824L89.1577 112.784C89.1885 112.731 89.2201 112.678 89.2524 112.626C89.5154 110.848 90.5887 109.149 92.4761 108.235L111.055 99.2443L112.579 102.395L111.055 99.2443C112.689 98.4532 114.599 98.4693 116.22 99.2876L163.439 123.126C163.833 123.325 164.195 123.563 164.523 123.834C164.945 123.778 165.379 123.768 165.818 123.808L218.495 128.614C220.303 128.779 221.931 129.778 222.898 131.315L233.889 148.785C235.005 150.56 235.015 152.569 234.296 154.216M231.614 154.309L233.27 155.809C233.649 155.391 233.967 154.914 234.213 154.398L231.614 154.309Z" fill="#E5C28A" stroke="white" stroke-width="7" stroke-linecap="round"/>
<rect x="87.959" y="124.808" width="73.33" height="19.7875" rx="2" transform="rotate(16 87.959 124.808)" fill="#F2D9B0"/>
<rect x="158.449" y="145.021" width="73.33" height="19.7875" rx="2" transform="rotate(16 158.449 145.021)" fill="#F2D9B0"/>
<path d="M156.21 144.379L90.1871 125.447C88.1682 124.869 87.8877 122.123 89.7478 121.148L107.664 111.755C108.194 111.477 108.811 111.414 109.386 111.579L161.343 126.477C162.579 126.832 163.294 128.121 162.939 129.357L159.089 142.783C158.735 144.019 157.446 144.734 156.21 144.379Z" fill="#FAF1E8"/>
<path d="M160.685 145.663L226.708 164.594C228.727 165.173 230.42 162.994 229.359 161.181L219.143 143.721C218.841 143.204 218.351 142.824 217.776 142.659L165.819 127.761C164.583 127.406 163.294 128.121 162.939 129.357L159.089 142.783C158.735 144.019 159.45 145.308 160.685 145.663Z" fill="#FAF1E8"/>
<path d="M159.503 151.836L228.876 154.215C230.743 154.279 231.921 152.229 230.927 150.649L219.936 133.178C219.549 132.565 218.899 132.166 218.177 132.1L165.5 127.294C164.387 127.192 163.359 127.896 163.051 128.97L157.345 148.868C156.928 150.324 157.99 151.784 159.503 151.836Z" fill="#FAF1E8"/>
<path fill-rule="evenodd" clip-rule="evenodd" d="M154.198 151.654C154.242 150.369 155.319 149.363 156.604 149.408L228.549 151.874C229.834 151.918 230.84 152.996 230.796 154.281C230.752 155.566 229.674 156.572 228.39 156.527L156.444 154.061C155.159 154.017 154.154 152.939 154.198 151.654Z" fill="#F2D9B0"/>
<path d="M153.942 150.242L93.8493 115.497C92.2326 114.562 92.3194 112.199 94.0005 111.386L112.579 102.395C113.232 102.079 113.995 102.085 114.642 102.412L161.862 126.251C162.859 126.754 163.358 127.896 163.05 128.97L157.345 148.868C156.927 150.324 155.253 151 153.942 150.242Z" fill="#FAF1E8"/>
<path fill-rule="evenodd" clip-rule="evenodd" d="M158.538 152.899C157.895 154.012 156.471 154.393 155.358 153.749L93.0375 117.716C91.9245 117.073 91.5439 115.649 92.1875 114.536C92.831 113.423 94.255 113.042 95.368 113.686L157.688 149.719C158.801 150.362 159.182 151.786 158.538 152.899Z" fill="#F2D9B0"/>
<path d="M166.897 170.45C164.771 177.866 156.535 182.01 148.502 179.706C140.468 177.403 135.68 169.524 137.806 162.109C139.933 154.693 148.168 150.55 156.202 152.853C164.235 155.157 169.023 163.035 166.897 170.45Z" fill="#242539"/>
<path fill-rule="evenodd" clip-rule="evenodd" d="M150.106 174.112C155.479 175.653 160.181 172.759 161.303 168.846C162.425 164.934 159.971 159.988 154.598 158.447C149.224 156.907 144.523 159.801 143.401 163.713C142.279 167.625 144.732 172.571 150.106 174.112ZM148.502 179.706C156.535 182.01 164.771 177.866 166.897 170.45C169.023 163.035 164.235 155.157 156.202 152.853C148.168 150.55 139.933 154.693 137.806 162.109C135.68 169.524 140.468 177.403 148.502 179.706Z" fill="white"/>
<path fill-rule="evenodd" clip-rule="evenodd" d="M81.8622 146.067C82.2166 144.831 83.5058 144.117 84.7417 144.471L141.804 160.833C143.04 161.188 143.755 162.477 143.401 163.713C142.16 168.038 145.162 172.694 150.106 174.112C155.049 175.529 160.062 173.172 161.303 168.846C161.657 167.61 162.946 166.896 164.182 167.25L221.245 183.613C222.481 183.967 223.195 185.256 222.841 186.492L222.52 187.611C222.166 188.847 220.877 189.561 219.641 189.207L165.476 173.676C162.201 179.004 155.279 181.65 148.502 179.706C141.724 177.763 137.256 171.851 137.302 165.597L83.1375 150.065C81.9016 149.711 81.187 148.422 81.5414 147.186L81.8622 146.067Z" fill="#404164"/>
<path d="M178.498 156.814L197.196 162.176" stroke="#E5C28A" stroke-width="4" stroke-linecap="round"/>
<path d="M95.6934 133.07L114.391 138.432" stroke="#E5C28A" stroke-width="4" stroke-linecap="round"/>
<path d="M198.906 171.338L217.604 176.7" stroke="#E5C28A" stroke-width="4" stroke-linecap="round"/>
<path d="M116.1 147.594L134.798 152.956" stroke="#E5C28A" stroke-width="4" stroke-linecap="round"/>
<mask id="path-41-outside-7_8529_69501" maskUnits="userSpaceOnUse" x="150.017" y="190.197" width="152.17" height="149.089" fill="black">
<rect fill="white" x="150.017" y="190.197" width="152.17" height="149.089"/>
<path fill-rule="evenodd" clip-rule="evenodd" d="M169.465 227.487C160.928 238.797 163.17 254.884 174.468 263.43L174.479 263.439L174.489 263.447C175.819 264.451 178.817 262.978 182.567 259.797C180.436 267.039 180.023 274.899 181.702 282.802C184.04 293.797 190.046 303.071 198.167 309.613L194.768 314.847C193.565 316.699 194.092 319.177 195.944 320.38C197.797 321.583 200.274 321.057 201.478 319.204L204.8 314.088C214.383 319.432 225.87 321.463 237.446 319.002C249.392 316.463 259.306 309.593 265.892 300.386L271.649 304.124C273.501 305.327 275.979 304.801 277.182 302.948C278.385 301.095 277.858 298.618 276.006 297.415L269.983 293.503C274.38 284.432 275.905 273.883 273.647 263.258C271.88 254.946 268.016 247.618 262.728 241.71C268.484 243.655 272.659 244.04 273.575 242.385L252.979 230.991L252.984 230.982L273.583 242.369C280.435 229.965 275.94 214.353 263.538 207.492C251.131 200.627 235.509 205.121 228.645 217.528L228.645 217.528C227.707 219.224 230.403 222.682 235.335 226.647C229.709 225.716 223.818 225.801 217.903 227.058C212.635 228.177 207.763 230.139 203.397 232.772C205.14 229.256 206.12 226.332 206.135 224.446C206.138 224.135 206.114 223.852 206.063 223.599C205.961 223.094 205.751 222.71 205.424 222.463L205.424 222.463C194.107 213.921 178.008 216.17 169.465 227.487ZM228.645 217.528L247.731 228.078L247.728 228.085L228.645 217.528Z"/>
</mask>
<path fill-rule="evenodd" clip-rule="evenodd" d="M169.465 227.487C160.928 238.797 163.17 254.884 174.468 263.43L174.479 263.439L174.489 263.447C175.819 264.451 178.817 262.978 182.567 259.797C180.436 267.039 180.023 274.899 181.702 282.802C184.04 293.797 190.046 303.071 198.167 309.613L194.768 314.847C193.565 316.699 194.092 319.177 195.944 320.38C197.797 321.583 200.274 321.057 201.478 319.204L204.8 314.088C214.383 319.432 225.87 321.463 237.446 319.002C249.392 316.463 259.306 309.593 265.892 300.386L271.649 304.124C273.501 305.327 275.979 304.801 277.182 302.948C278.385 301.095 277.858 298.618 276.006 297.415L269.983 293.503C274.38 284.432 275.905 273.883 273.647 263.258C271.88 254.946 268.016 247.618 262.728 241.71C268.484 243.655 272.659 244.04 273.575 242.385L252.979 230.991L252.984 230.982L273.583 242.369C280.435 229.965 275.94 214.353 263.538 207.492C251.131 200.627 235.509 205.121 228.645 217.528L228.645 217.528C227.707 219.224 230.403 222.682 235.335 226.647C229.709 225.716 223.818 225.801 217.903 227.058C212.635 228.177 207.763 230.139 203.397 232.772C205.14 229.256 206.12 226.332 206.135 224.446C206.138 224.135 206.114 223.852 206.063 223.599C205.961 223.094 205.751 222.71 205.424 222.463L205.424 222.463C194.107 213.921 178.008 216.17 169.465 227.487ZM228.645 217.528L247.731 228.078L247.728 228.085L228.645 217.528Z" fill="#37383D"/>
<path d="M230.338 214.465C228.646 213.53 226.517 214.143 225.582 215.835C224.647 217.526 225.26 219.656 226.952 220.591L230.338 214.465ZM246.038 231.142C247.73 232.077 249.859 231.463 250.794 229.772C251.73 228.08 251.116 225.95 249.425 225.015L246.038 231.142ZM226.952 220.591L246.038 231.142L249.425 225.015L230.338 214.465L226.952 220.591ZM174.468 263.43L178.779 257.915L178.735 257.881L178.691 257.848L174.468 263.43ZM169.465 227.487L163.878 223.27L169.465 227.487ZM174.479 263.439L170.169 268.954L170.2 268.979L170.232 269.003L174.479 263.439ZM174.489 263.447L170.242 269.011L170.257 269.022L170.272 269.034L174.489 263.447ZM182.567 259.797L189.282 261.773L195.893 239.313L178.039 254.459L182.567 259.797ZM198.167 309.613L204.037 313.426L207.479 308.126L202.558 304.162L198.167 309.613ZM194.768 314.847L188.897 311.034L188.897 311.034L194.768 314.847ZM195.944 320.38L192.132 326.251L192.132 326.251L195.944 320.38ZM201.478 319.204L207.348 323.016L207.348 323.016L201.478 319.204ZM204.8 314.088L208.209 307.974L202.494 304.787L198.929 310.275L204.8 314.088ZM265.892 300.386L269.705 294.515L264.093 290.871L260.199 296.313L265.892 300.386ZM271.649 304.124L267.836 309.995L267.836 309.995L271.649 304.124ZM277.182 302.948L283.053 306.761L283.053 306.761L277.182 302.948ZM276.006 297.415L279.818 291.544L279.818 291.544L276.006 297.415ZM269.983 293.503L263.684 290.45L260.989 296.009L266.17 299.374L269.983 293.503ZM262.728 241.71L264.969 235.078L239.777 226.567L257.512 246.379L262.728 241.71ZM273.575 242.385L279.7 245.774L283.088 239.649L276.963 236.26L273.575 242.385ZM252.979 230.991L246.779 227.74L243.601 233.802L249.59 237.116L252.979 230.991ZM252.984 230.982L256.37 224.856L250.107 221.393L246.784 227.732L252.984 230.982ZM273.583 242.369L270.197 248.495L276.325 251.883L279.711 245.754L273.583 242.369ZM263.538 207.492L266.927 201.366L266.927 201.366L263.538 207.492ZM228.645 217.528L222.52 214.139L220.786 217.273L222.313 220.513L228.645 217.528ZM235.335 226.647L234.193 233.553L260.523 237.909L239.721 221.19L235.335 226.647ZM203.397 232.772L197.126 229.662L186.467 251.154L207.011 238.766L203.397 232.772ZM206.135 224.446L213.135 224.504L213.135 224.504L206.135 224.446ZM206.063 223.599L199.201 224.981L199.201 224.982L206.063 223.599ZM205.424 222.463L199.699 218.436L195.805 223.973L201.207 228.051L205.424 222.463ZM205.424 222.463L211.15 226.49L215.044 220.954L209.642 216.876L205.424 222.463ZM247.731 228.078L253.931 231.329L257.11 225.265L251.118 221.952L247.731 228.078ZM247.728 228.085L244.339 234.21L250.603 237.676L253.927 231.335L247.728 228.085ZM178.691 257.848C170.473 251.631 168.843 239.931 175.053 231.705L163.878 223.27C153.014 237.664 155.866 258.136 170.245 269.013L178.691 257.848ZM178.79 257.923L178.779 257.915L170.158 268.946L170.169 268.954L178.79 257.923ZM178.737 257.882L178.727 257.875L170.232 269.003L170.242 269.011L178.737 257.882ZM178.039 254.459C176.374 255.871 175.241 256.579 174.683 256.838C174.398 256.97 174.599 256.825 175.169 256.774C175.794 256.719 177.254 256.763 178.707 257.86L170.272 269.034C172.389 270.632 174.724 270.868 176.402 270.72C178.025 270.577 179.459 270.053 180.559 269.545C182.769 268.523 185.01 266.904 187.096 265.135L178.039 254.459ZM188.549 281.346C187.117 274.609 187.471 267.928 189.282 261.773L175.852 257.821C173.4 266.15 172.928 275.19 174.855 284.257L188.549 281.346ZM202.558 304.162C195.645 298.593 190.54 290.711 188.549 281.346L174.855 284.257C177.539 296.884 184.446 307.549 193.775 315.065L202.558 304.162ZM200.639 318.659L204.037 313.426L192.296 305.801L188.897 311.034L200.639 318.659ZM199.757 314.509C201.146 315.412 201.541 317.27 200.639 318.659L188.897 311.034C185.589 316.129 187.037 322.942 192.132 326.251L199.757 314.509ZM195.607 315.391C196.509 314.002 198.367 313.607 199.757 314.509L192.132 326.251C197.227 329.559 204.039 328.111 207.348 323.016L195.607 315.391ZM198.929 310.275L195.607 315.391L207.348 323.016L210.671 317.9L198.929 310.275ZM235.991 312.155C226.134 314.25 216.37 312.525 208.209 307.974L201.391 320.201C212.397 326.339 225.606 328.675 238.902 325.849L235.991 312.155ZM260.199 296.313C254.589 304.155 246.162 309.993 235.991 312.155L238.902 325.849C252.623 322.933 264.022 315.032 271.585 304.459L260.199 296.313ZM275.461 298.253L269.705 294.515L262.08 306.257L267.836 309.995L275.461 298.253ZM271.311 299.136C272.214 297.746 274.072 297.351 275.461 298.253L267.836 309.995C272.931 313.304 279.744 311.856 283.053 306.761L271.311 299.136ZM272.193 303.285C270.804 302.383 270.409 300.525 271.311 299.136L283.053 306.761C286.361 301.665 284.913 294.853 279.818 291.544L272.193 303.285ZM266.17 299.374L272.193 303.285L279.818 291.544L273.795 287.633L266.17 299.374ZM266.8 264.714C268.723 273.763 267.427 282.729 263.684 290.45L276.281 296.557C281.334 286.135 283.087 274.003 280.494 261.803L266.8 264.714ZM257.512 246.379C262.008 251.401 265.293 257.628 266.8 264.714L280.494 261.803C278.466 252.264 274.025 243.835 267.943 237.041L257.512 246.379ZM267.45 238.997C268.455 237.179 270.003 236.623 270.463 236.498C270.908 236.376 270.992 236.453 270.459 236.415C269.434 236.343 267.594 235.965 264.969 235.078L260.487 248.342C263.618 249.4 266.743 250.188 269.474 250.38C270.819 250.475 272.478 250.459 274.143 250.005C275.824 249.547 278.236 248.419 279.7 245.774L267.45 238.997ZM249.59 237.116L270.186 248.51L276.963 236.26L256.368 224.866L249.59 237.116ZM246.784 227.732L246.779 227.74L259.179 234.241L259.183 234.232L246.784 227.732ZM276.97 236.243L256.37 224.856L249.597 237.108L270.197 248.495L276.97 236.243ZM260.15 213.617C269.17 218.607 272.439 229.962 267.456 238.985L279.711 245.754C288.431 229.967 282.71 210.098 266.927 201.366L260.15 213.617ZM234.77 220.916C239.763 211.892 251.126 208.624 260.15 213.617L266.927 201.366C251.137 192.631 231.255 198.349 222.52 214.139L234.77 220.916ZM234.977 214.543L234.976 214.543L222.313 220.513L222.313 220.513L234.977 214.543ZM239.721 221.19C237.462 219.375 236.067 217.945 235.398 217.05C235.05 216.584 235.143 216.582 235.274 216.997C235.407 217.416 235.802 219.052 234.77 220.917L222.52 214.139C221.019 216.852 221.399 219.556 221.928 221.225C222.455 222.888 223.353 224.317 224.179 225.423C225.857 227.672 228.276 229.954 230.95 232.103L239.721 221.19ZM219.358 233.905C224.405 232.832 229.415 232.762 234.193 233.553L236.478 219.74C230.004 218.669 223.231 218.769 216.447 220.211L219.358 233.905ZM207.011 238.766C210.719 236.531 214.863 234.86 219.358 233.905L216.447 220.211C210.407 221.495 204.807 223.748 199.782 226.777L207.011 238.766ZM199.135 224.389C199.136 224.292 199.129 224.708 198.767 225.801C198.434 226.811 197.896 228.109 197.126 229.662L209.668 235.882C211.455 232.278 213.105 228.111 213.135 224.504L199.135 224.389ZM199.201 224.982C199.138 224.667 199.135 224.455 199.135 224.389L213.135 224.504C213.141 223.815 213.091 223.037 212.925 222.217L199.201 224.982ZM201.207 228.051C199.783 226.975 199.328 225.612 199.201 224.981L212.925 222.217C212.595 220.576 211.719 218.445 209.642 216.876L201.207 228.051ZM199.699 218.436L199.699 218.436L211.15 226.491L211.15 226.49L199.699 218.436ZM175.053 231.705C181.266 223.473 192.976 221.837 201.207 228.05L209.642 216.876C195.239 206.005 174.75 208.867 163.878 223.27L175.053 231.705ZM251.118 221.952L232.031 211.402L225.258 223.654L244.345 234.205L251.118 221.952ZM253.927 231.335L253.931 231.329L241.531 224.828L241.528 224.835L253.927 231.335ZM225.256 223.653L244.339 234.21L251.116 221.96L232.034 211.403L225.256 223.653Z" fill="white" mask="url(#path-41-outside-7_8529_69501)"/>
<path d="M263.537 207.491C275.944 214.356 280.437 229.978 273.573 242.385L228.643 217.528C235.508 205.121 251.13 200.627 263.537 207.491Z" fill="#ED4C4C"/>
<path d="M169.466 227.487C160.923 238.804 163.172 254.904 174.49 263.446L205.425 222.463C194.107 213.921 178.008 216.17 169.466 227.487Z" fill="#ED4C4C"/>
<path d="M228.644 217.528C227.06 220.391 235.834 228.277 248.241 235.141C260.648 242.005 271.99 245.249 273.574 242.385C276.652 236.822 231.744 211.923 228.644 217.528Z" fill="#D34444"/>
<path d="M205.423 222.464C208.035 224.435 203.227 235.207 194.684 246.524C186.142 257.842 177.1 265.418 174.488 263.447C169.413 259.616 200.311 218.605 205.423 222.464Z" fill="#D34444"/>
<mask id="mask0_8529_69501" style="mask-type:alpha" maskUnits="userSpaceOnUse" x="228" y="216" width="46" height="28">
<path d="M228.644 217.528C227.06 220.391 235.834 228.277 248.241 235.141C260.648 242.005 271.99 245.249 273.574 242.385C276.652 236.822 231.744 211.923 228.644 217.528Z" fill="#D34444"/>
</mask>
<g mask="url(#mask0_8529_69501)">
<path fill-rule="evenodd" clip-rule="evenodd" d="M256.927 216.99C258.87 218.008 259.62 220.408 258.602 222.351L253.006 233.029C251.988 234.972 249.588 235.722 247.645 234.704C245.702 233.686 244.952 231.285 245.97 229.342L251.566 218.664C252.584 216.722 254.984 215.972 256.927 216.99Z" fill="#414387"/>
</g>
<mask id="mask1_8529_69501" style="mask-type:alpha" maskUnits="userSpaceOnUse" x="173" y="222" width="34" height="42">
<path d="M205.423 222.464C208.035 224.435 203.227 235.207 194.684 246.524C186.142 257.842 177.1 265.418 174.488 263.447C169.413 259.616 200.311 218.605 205.423 222.464Z" fill="#D34444"/>
</mask>
<g mask="url(#mask1_8529_69501)">
<path fill-rule="evenodd" clip-rule="evenodd" d="M179.366 233.476C178.006 235.196 178.297 237.694 180.017 239.055L189.472 246.534C191.192 247.895 193.69 247.604 195.051 245.883C196.412 244.163 196.121 241.665 194.4 240.304L184.945 232.825C183.225 231.464 180.727 231.756 179.366 233.476Z" fill="#414387"/>
</g>
<path fill-rule="evenodd" clip-rule="evenodd" d="M205.332 305.922C207.785 307.515 208.482 310.795 206.889 313.247L202.563 319.909C200.97 322.362 197.69 323.06 195.237 321.467C192.784 319.874 192.087 316.594 193.68 314.141L198.007 307.479C199.599 305.026 202.879 304.329 205.332 305.922Z" fill="#D5D5D5"/>
<path fill-rule="evenodd" clip-rule="evenodd" d="M262.723 293.559C264.316 291.106 267.596 290.409 270.049 292.002L276.711 296.328C279.164 297.921 279.861 301.201 278.268 303.654C276.675 306.107 273.395 306.804 270.942 305.211L264.28 300.884C261.827 299.291 261.13 296.012 262.723 293.559Z" fill="#D5D5D5"/>
<circle cx="227.674" cy="273.03" r="46.9992" transform="rotate(-12 227.674 273.03)" fill="#ED4C4C"/>
<circle cx="227.674" cy="273.03" r="33.76" transform="rotate(-12 227.674 273.03)" fill="white"/>
<path fill-rule="evenodd" clip-rule="evenodd" d="M228.118 256.017C227.738 254.229 225.981 253.087 224.193 253.467C222.405 253.848 221.263 255.605 221.643 257.393L224.946 272.933C225.122 273.762 225.615 274.523 226.381 275.021L246.367 288C247.9 288.995 249.95 288.56 250.946 287.027C251.941 285.494 251.506 283.444 249.972 282.448L231.136 270.216L228.118 256.017Z" fill="#37383D"/>
<mask id="path-56-outside-8_8529_69501" maskUnits="userSpaceOnUse" x="105" y="196" width="49" height="64" fill="black">
<rect fill="white" x="105" y="196" width="49" height="64"/>
<path d="M123.069 254C122.787 254 122.509 253.937 122.253 253.814C121.998 253.692 121.772 253.513 121.59 253.291C121.409 253.069 121.277 252.808 121.204 252.528C121.131 252.247 121.118 251.954 121.167 251.668V251.656L124.121 234.935H112.682C112.364 234.935 112.053 234.842 111.785 234.667C111.516 234.493 111.301 234.243 111.164 233.948C111.027 233.653 110.974 233.324 111.012 232.999C111.049 232.674 111.174 232.366 111.374 232.112L134.412 202.762C134.674 202.419 135.038 202.174 135.448 202.064C135.859 201.954 136.292 201.986 136.683 202.155C137.074 202.323 137.401 202.619 137.613 202.997C137.826 203.374 137.912 203.814 137.86 204.247C137.86 204.279 137.851 204.311 137.846 204.343L134.881 221.069H146.318C146.636 221.069 146.947 221.162 147.215 221.336C147.484 221.511 147.699 221.76 147.836 222.055C147.973 222.351 148.026 222.68 147.988 223.005C147.951 223.33 147.826 223.637 147.626 223.892L124.585 253.242C124.404 253.477 124.173 253.668 123.911 253.799C123.649 253.931 123.361 253.999 123.069 254Z"/>
</mask>
<path d="M123.069 254C122.787 254 122.509 253.937 122.253 253.814C121.998 253.692 121.772 253.513 121.59 253.291C121.409 253.069 121.277 252.808 121.204 252.528C121.131 252.247 121.118 251.954 121.167 251.668V251.656L124.121 234.935H112.682C112.364 234.935 112.053 234.842 111.785 234.667C111.516 234.493 111.301 234.243 111.164 233.948C111.027 233.653 110.974 233.324 111.012 232.999C111.049 232.674 111.174 232.366 111.374 232.112L134.412 202.762C134.674 202.419 135.038 202.174 135.448 202.064C135.859 201.954 136.292 201.986 136.683 202.155C137.074 202.323 137.401 202.619 137.613 202.997C137.826 203.374 137.912 203.814 137.86 204.247C137.86 204.279 137.851 204.311 137.846 204.343L134.881 221.069H146.318C146.636 221.069 146.947 221.162 147.215 221.336C147.484 221.511 147.699 221.76 147.836 222.055C147.973 222.351 148.026 222.68 147.988 223.005C147.951 223.33 147.826 223.637 147.626 223.892L124.585 253.242C124.404 253.477 124.173 253.668 123.911 253.799C123.649 253.931 123.361 253.999 123.069 254Z" fill="#ED6D4C"/>
<path d="M121.167 251.668L127.082 252.674L127.167 252.174V251.668H121.167ZM121.167 251.656L115.258 250.612L115.167 251.13V251.656H121.167ZM124.121 234.935L130.03 235.979L131.274 228.935H124.121V234.935ZM112.682 234.935L112.681 240.935H112.682V234.935ZM111.374 232.112L106.654 228.407L106.654 228.408L111.374 232.112ZM134.412 202.762L139.132 206.467L139.155 206.436L139.179 206.406L134.412 202.762ZM137.86 204.247L131.904 203.523L131.86 203.884V204.247H137.86ZM137.846 204.343L143.754 205.391L143.762 205.346L143.769 205.301L137.846 204.343ZM134.881 221.069L128.973 220.021L127.724 227.069H134.881V221.069ZM146.318 221.069L146.319 215.069H146.318V221.069ZM147.626 223.892L152.345 227.597L152.346 227.596L147.626 223.892ZM124.585 253.242L119.865 249.537L119.846 249.562L119.826 249.587L124.585 253.242ZM123.064 248C123.687 247.999 124.296 248.14 124.847 248.404L119.659 259.225C120.722 259.734 121.888 260.001 123.074 260L123.064 248ZM124.847 248.404C125.398 248.668 125.87 249.046 126.239 249.498L116.941 257.084C117.673 257.981 118.598 258.716 119.659 259.225L124.847 248.404ZM126.239 249.498C126.608 249.95 126.867 250.468 127.009 251.012L115.398 254.043C115.687 255.148 116.209 256.187 116.941 257.084L126.239 249.498ZM127.009 251.012C127.151 251.556 127.175 252.122 127.082 252.674L115.251 250.662C115.06 251.785 115.11 252.938 115.398 254.043L127.009 251.012ZM127.167 251.668V251.656H115.167V251.668H127.167ZM127.075 252.7L130.03 235.979L118.213 233.891L115.258 250.612L127.075 252.7ZM124.121 228.935H112.682V240.935H124.121V228.935ZM112.682 228.935C113.536 228.935 114.359 229.185 115.055 229.637L108.514 239.698C109.747 240.499 111.192 240.934 112.681 240.935L112.682 228.935ZM115.055 229.637C115.748 230.088 116.279 230.715 116.608 231.426L105.72 236.47C106.323 237.772 107.284 238.898 108.514 239.698L115.055 229.637ZM116.608 231.426C116.937 232.136 117.06 232.916 116.973 233.68L105.05 232.317C104.889 233.731 105.117 235.169 105.72 236.47L116.608 231.426ZM116.973 233.68C116.885 234.445 116.588 235.186 116.094 235.815L106.654 228.408C105.761 229.546 105.212 230.903 105.05 232.317L116.973 233.68ZM116.094 235.816L139.132 206.467L129.692 199.057L106.654 228.407L116.094 235.816ZM139.179 206.406C138.651 207.097 137.892 207.622 136.998 207.86L133.899 196.268C132.185 196.726 130.698 197.741 129.645 199.118L139.179 206.406ZM136.998 207.86C136.102 208.1 135.154 208.029 134.31 207.665L139.057 196.644C137.431 195.944 135.616 195.809 133.899 196.268L136.998 207.86ZM134.31 207.665C133.469 207.303 132.803 206.683 132.383 205.937L142.844 200.056C141.999 198.554 140.68 197.343 139.057 196.644L134.31 207.665ZM132.383 205.937C131.965 205.194 131.803 204.348 131.904 203.523L143.816 204.971C144.021 203.279 143.686 201.555 142.844 200.056L132.383 205.937ZM131.86 204.247C131.86 203.764 131.922 203.393 131.942 203.274C131.952 203.218 131.963 203.163 131.956 203.197C131.954 203.207 131.939 203.287 131.923 203.385L143.769 205.301C143.762 205.346 143.756 205.382 143.751 205.404C143.749 205.416 143.748 205.425 143.747 205.431C143.745 205.437 143.745 205.441 143.745 205.441C143.741 205.459 143.755 205.388 143.767 205.316C143.793 205.165 143.86 204.763 143.86 204.247H131.86ZM131.938 203.296L128.973 220.021L140.789 222.116L143.754 205.391L131.938 203.296ZM134.881 227.069H146.318V215.069H134.881V227.069ZM146.318 227.069C145.464 227.069 144.641 226.819 143.945 226.367L150.486 216.306C149.253 215.504 147.808 215.069 146.319 215.069L146.318 227.069ZM143.945 226.367C143.252 225.916 142.721 225.289 142.392 224.577L153.28 219.534C152.677 218.232 151.716 217.106 150.486 216.306L143.945 226.367ZM142.392 224.577C142.063 223.867 141.94 223.088 142.027 222.323L153.95 223.687C154.111 222.272 153.883 220.834 153.28 219.534L142.392 224.577ZM142.027 222.323C142.115 221.559 142.412 220.817 142.906 220.188L152.346 227.596C153.239 226.457 153.788 225.101 153.95 223.687L142.027 222.323ZM142.907 220.187L119.865 249.537L129.304 256.947L152.345 227.597L142.907 220.187ZM119.826 249.587C120.191 249.112 120.666 248.714 121.227 248.433L126.595 259.165C127.681 258.622 128.617 257.842 129.343 256.896L119.826 249.587ZM121.227 248.433C121.788 248.153 122.413 248.002 123.053 248L123.085 260C124.309 259.997 125.509 259.709 126.595 259.165L121.227 248.433Z" fill="white" mask="url(#path-56-outside-8_8529_69501)"/>
<mask id="path-58-outside-9_8529_69501" maskUnits="userSpaceOnUse" x="73.6515" y="169.519" width="47.6449" height="54.0089" fill="black">
<rect fill="white" x="73.6515" y="169.519" width="47.6449" height="54.0089"/>
<path d="M97.3597 213.53C97.1796 213.578 96.9911 213.587 96.8074 213.554C96.6237 213.522 96.4493 213.45 96.2964 213.343C96.1435 213.236 96.0159 213.097 95.9225 212.936C95.8291 212.775 95.7722 212.595 95.7557 212.409L95.7537 212.401L94.8633 201.522L87.5497 203.482C87.3467 203.536 87.1325 203.532 86.9317 203.47C86.731 203.407 86.552 203.289 86.4155 203.13C86.279 202.97 86.1904 202.775 86.1602 202.567C86.1299 202.359 86.1591 202.146 86.2445 201.954L96.0943 179.8C96.205 179.543 96.397 179.328 96.641 179.19C96.885 179.052 97.1676 178.997 97.4455 179.034C97.7235 179.072 97.9815 179.2 98.1801 179.398C98.3788 179.596 98.5071 179.853 98.5454 180.131C98.5508 180.151 98.5507 180.172 98.5527 180.193L99.4372 191.077L106.749 189.118C106.952 189.063 107.167 189.068 107.367 189.13C107.568 189.192 107.747 189.31 107.884 189.47C108.02 189.63 108.109 189.825 108.139 190.033C108.169 190.241 108.14 190.453 108.055 190.645L98.2027 212.8C98.1262 212.977 98.0106 213.135 97.8647 213.261C97.7187 213.387 97.5461 213.479 97.3597 213.53Z"/>
</mask>
<path d="M97.3597 213.53C97.1796 213.578 96.9911 213.587 96.8074 213.554C96.6237 213.522 96.4493 213.45 96.2964 213.343C96.1435 213.236 96.0159 213.097 95.9225 212.936C95.8291 212.775 95.7722 212.595 95.7557 212.409L95.7537 212.401L94.8633 201.522L87.5497 203.482C87.3467 203.536 87.1325 203.532 86.9317 203.47C86.731 203.407 86.552 203.289 86.4155 203.13C86.279 202.97 86.1904 202.775 86.1602 202.567C86.1299 202.359 86.1591 202.146 86.2445 201.954L96.0943 179.8C96.205 179.543 96.397 179.328 96.641 179.19C96.885 179.052 97.1676 178.997 97.4455 179.034C97.7235 179.072 97.9815 179.2 98.1801 179.398C98.3788 179.596 98.5071 179.853 98.5454 180.131C98.5508 180.151 98.5507 180.172 98.5527 180.193L99.4372 191.077L106.749 189.118C106.952 189.063 107.167 189.068 107.367 189.13C107.568 189.192 107.747 189.31 107.884 189.47C108.02 189.63 108.109 189.825 108.139 190.033C108.169 190.241 108.14 190.453 108.055 190.645L98.2027 212.8C98.1262 212.977 98.0106 213.135 97.8647 213.261C97.7187 213.387 97.5461 213.479 97.3597 213.53Z" fill="#ED6D4C"/>
<path d="M95.7557 212.409L101.732 211.88L101.686 211.36L101.551 210.856L95.7557 212.409ZM95.7537 212.401L89.7737 212.891L89.8179 213.431L89.9582 213.954L95.7537 212.401ZM94.8633 201.522L100.843 201.033L100.257 193.865L93.3104 195.726L94.8633 201.522ZM87.5497 203.482L89.102 209.277L89.1026 209.277L87.5497 203.482ZM86.2445 201.954L80.7619 199.517L80.7614 199.518L86.2445 201.954ZM96.0943 179.8L101.577 182.238L101.593 182.202L101.608 182.167L96.0943 179.8ZM98.5454 180.131L92.6018 180.952L92.653 181.322L92.7499 181.684L98.5454 180.131ZM98.5527 180.193L104.533 179.707L104.529 179.661L104.525 179.614L98.5527 180.193ZM99.4372 191.077L93.4569 191.563L94.0397 198.735L100.99 196.873L99.4372 191.077ZM106.749 189.118L105.197 183.322L105.196 183.322L106.749 189.118ZM108.055 190.645L113.537 193.083L113.538 193.081L108.055 190.645ZM98.2027 212.8L92.7204 210.362L92.7073 210.391L92.6945 210.421L98.2027 212.8ZM95.8019 207.736C96.4678 207.556 97.1648 207.525 97.844 207.645L95.7708 219.464C96.8174 219.648 97.8915 219.6 98.9176 219.324L95.8019 207.736ZM97.844 207.645C98.5232 207.764 99.1681 208.03 99.7333 208.425L92.8595 218.261C93.7305 218.87 94.7242 219.281 95.7708 219.464L97.844 207.645ZM99.7333 208.425C100.299 208.82 100.77 209.334 101.116 209.931L90.7292 215.941C91.2614 216.861 91.9885 217.653 92.8595 218.261L99.7333 208.425ZM101.116 209.931C101.461 210.528 101.672 211.193 101.732 211.88L89.7791 212.938C89.8727 213.996 90.1971 215.021 90.7292 215.941L101.116 209.931ZM101.551 210.856L101.549 210.849L89.9582 213.954L89.9602 213.962L101.551 210.856ZM101.734 211.912L100.843 201.033L88.8833 202.011L89.7737 212.891L101.734 211.912ZM93.3104 195.726L85.9968 197.686L89.1026 209.277L96.4162 207.318L93.3104 195.726ZM85.9974 197.686C86.8886 197.447 87.8292 197.466 88.7104 197.739L85.1531 209.2C86.4357 209.598 87.8048 209.625 89.102 209.277L85.9974 197.686ZM88.7104 197.739C89.5916 198.013 90.3773 198.53 90.9767 199.232L81.8543 207.028C82.7268 208.049 83.8705 208.802 85.1531 209.2L88.7104 197.739ZM90.9767 199.232C91.5761 199.933 91.9648 200.79 92.0976 201.703L80.2227 203.431C80.4161 204.76 80.9818 206.007 81.8543 207.028L90.9767 199.232ZM92.0976 201.703C92.2305 202.616 92.1022 203.548 91.7275 204.391L80.7614 199.518C80.2161 200.745 80.0293 202.102 80.2227 203.431L92.0976 201.703ZM91.727 204.392L101.577 182.238L90.6118 177.363L80.7619 199.517L91.727 204.392ZM101.608 182.167C101.201 183.114 100.496 183.902 99.5994 184.41L93.6825 173.97C92.298 174.755 91.2085 175.971 90.5808 177.434L101.608 182.167ZM99.5994 184.41C98.7028 184.918 97.6645 185.118 96.6432 184.981L98.2478 173.088C96.6706 172.876 95.0671 173.185 93.6825 173.97L99.5994 184.41ZM96.6432 184.981C95.6219 184.843 94.6739 184.374 93.9441 183.647L102.416 175.148C101.289 174.025 99.825 173.301 98.2478 173.088L96.6432 184.981ZM93.9441 183.647C93.2142 182.919 92.7428 181.973 92.6018 180.952L104.489 179.31C104.271 177.734 103.543 176.272 102.416 175.148L93.9441 183.647ZM92.7499 181.684C92.6193 181.197 92.5835 180.805 92.5723 180.675C92.5671 180.614 92.5632 180.553 92.5654 180.585C92.5659 180.593 92.5712 180.674 92.5807 180.772L104.525 179.614C104.529 179.662 104.532 179.701 104.534 179.726C104.536 179.75 104.538 179.768 104.538 179.769C104.539 179.791 104.534 179.72 104.528 179.648C104.515 179.498 104.477 179.085 104.341 178.578L92.7499 181.684ZM92.5724 180.679L93.4569 191.563L105.417 190.591L104.533 179.707L92.5724 180.679ZM100.99 196.873L108.302 194.913L105.196 183.322L97.8843 185.281L100.99 196.873ZM108.302 194.913C107.41 195.152 106.47 195.134 105.589 194.86L109.146 183.4C107.863 183.001 106.494 182.975 105.197 183.322L108.302 194.913ZM105.589 194.86C104.708 194.587 103.922 194.069 103.322 193.368L112.445 185.572C111.572 184.551 110.429 183.798 109.146 183.4L105.589 194.86ZM103.322 193.368C102.723 192.667 102.334 191.81 102.201 190.897L114.076 189.169C113.883 187.84 113.317 186.593 112.445 185.572L103.322 193.368ZM102.201 190.897C102.069 189.984 102.197 189.052 102.572 188.209L113.538 193.081C114.083 191.854 114.27 190.498 114.076 189.169L102.201 190.897ZM102.572 188.207L92.7204 210.362L103.685 215.238L113.537 193.083L102.572 188.207ZM92.6945 210.421C92.9758 209.769 93.4004 209.19 93.9367 208.725L101.793 217.797C102.621 217.079 103.277 216.184 103.711 215.179L92.6945 210.421ZM93.9367 208.725C94.473 208.261 95.1072 207.924 95.792 207.738L98.9275 219.321C99.9851 219.035 100.964 218.514 101.793 217.797L93.9367 208.725Z" fill="white" mask="url(#path-58-outside-9_8529_69501)"/>
<path d="M74.8381 285.061L77.256 286.837L107.027 308.703C108.317 309.65 109.738 310.387 111.238 310.894L111.436 310.96L111.641 310.999L115.044 311.642L115.252 311.682L115.462 311.691L115.49 311.693L115.493 311.693L116.332 311.731L116.332 311.731L126.712 312.203L131.092 312.403C134.714 312.568 137.339 308.994 136.098 305.587L134.597 301.468L131.041 291.704L128.222 292.731L131.041 291.704L130.754 290.915L130.752 290.91L130.738 290.873L130.666 290.676L130.567 290.49L128.939 287.446L128.84 287.262L128.718 287.094C127.786 285.815 126.658 284.679 125.368 283.732L95.5967 261.866L93.1788 260.09L90.7609 258.314L87.3059 255.776L80.462 250.75C77.3462 248.461 72.965 249.132 70.6765 252.248L60.6233 265.936C58.3348 269.052 59.0055 273.433 62.1214 275.721L68.9653 280.748L68.9653 280.748L72.4202 283.285L74.8381 285.061Z" fill="#242539" stroke="white" stroke-width="6"/>
<path d="M78.6868 253.168C76.9063 251.86 74.4028 252.243 73.0951 254.024L63.0418 267.712C61.7341 269.492 62.1174 271.996 63.8979 273.303L70.7418 278.33L85.5307 258.194L78.6868 253.168Z" fill="#EC5686"/>
<rect width="24.9831" height="7.28674" transform="matrix(-0.591956 0.80597 0.80597 0.591956 85.5293 258.194)" fill="#414387"/>
<path d="M131.351 309.411C132.776 309.476 133.809 308.07 133.321 306.729L126.64 288.388L111.851 308.524L131.351 309.411Z" fill="#FAF1E8"/>
<path fill-rule="evenodd" clip-rule="evenodd" d="M81.543 275.931L86.4727 269.22L121.71 295.1L121.71 295.1C123.563 296.462 123.962 299.068 122.601 300.921C121.24 302.774 118.634 303.173 116.78 301.812L116.78 301.812L81.543 275.931Z" fill="#FFB202"/>
<path fill-rule="evenodd" clip-rule="evenodd" d="M86.4727 269.22L91.4023 262.508L125.176 287.313C126.13 288.014 126.856 288.982 127.261 290.095L128.221 292.731C128.095 293.249 127.867 293.752 127.531 294.209C126.17 296.062 123.564 296.462 121.71 295.1L86.4727 269.22Z" fill="#FECA26"/>
<path fill-rule="evenodd" clip-rule="evenodd" d="M76.6133 282.643L81.543 275.932L116.78 301.812C118.634 303.173 119.033 305.779 117.671 307.633C117.336 308.09 116.924 308.459 116.467 308.734L113.665 308.607C112.482 308.553 111.341 308.15 110.387 307.449L76.6133 282.643Z" fill="#FF9F00"/>
<path d="M131.351 309.411C132.776 309.476 133.809 308.07 133.321 306.729L131.779 302.495L126.849 309.207L131.351 309.411Z" fill="#242539"/>
</svg>
