<svg width="24" height="24" viewBox="0 0 24 24" fill="none" xmlns="http://www.w3.org/2000/svg">
<path fill-rule="evenodd" clip-rule="evenodd" d="M19.0208 2.8044C18.6303 2.41387 17.9971 2.41387 17.6066 2.8044L10.3052 10.1058C10.1621 10.2489 10.0658 10.4319 10.029 10.6308L9.38617 14.1021C9.25846 14.7917 9.8619 15.3952 10.5515 15.2675L14.0228 14.6246C14.2217 14.5878 14.4048 14.4915 14.5478 14.3485L21.8492 7.04704C22.2398 6.65651 22.2398 6.02335 21.8492 5.63283L19.0208 2.8044ZM6 5.41107C5.44772 5.41107 5 5.85878 5 6.41107V18C5 18.5523 5.44772 19 6 19H17.5889C18.1412 19 18.5889 18.5523 18.5889 18V13.5973C18.5889 13.045 19.0366 12.5973 19.5889 12.5973C20.1412 12.5973 20.5889 13.045 20.5889 13.5973V18C20.5889 19.6568 19.2458 21 17.5889 21H6C4.34315 21 3 19.6568 3 18V6.41107C3 4.75421 4.34315 3.41107 6 3.41107H11.7945C12.3467 3.41107 12.7945 3.85878 12.7945 4.41107C12.7945 4.96335 12.3467 5.41107 11.7945 5.41107H6Z" fill="#FF1B36"/>
</svg>
