<svg width="24" height="24" viewBox="0 0 24 24" fill="none" xmlns="http://www.w3.org/2000/svg">
<path fill-rule="evenodd" clip-rule="evenodd" d="M6.29401 14.1828C4.66634 12.199 3.98061 10.2963 4.00042 8.29946C4.01947 6.43959 5.50729 5 7.20739 5C8.45434 5 9.38062 5.69164 10.0216 6.43717L10.0282 6.44473C10.2423 6.69129 10.5069 6.889 10.804 7.0245C11.1012 7.15999 11.4239 7.23011 11.7505 7.23011C12.0771 7.23011 12.3999 7.15999 12.697 7.0245C12.9941 6.889 13.2587 6.69131 13.4729 6.44475L13.48 6.43643C14.1201 5.69125 15.0462 5 16.2936 5C17.9936 5 19.4816 6.43983 19.5006 8.30028C19.548 13.0754 15.3133 16.442 11.7509 18.8933C8.41566 16.5984 7.02303 15.071 6.29401 14.1828ZM11.961 5.13546L11.9628 5.13335C12.8016 4.15677 14.233 3 16.2936 3C19.1272 3 21.4706 5.36021 21.5005 8.2798C21.5306 11.3105 20.1895 13.7995 18.4969 15.771C16.8204 17.7239 14.689 19.2993 12.8846 20.541L12.6012 20.736C12.0891 21.0884 11.4127 21.0884 10.9006 20.736L10.6171 20.541C7.13736 18.1466 5.60344 16.4938 4.74804 15.4516C2.87274 13.166 1.97532 10.8193 2.00052 8.27962C2.03043 5.36023 4.37407 3 7.20739 3C9.26524 3 10.6954 4.1545 11.5347 5.12925L11.5382 5.13328M11.961 5.13546C11.935 5.16476 11.9031 5.1884 11.8672 5.20476C11.8306 5.22146 11.7908 5.23011 11.7505 5.23011C11.7103 5.23011 11.6705 5.22146 11.6338 5.20476C11.5972 5.18806 11.5646 5.16368 11.5382 5.13328" fill="#C2C8CC"/>
</svg>
