<svg width="24" height="24" viewBox="0 0 24 24" fill="none" xmlns="http://www.w3.org/2000/svg">
<path d="M21 19V10H3V19C3 20.1046 3.89543 21 5 21H19C20.1046 21 21 20.1046 21 19Z" fill="#E9EBED"/>
<path d="M14.5 14.5C14.5 15.8807 13.3807 17 12 17C10.6193 17 9.5 15.8807 9.5 14.5C9.5 13.1193 10.6193 12 12 12C13.3807 12 14.5 13.1193 14.5 14.5Z" fill="#C2C8CC"/>
<path d="M10.7721 2.97696L3.77212 8.4214C3.28495 8.80032 3 9.38293 3 10.0001H21C21 9.38293 20.7151 8.80032 20.2279 8.42141L13.2279 2.97696C12.5057 2.41523 11.4943 2.41523 10.7721 2.97696Z" fill="#C2C8CC"/>
</svg>
