<svg width="24" height="24" viewBox="0 0 24 24" fill="none" xmlns="http://www.w3.org/2000/svg">
<path d="M9.71429 21.8421C9.71429 21.2026 10.226 20.6842 10.8571 20.6842H13.1429C13.774 20.6842 14.2857 21.2026 14.2857 21.8421C14.2857 22.4816 13.774 23 13.1429 23H10.8571C10.226 23 9.71429 22.4816 9.71429 21.8421Z" fill="#5F6BFF"/>
<path fill-rule="evenodd" clip-rule="evenodd" d="M16.456 15.8378C15.8561 16.2462 15.4286 16.8972 15.4286 17.6294C15.4286 18.6771 14.5903 19.5263 13.5563 19.5263H10.4437C9.40965 19.5263 8.57143 18.6771 8.57143 17.6294C8.57143 16.8972 8.14389 16.2462 7.54397 15.8378C5.4065 14.3827 4 11.9104 4 9.10526C4 4.62885 7.58172 1 12 1C16.4183 1 20 4.62885 20 9.10526C20 11.9104 18.5935 14.3827 16.456 15.8378ZM9.20406 11.0468C9.42722 10.8207 9.78902 10.8207 10.0122 11.0468L10.8203 11.8655L11.6284 11.0468C11.737 10.9368 11.8846 10.8757 12.0381 10.8772C12.1915 10.8787 12.3379 10.9427 12.4443 11.0548L13.2127 11.8641L14.053 11.0387C14.2796 10.8162 14.6414 10.8219 14.8611 11.0514C15.0807 11.281 15.0751 11.6476 14.8485 11.8701L13.5962 13.1C13.4871 13.2071 13.3404 13.2658 13.1885 13.2632C13.0366 13.2605 12.892 13.1966 12.7867 13.0856L12.5715 12.859V17.2106H11.4286V12.8867L11.2244 13.0937C11.0012 13.3198 10.6394 13.3198 10.4163 13.0937L9.20406 11.8655C8.9809 11.6394 8.9809 11.2729 9.20406 11.0468Z" fill="#5F6BFF"/>
</svg>
