<svg width="24" height="24" viewBox="0 0 24 24" fill="none" xmlns="http://www.w3.org/2000/svg">
<path d="M16.415 3.42334C16.9795 2.85888 17.8946 2.85889 18.4591 3.42335L21.5767 6.54086C22.1411 7.10532 22.1411 8.0205 21.5767 8.58496L20.1607 10.0009L14.999 4.8393L16.415 3.42334Z" fill="#41D797"/>
<path d="M19.1918 10.9697L14.0301 5.80811L4.59012 15.2611C4.39581 15.4555 4.3079 15.7172 4.32497 15.9774L4.00316 19.9221C3.97978 20.2087 4.08717 20.496 4.29558 20.7044C4.50399 20.9128 4.7913 21.0202 5.0779 20.9968L9.02267 20.675C9.29586 20.693 9.55753 20.5913 9.75043 20.3984L19.1918 10.9697Z" fill="#41D797"/>
</svg>
