<svg width="24" height="24" viewBox="0 0 24 24" fill="none" xmlns="http://www.w3.org/2000/svg">
<path d="M21 19V10H3V19C3 20.1046 3.89543 21 5 21H19C20.1046 21 21 20.1046 21 19Z" fill="#A7ECCF"/>
<path d="M14.5 14.5C14.5 15.8807 13.3807 17 12 17C10.6193 17 9.5 15.8807 9.5 14.5C9.5 13.1193 10.6193 12 12 12C13.3807 12 14.5 13.1193 14.5 14.5Z" fill="#41D797"/>
<path d="M10.7721 2.97684L3.77212 8.42128C3.28495 8.80019 3 9.38281 3 9.99999H21C21 9.38281 20.7151 8.8002 20.2279 8.42128L13.2279 2.97684C12.5057 2.41511 11.4943 2.41511 10.7721 2.97684Z" fill="#41D797"/>
</svg>
