<svg width="1875" height="12" viewBox="0 0 1875 12" fill="none" xmlns="http://www.w3.org/2000/svg">
<path d="M9.86842 0.00015462L19.7368 12H0L9.86842 0.00015462Z" fill="#F3F5F6"/>
<path d="M29.6053 0L39.4737 11.9998L19.7368 12L29.6053 0Z" fill="#F3F5F6"/>
<path d="M49.3421 0L59.2105 11.9998H39.4737L49.3421 0Z" fill="#F3F5F6"/>
<path d="M69.0789 0L78.9474 11.9998H59.2105L69.0789 0Z" fill="#F3F5F6"/>
<path d="M88.8158 0L98.6842 11.9998H78.9474L88.8158 0Z" fill="#F3F5F6"/>
<path d="M108.553 0L118.421 11.9998H98.6842L108.553 0Z" fill="#F3F5F6"/>
<path d="M128.289 0L138.158 11.9998H118.421L128.289 0Z" fill="#F3F5F6"/>
<path d="M148.026 0L157.895 11.9998H138.158L148.026 0Z" fill="#F3F5F6"/>
<path d="M167.763 0L177.632 11.9998H157.895L167.763 0Z" fill="#F3F5F6"/>
<path d="M187.5 0L197.368 11.9998H177.632L187.5 0Z" fill="#F3F5F6"/>
<path d="M207.237 0L217.105 11.9998H197.368L207.237 0Z" fill="#F3F5F6"/>
<path d="M226.974 0L236.842 11.9998H217.105L226.974 0Z" fill="#F3F5F6"/>
<path d="M246.711 0L256.579 11.9998H236.842L246.711 0Z" fill="#F3F5F6"/>
<path d="M266.447 0L276.316 11.9998H256.579L266.447 0Z" fill="#F3F5F6"/>
<path d="M286.184 0L296.053 11.9998H276.316L286.184 0Z" fill="#F3F5F6"/>
<path d="M305.921 0L315.789 11.9998H296.053L305.921 0Z" fill="#F3F5F6"/>
<path d="M325.658 0L335.526 11.9998H315.789L325.658 0Z" fill="#F3F5F6"/>
<path d="M345.395 0L355.263 11.9998H335.526L345.395 0Z" fill="#F3F5F6"/>
<path d="M365.132 0L375 11.9998H355.263L365.132 0Z" fill="#F3F5F6"/>
<path d="M384.868 0.00015462L394.737 12H375L384.868 0.00015462Z" fill="#F3F5F6"/>
<path d="M404.605 0L414.474 11.9998L394.737 12L404.605 0Z" fill="#F3F5F6"/>
<path d="M424.342 0L434.211 11.9998H414.474L424.342 0Z" fill="#F3F5F6"/>
<path d="M444.079 0L453.947 11.9998H434.211L444.079 0Z" fill="#F3F5F6"/>
<path d="M463.816 0L473.684 11.9998H453.947L463.816 0Z" fill="#F3F5F6"/>
<path d="M483.553 0L493.421 11.9998H473.684L483.553 0Z" fill="#F3F5F6"/>
<path d="M503.289 0L513.158 11.9998H493.421L503.289 0Z" fill="#F3F5F6"/>
<path d="M523.026 0L532.895 11.9998H513.158L523.026 0Z" fill="#F3F5F6"/>
<path d="M542.763 0L552.632 11.9998H532.895L542.763 0Z" fill="#F3F5F6"/>
<path d="M562.5 0L572.368 11.9998H552.632L562.5 0Z" fill="#F3F5F6"/>
<path d="M582.237 0L592.105 11.9998H572.368L582.237 0Z" fill="#F3F5F6"/>
<path d="M601.974 0L611.842 11.9998H592.105L601.974 0Z" fill="#F3F5F6"/>
<path d="M621.711 0L631.579 11.9998H611.842L621.711 0Z" fill="#F3F5F6"/>
<path d="M641.447 0L651.316 11.9998H631.579L641.447 0Z" fill="#F3F5F6"/>
<path d="M661.184 0L671.053 11.9998H651.316L661.184 0Z" fill="#F3F5F6"/>
<path d="M680.921 0L690.789 11.9998H671.053L680.921 0Z" fill="#F3F5F6"/>
<path d="M700.658 0L710.526 11.9998H690.789L700.658 0Z" fill="#F3F5F6"/>
<path d="M720.395 0L730.263 11.9998H710.526L720.395 0Z" fill="#F3F5F6"/>
<path d="M740.132 0L750 11.9998H730.263L740.132 0Z" fill="#F3F5F6"/>
<path d="M759.868 0.00015462L769.737 12H750L759.868 0.00015462Z" fill="#F3F5F6"/>
<path d="M779.605 0L789.474 11.9998L769.737 12L779.605 0Z" fill="#F3F5F6"/>
<path d="M799.342 0L809.211 11.9998H789.474L799.342 0Z" fill="#F3F5F6"/>
<path d="M819.079 0L828.947 11.9998H809.211L819.079 0Z" fill="#F3F5F6"/>
<path d="M838.816 0L848.684 11.9998H828.947L838.816 0Z" fill="#F3F5F6"/>
<path d="M858.553 0L868.421 11.9998H848.684L858.553 0Z" fill="#F3F5F6"/>
<path d="M878.289 0L888.158 11.9998H868.421L878.289 0Z" fill="#F3F5F6"/>
<path d="M898.026 0L907.895 11.9998H888.158L898.026 0Z" fill="#F3F5F6"/>
<path d="M917.763 0L927.632 11.9998H907.895L917.763 0Z" fill="#F3F5F6"/>
<path d="M937.5 0L947.368 11.9998H927.632L937.5 0Z" fill="#F3F5F6"/>
<path d="M957.237 0L967.105 11.9998H947.368L957.237 0Z" fill="#F3F5F6"/>
<path d="M976.974 0L986.842 11.9998H967.105L976.974 0Z" fill="#F3F5F6"/>
<path d="M996.711 0L1006.58 11.9998H986.842L996.711 0Z" fill="#F3F5F6"/>
<path d="M1016.45 0L1026.32 11.9998H1006.58L1016.45 0Z" fill="#F3F5F6"/>
<path d="M1036.18 0L1046.05 11.9998H1026.32L1036.18 0Z" fill="#F3F5F6"/>
<path d="M1055.92 0L1065.79 11.9998H1046.05L1055.92 0Z" fill="#F3F5F6"/>
<path d="M1075.66 0L1085.53 11.9998H1065.79L1075.66 0Z" fill="#F3F5F6"/>
<path d="M1095.39 0L1105.26 11.9998H1085.53L1095.39 0Z" fill="#F3F5F6"/>
<path d="M1115.13 0L1125 11.9998H1105.26L1115.13 0Z" fill="#F3F5F6"/>
<path d="M1134.87 0.00015462L1144.74 12H1125L1134.87 0.00015462Z" fill="#F3F5F6"/>
<path d="M1154.61 0L1164.47 11.9998L1144.74 12L1154.61 0Z" fill="#F3F5F6"/>
<path d="M1174.34 0L1184.21 11.9998H1164.47L1174.34 0Z" fill="#F3F5F6"/>
<path d="M1194.08 0L1203.95 11.9998H1184.21L1194.08 0Z" fill="#F3F5F6"/>
<path d="M1213.82 0L1223.68 11.9998H1203.95L1213.82 0Z" fill="#F3F5F6"/>
<path d="M1233.55 0L1243.42 11.9998H1223.68L1233.55 0Z" fill="#F3F5F6"/>
<path d="M1253.29 0L1263.16 11.9998H1243.42L1253.29 0Z" fill="#F3F5F6"/>
<path d="M1273.03 0L1282.89 11.9998H1263.16L1273.03 0Z" fill="#F3F5F6"/>
<path d="M1292.76 0L1302.63 11.9998H1282.89L1292.76 0Z" fill="#F3F5F6"/>
<path d="M1312.5 0L1322.37 11.9998H1302.63L1312.5 0Z" fill="#F3F5F6"/>
<path d="M1332.24 0L1342.11 11.9998H1322.37L1332.24 0Z" fill="#F3F5F6"/>
<path d="M1351.97 0L1361.84 11.9998H1342.11L1351.97 0Z" fill="#F3F5F6"/>
<path d="M1371.71 0L1381.58 11.9998H1361.84L1371.71 0Z" fill="#F3F5F6"/>
<path d="M1391.45 0L1401.32 11.9998H1381.58L1391.45 0Z" fill="#F3F5F6"/>
<path d="M1411.18 0L1421.05 11.9998H1401.32L1411.18 0Z" fill="#F3F5F6"/>
<path d="M1430.92 0L1440.79 11.9998H1421.05L1430.92 0Z" fill="#F3F5F6"/>
<path d="M1450.66 0L1460.53 11.9998H1440.79L1450.66 0Z" fill="#F3F5F6"/>
<path d="M1470.39 0L1480.26 11.9998H1460.53L1470.39 0Z" fill="#F3F5F6"/>
<path d="M1490.13 0L1500 11.9998H1480.26L1490.13 0Z" fill="#F3F5F6"/>
<path d="M1509.87 0.00015462L1519.74 12H1500L1509.87 0.00015462Z" fill="#F3F5F6"/>
<path d="M1529.61 0L1539.47 11.9998L1519.74 12L1529.61 0Z" fill="#F3F5F6"/>
<path d="M1549.34 0L1559.21 11.9998H1539.47L1549.34 0Z" fill="#F3F5F6"/>
<path d="M1569.08 0L1578.95 11.9998H1559.21L1569.08 0Z" fill="#F3F5F6"/>
<path d="M1588.82 0L1598.68 11.9998H1578.95L1588.82 0Z" fill="#F3F5F6"/>
<path d="M1608.55 0L1618.42 11.9998H1598.68L1608.55 0Z" fill="#F3F5F6"/>
<path d="M1628.29 0L1638.16 11.9998H1618.42L1628.29 0Z" fill="#F3F5F6"/>
<path d="M1648.03 0L1657.89 11.9998H1638.16L1648.03 0Z" fill="#F3F5F6"/>
<path d="M1667.76 0L1677.63 11.9998H1657.89L1667.76 0Z" fill="#F3F5F6"/>
<path d="M1687.5 0L1697.37 11.9998H1677.63L1687.5 0Z" fill="#F3F5F6"/>
<path d="M1707.24 0L1717.11 11.9998H1697.37L1707.24 0Z" fill="#F3F5F6"/>
<path d="M1726.97 0L1736.84 11.9998H1717.11L1726.97 0Z" fill="#F3F5F6"/>
<path d="M1746.71 0L1756.58 11.9998H1736.84L1746.71 0Z" fill="#F3F5F6"/>
<path d="M1766.45 0L1776.32 11.9998H1756.58L1766.45 0Z" fill="#F3F5F6"/>
<path d="M1786.18 0L1796.05 11.9998H1776.32L1786.18 0Z" fill="#F3F5F6"/>
<path d="M1805.92 0L1815.79 11.9998H1796.05L1805.92 0Z" fill="#F3F5F6"/>
<path d="M1825.66 0L1835.53 11.9998H1815.79L1825.66 0Z" fill="#F3F5F6"/>
<path d="M1845.39 0L1855.26 11.9998H1835.53L1845.39 0Z" fill="#F3F5F6"/>
<path d="M1865.13 0L1875 11.9998H1855.26L1865.13 0Z" fill="#F3F5F6"/>
</svg>
