<svg width="24" height="24" viewBox="0 0 24 24" fill="none" xmlns="http://www.w3.org/2000/svg">
<path fill-rule="evenodd" clip-rule="evenodd" d="M19.0208 2.80437C18.6303 2.41384 17.9971 2.41384 17.6066 2.80437L10.3052 10.1058C10.1621 10.2488 10.0658 10.4319 10.029 10.6308L9.38617 14.1021C9.25846 14.7917 9.8619 15.3951 10.5515 15.2674L14.0228 14.6246C14.2217 14.5878 14.4048 14.4915 14.5478 14.3484L21.8492 7.04701C22.2398 6.65648 22.2398 6.02332 21.8492 5.63279L19.0208 2.80437ZM6 5.41104C5.44772 5.41104 5 5.85875 5 6.41104V18C5 18.5522 5.44772 19 6 19H17.5889C18.1412 19 18.5889 18.5522 18.5889 18V13.5973C18.5889 13.045 19.0366 12.5973 19.5889 12.5973C20.1412 12.5973 20.5889 13.045 20.5889 13.5973V18C20.5889 19.6568 19.2458 21 17.5889 21H6C4.34315 21 3 19.6568 3 18V6.41104C3 4.75418 4.34315 3.41103 6 3.41103H11.7945C12.3467 3.41103 12.7945 3.85875 12.7945 4.41103C12.7945 4.96332 12.3467 5.41104 11.7945 5.41104H6Z" fill="#5F6BFF"/>
</svg>
