<svg width="1500" height="12" viewBox="0 0 1500 12" fill="none" xmlns="http://www.w3.org/2000/svg">
<path d="M365.132 11.9998L355.263 0L375 1.74843e-06L365.132 11.9998Z" fill="#4650D7"/>
<path d="M345.395 12L335.526 0.00015462L355.263 0L345.395 12Z" fill="#4650D7"/>
<path d="M325.658 12L315.789 0.00015462H335.526L325.658 12Z" fill="#4650D7"/>
<path d="M305.921 12L296.053 0.00015462H315.789L305.921 12Z" fill="#4650D7"/>
<path d="M286.184 12L276.316 0.00015462H296.053L286.184 12Z" fill="#4650D7"/>
<path d="M266.447 12L256.579 0.00015462H276.316L266.447 12Z" fill="#4650D7"/>
<path d="M246.711 12L236.842 0.00015462H256.579L246.711 12Z" fill="#4650D7"/>
<path d="M226.974 12L217.105 0.00015462H236.842L226.974 12Z" fill="#4650D7"/>
<path d="M207.237 12L197.368 0.00015462H217.105L207.237 12Z" fill="#4650D7"/>
<path d="M187.5 12L177.632 0.00015462H197.368L187.5 12Z" fill="#4650D7"/>
<path d="M167.763 12L157.895 0.000123696L177.632 0.00015462L167.763 12Z" fill="#4650D7"/>
<path d="M148.026 12L138.158 0.000123696H157.895L148.026 12Z" fill="#4650D7"/>
<path d="M128.289 12L118.421 0.000123696H138.158L128.289 12Z" fill="#4650D7"/>
<path d="M108.553 12L98.6842 0.000123696H118.421L108.553 12Z" fill="#4650D7"/>
<path d="M88.8158 12L78.9474 0.000123696H98.6842L88.8158 12Z" fill="#4650D7"/>
<path d="M69.0789 12L59.2105 0.000123696H78.9474L69.0789 12Z" fill="#4650D7"/>
<path d="M49.3421 12L39.4737 0.000123696H59.2105L49.3421 12Z" fill="#4650D7"/>
<path d="M29.6053 12L19.7368 0.000123696H39.4737L29.6053 12Z" fill="#4650D7"/>
<path d="M9.86842 12L0 0.000123696H19.7368L9.86842 12Z" fill="#4650D7"/>
<path d="M740.132 11.9998L730.263 0L750 1.74843e-06L740.132 11.9998Z" fill="#4650D7"/>
<path d="M720.395 12L710.526 0.00015462L730.263 0L720.395 12Z" fill="#4650D7"/>
<path d="M700.658 12L690.789 0.00015462H710.526L700.658 12Z" fill="#4650D7"/>
<path d="M680.921 12L671.053 0.00015462H690.789L680.921 12Z" fill="#4650D7"/>
<path d="M661.184 12L651.316 0.00015462H671.053L661.184 12Z" fill="#4650D7"/>
<path d="M641.447 12L631.579 0.00015462H651.316L641.447 12Z" fill="#4650D7"/>
<path d="M621.711 12L611.842 0.00015462H631.579L621.711 12Z" fill="#4650D7"/>
<path d="M601.974 12L592.105 0.00015462H611.842L601.974 12Z" fill="#4650D7"/>
<path d="M582.237 12L572.368 0.00015462H592.105L582.237 12Z" fill="#4650D7"/>
<path d="M562.5 12L552.632 0.00015462H572.368L562.5 12Z" fill="#4650D7"/>
<path d="M542.763 12L532.895 0.000123696L552.632 0.00015462L542.763 12Z" fill="#4650D7"/>
<path d="M523.026 12L513.158 0.000123696H532.895L523.026 12Z" fill="#4650D7"/>
<path d="M503.289 12L493.421 0.000123696H513.158L503.289 12Z" fill="#4650D7"/>
<path d="M483.553 12L473.684 0.000123696H493.421L483.553 12Z" fill="#4650D7"/>
<path d="M463.816 12L453.947 0.000123696H473.684L463.816 12Z" fill="#4650D7"/>
<path d="M444.079 12L434.211 0.000123696H453.947L444.079 12Z" fill="#4650D7"/>
<path d="M424.342 12L414.474 0.000123696H434.211L424.342 12Z" fill="#4650D7"/>
<path d="M404.605 12L394.737 0.000123696H414.474L404.605 12Z" fill="#4650D7"/>
<path d="M384.868 12L375 0.000123696H394.737L384.868 12Z" fill="#4650D7"/>
<path d="M1115.13 11.9998L1105.26 0L1125 1.74843e-06L1115.13 11.9998Z" fill="#4650D7"/>
<path d="M1095.39 12L1085.53 0.00015462L1105.26 0L1095.39 12Z" fill="#4650D7"/>
<path d="M1075.66 12L1065.79 0.00015462H1085.53L1075.66 12Z" fill="#4650D7"/>
<path d="M1055.92 12L1046.05 0.00015462H1065.79L1055.92 12Z" fill="#4650D7"/>
<path d="M1036.18 12L1026.32 0.00015462H1046.05L1036.18 12Z" fill="#4650D7"/>
<path d="M1016.45 12L1006.58 0.00015462H1026.32L1016.45 12Z" fill="#4650D7"/>
<path d="M996.711 12L986.842 0.00015462H1006.58L996.711 12Z" fill="#4650D7"/>
<path d="M976.974 12L967.105 0.00015462H986.842L976.974 12Z" fill="#4650D7"/>
<path d="M957.237 12L947.368 0.00015462H967.105L957.237 12Z" fill="#4650D7"/>
<path d="M937.5 12L927.632 0.00015462H947.368L937.5 12Z" fill="#4650D7"/>
<path d="M917.763 12L907.895 0.000123696L927.632 0.00015462L917.763 12Z" fill="#4650D7"/>
<path d="M898.026 12L888.158 0.000123696H907.895L898.026 12Z" fill="#4650D7"/>
<path d="M878.289 12L868.421 0.000123696H888.158L878.289 12Z" fill="#4650D7"/>
<path d="M858.553 12L848.684 0.000123696H868.421L858.553 12Z" fill="#4650D7"/>
<path d="M838.816 12L828.947 0.000123696H848.684L838.816 12Z" fill="#4650D7"/>
<path d="M819.079 12L809.211 0.000123696H828.947L819.079 12Z" fill="#4650D7"/>
<path d="M799.342 12L789.474 0.000123696H809.211L799.342 12Z" fill="#4650D7"/>
<path d="M779.605 12L769.737 0.000123696H789.474L779.605 12Z" fill="#4650D7"/>
<path d="M759.868 12L750 0.000123696H769.737L759.868 12Z" fill="#4650D7"/>
<path d="M1490.13 11.9998L1480.26 0L1500 1.74843e-06L1490.13 11.9998Z" fill="#4650D7"/>
<path d="M1470.39 12L1460.53 0.00015462L1480.26 0L1470.39 12Z" fill="#4650D7"/>
<path d="M1450.66 12L1440.79 0.00015462H1460.53L1450.66 12Z" fill="#4650D7"/>
<path d="M1430.92 12L1421.05 0.00015462H1440.79L1430.92 12Z" fill="#4650D7"/>
<path d="M1411.18 12L1401.32 0.00015462H1421.05L1411.18 12Z" fill="#4650D7"/>
<path d="M1391.45 12L1381.58 0.00015462H1401.32L1391.45 12Z" fill="#4650D7"/>
<path d="M1371.71 12L1361.84 0.00015462H1381.58L1371.71 12Z" fill="#4650D7"/>
<path d="M1351.97 12L1342.11 0.00015462H1361.84L1351.97 12Z" fill="#4650D7"/>
<path d="M1332.24 12L1322.37 0.00015462H1342.11L1332.24 12Z" fill="#4650D7"/>
<path d="M1312.5 12L1302.63 0.00015462H1322.37L1312.5 12Z" fill="#4650D7"/>
<path d="M1292.76 12L1282.89 0.000123696L1302.63 0.00015462L1292.76 12Z" fill="#4650D7"/>
<path d="M1273.03 12L1263.16 0.000123696H1282.89L1273.03 12Z" fill="#4650D7"/>
<path d="M1253.29 12L1243.42 0.000123696H1263.16L1253.29 12Z" fill="#4650D7"/>
<path d="M1233.55 12L1223.68 0.000123696H1243.42L1233.55 12Z" fill="#4650D7"/>
<path d="M1213.82 12L1203.95 0.000123696H1223.68L1213.82 12Z" fill="#4650D7"/>
<path d="M1194.08 12L1184.21 0.000123696H1203.95L1194.08 12Z" fill="#4650D7"/>
<path d="M1174.34 12L1164.47 0.000123696H1184.21L1174.34 12Z" fill="#4650D7"/>
<path d="M1154.61 12L1144.74 0.000123696H1164.47L1154.61 12Z" fill="#4650D7"/>
<path d="M1134.87 12L1125 0.000123696H1144.74L1134.87 12Z" fill="#4650D7"/>
</svg>
