<svg width="327" height="440" viewBox="0 0 327 440" fill="none" xmlns="http://www.w3.org/2000/svg">
<g clip-path="url(#clip0_8529_69210)">
<rect width="327" height="440" fill="#404164"/>
<circle cx="72.5578" cy="26.5578" r="17.9003" fill="#FF703B" stroke="white" stroke-width="2.68505"/>
<mask id="mask0_8529_69210" style="mask-type:alpha" maskUnits="userSpaceOnUse" x="56" y="10" width="34" height="34">
<circle cx="72.5578" cy="26.5578" r="16.5578" fill="#FF703B"/>
</mask>
<g mask="url(#mask0_8529_69210)">
<path d="M65.3989 26.5571C65.3989 34.4294 60.4032 40.4299 54.6587 40.4299C48.9141 40.4299 43.9185 34.4294 43.9185 26.5571C43.9185 18.6848 48.9141 12.6843 54.6587 12.6843C60.4032 12.6843 65.3989 18.6848 65.3989 26.5571Z" stroke="#595959" stroke-width="1.79003"/>
<path d="M101.2 26.5571C101.2 34.4294 96.204 40.4299 90.4594 40.4299C84.7149 40.4299 79.7192 34.4294 79.7192 26.5571C79.7192 18.6848 84.7149 12.6843 90.4594 12.6843C96.204 12.6843 101.2 18.6848 101.2 26.5571Z" stroke="#595959" stroke-width="1.79003"/>
<line x1="72.5591" y1="8.65686" x2="72.5591" y2="48.0376" stroke="#595959" stroke-width="1.79003"/>
<line x1="92.248" y1="27.0046" x2="52.8673" y2="27.0046" stroke="#595959" stroke-width="1.79003"/>
</g>
<circle cx="72.5578" cy="261.558" r="17.9003" fill="#FF703B" stroke="white" stroke-width="2.68505"/>
<mask id="mask1_8529_69210" style="mask-type:alpha" maskUnits="userSpaceOnUse" x="56" y="245" width="34" height="34">
<circle cx="72.5578" cy="261.558" r="16.5578" fill="#FF703B"/>
</mask>
<g mask="url(#mask1_8529_69210)">
<path d="M65.3989 261.557C65.3989 269.429 60.4032 275.43 54.6587 275.43C48.9141 275.43 43.9185 269.429 43.9185 261.557C43.9185 253.685 48.9141 247.684 54.6587 247.684C60.4032 247.684 65.3989 253.685 65.3989 261.557Z" stroke="#595959" stroke-width="1.79003"/>
<path d="M101.2 261.557C101.2 269.429 96.204 275.43 90.4594 275.43C84.7149 275.43 79.7192 269.429 79.7192 261.557C79.7192 253.685 84.7149 247.684 90.4594 247.684C96.204 247.684 101.2 253.685 101.2 261.557Z" stroke="#595959" stroke-width="1.79003"/>
<line x1="72.5591" y1="243.657" x2="72.5591" y2="283.038" stroke="#595959" stroke-width="1.79003"/>
<line x1="92.248" y1="262.005" x2="52.8673" y2="262.005" stroke="#595959" stroke-width="1.79003"/>
</g>
<circle cx="279.673" cy="40.5578" r="17.9003" fill="#FF703B" stroke="white" stroke-width="2.68505"/>
<mask id="mask2_8529_69210" style="mask-type:alpha" maskUnits="userSpaceOnUse" x="263" y="24" width="34" height="34">
<circle cx="279.673" cy="40.5578" r="16.5578" fill="#FF703B"/>
</mask>
<g mask="url(#mask2_8529_69210)">
<path d="M272.514 40.5571C272.514 48.4294 267.518 54.4299 261.774 54.4299C256.029 54.4299 251.034 48.4294 251.034 40.5571C251.034 32.6848 256.029 26.6843 261.774 26.6843C267.518 26.6843 272.514 32.6848 272.514 40.5571Z" stroke="#595959" stroke-width="1.79003"/>
<path d="M308.315 40.5571C308.315 48.4294 303.319 54.4299 297.575 54.4299C291.83 54.4299 286.834 48.4294 286.834 40.5571C286.834 32.6848 291.83 26.6843 297.575 26.6843C303.319 26.6843 308.315 32.6848 308.315 40.5571Z" stroke="#595959" stroke-width="1.79003"/>
<line x1="279.674" y1="22.6569" x2="279.674" y2="62.0376" stroke="#595959" stroke-width="1.79003"/>
<line x1="299.363" y1="41.0046" x2="259.983" y2="41.0046" stroke="#595959" stroke-width="1.79003"/>
</g>
<circle cx="125.558" cy="392.558" r="17.9003" fill="#FF703B" stroke="white" stroke-width="2.68505"/>
<mask id="mask3_8529_69210" style="mask-type:alpha" maskUnits="userSpaceOnUse" x="109" y="376" width="34" height="34">
<circle cx="125.558" cy="392.558" r="16.5578" fill="#FF703B"/>
</mask>
<g mask="url(#mask3_8529_69210)">
<path d="M118.399 392.557C118.399 400.429 113.403 406.43 107.659 406.43C101.914 406.43 96.9185 400.429 96.9185 392.557C96.9185 384.685 101.914 378.684 107.659 378.684C113.403 378.684 118.399 384.685 118.399 392.557Z" stroke="#595959" stroke-width="1.79003"/>
<path d="M154.2 392.557C154.2 400.429 149.204 406.43 143.459 406.43C137.715 406.43 132.719 400.429 132.719 392.557C132.719 384.685 137.715 378.684 143.459 378.684C149.204 378.684 154.2 384.685 154.2 392.557Z" stroke="#595959" stroke-width="1.79003"/>
<line x1="125.559" y1="374.657" x2="125.559" y2="414.038" stroke="#595959" stroke-width="1.79003"/>
<line x1="145.248" y1="393.005" x2="105.867" y2="393.005" stroke="#595959" stroke-width="1.79003"/>
</g>
<circle cx="39.5578" cy="130.558" r="17.9003" fill="#5AD192" stroke="white" stroke-width="2.68505"/>
<mask id="mask4_8529_69210" style="mask-type:alpha" maskUnits="userSpaceOnUse" x="23" y="114" width="34" height="34">
<circle cx="39.5578" cy="130.56" r="16.3341" fill="#5AD192" stroke="white" stroke-width="0.447509"/>
</mask>
<g mask="url(#mask4_8529_69210)">
<path d="M33.2914 130.559C33.2914 138.431 28.2958 144.432 22.5512 144.432C16.8067 144.432 11.811 138.431 11.811 130.559C11.811 122.687 16.8067 116.686 22.5512 116.686C28.2958 116.686 33.2914 122.687 33.2914 130.559Z" stroke="white" stroke-width="1.79003"/>
<path d="M67.3032 130.559C67.3032 138.431 62.3075 144.432 56.563 144.432C50.8184 144.432 45.8228 138.431 45.8228 130.559C45.8228 122.687 50.8184 116.686 56.563 116.686C62.3075 116.686 67.3032 122.687 67.3032 130.559Z" stroke="white" stroke-width="1.79003"/>
</g>
<circle cx="8.55782" cy="343.558" r="17.9003" fill="#5AD192" stroke="white" stroke-width="2.68505"/>
<mask id="mask5_8529_69210" style="mask-type:alpha" maskUnits="userSpaceOnUse" x="-8" y="327" width="34" height="34">
<circle cx="8.55782" cy="343.56" r="16.3341" fill="#5AD192" stroke="white" stroke-width="0.447509"/>
</mask>
<g mask="url(#mask5_8529_69210)">
<path d="M2.29144 343.559C2.29144 351.431 -2.70419 357.432 -8.44876 357.432C-14.1933 357.432 -19.189 351.431 -19.189 343.559C-19.189 335.687 -14.1933 329.686 -8.44876 329.686C-2.70419 329.686 2.29144 335.687 2.29144 343.559Z" stroke="white" stroke-width="1.79003"/>
<path d="M36.3032 343.559C36.3032 351.431 31.3075 357.432 25.563 357.432C19.8184 357.432 14.8228 351.431 14.8228 343.559C14.8228 335.687 19.8184 329.686 25.563 329.686C31.3075 329.686 36.3032 335.687 36.3032 343.559Z" stroke="white" stroke-width="1.79003"/>
</g>
<circle cx="283.558" cy="409.558" r="17.9003" fill="#5AD192" stroke="white" stroke-width="2.68505"/>
<mask id="mask6_8529_69210" style="mask-type:alpha" maskUnits="userSpaceOnUse" x="267" y="393" width="34" height="34">
<circle cx="283.558" cy="409.56" r="16.3341" fill="#5AD192" stroke="white" stroke-width="0.447509"/>
</mask>
<g mask="url(#mask6_8529_69210)">
<path d="M277.291 409.559C277.291 417.431 272.296 423.432 266.551 423.432C260.807 423.432 255.811 417.431 255.811 409.559C255.811 401.687 260.807 395.686 266.551 395.686C272.296 395.686 277.291 401.687 277.291 409.559Z" stroke="white" stroke-width="1.79003"/>
<path d="M311.303 409.559C311.303 417.431 306.308 423.432 300.563 423.432C294.818 423.432 289.823 417.431 289.823 409.559C289.823 401.687 294.818 395.686 300.563 395.686C306.308 395.686 311.303 401.687 311.303 409.559Z" stroke="white" stroke-width="1.79003"/>
</g>
<circle cx="180.558" cy="68.5578" r="17.9003" fill="#5AD192" stroke="white" stroke-width="2.68505"/>
<mask id="mask7_8529_69210" style="mask-type:alpha" maskUnits="userSpaceOnUse" x="164" y="52" width="34" height="34">
<circle cx="180.558" cy="68.5598" r="16.3341" fill="#5AD192" stroke="white" stroke-width="0.447509"/>
</mask>
<g mask="url(#mask7_8529_69210)">
<path d="M174.291 68.559C174.291 76.4314 169.296 82.4318 163.551 82.4318C157.807 82.4318 152.811 76.4314 152.811 68.559C152.811 60.6867 157.807 54.6863 163.551 54.6863C169.296 54.6863 174.291 60.6867 174.291 68.559Z" stroke="white" stroke-width="1.79003"/>
<path d="M208.303 68.559C208.303 76.4314 203.308 82.4318 197.563 82.4318C191.818 82.4318 186.823 76.4314 186.823 68.559C186.823 60.6867 191.818 54.6863 197.563 54.6863C203.308 54.6863 208.303 60.6867 208.303 68.559Z" stroke="white" stroke-width="1.79003"/>
</g>
<mask id="path-41-outside-1_8529_69210" maskUnits="userSpaceOnUse" x="89.5122" y="104.387" width="148.527" height="123.908" fill="black">
<rect fill="white" x="89.5122" y="104.387" width="148.527" height="123.908"/>
<path fill-rule="evenodd" clip-rule="evenodd" d="M108.411 166.876C107.853 165.845 108.236 164.557 109.267 163.999L127.001 154.404C128.032 153.846 129.32 154.229 129.878 155.26L137.454 169.262L180.389 146.031L172.813 132.029C172.255 130.998 172.639 129.71 173.67 129.152L191.403 119.557C192.434 118.999 193.722 119.382 194.28 120.413L196.301 124.147L202.834 120.612C203.865 120.054 205.153 120.438 205.711 121.469L224.397 156.003C224.955 157.034 224.572 158.322 223.541 158.88L217.007 162.415L219.027 166.148C219.585 167.179 219.202 168.467 218.171 169.025L200.437 178.621C199.406 179.178 198.118 178.795 197.56 177.764L189.985 163.764L147.05 186.996L154.625 200.995C155.183 202.026 154.799 203.314 153.768 203.872L136.034 213.468C135.003 214.025 133.715 213.642 133.158 212.611L131.137 208.878L124.604 212.413C123.573 212.971 122.285 212.587 121.727 211.556L103.04 177.022C102.482 175.991 102.866 174.703 103.897 174.145L110.431 170.61L108.411 166.876Z"/>
</mask>
<path fill-rule="evenodd" clip-rule="evenodd" d="M108.411 166.876C107.853 165.845 108.236 164.557 109.267 163.999L127.001 154.404C128.032 153.846 129.32 154.229 129.878 155.26L137.454 169.262L180.389 146.031L172.813 132.029C172.255 130.998 172.639 129.71 173.67 129.152L191.403 119.557C192.434 118.999 193.722 119.382 194.28 120.413L196.301 124.147L202.834 120.612C203.865 120.054 205.153 120.438 205.711 121.469L224.397 156.003C224.955 157.034 224.572 158.322 223.541 158.88L217.007 162.415L219.027 166.148C219.585 167.179 219.202 168.467 218.171 169.025L200.437 178.621C199.406 179.178 198.118 178.795 197.56 177.764L189.985 163.764L147.05 186.996L154.625 200.995C155.183 202.026 154.799 203.314 153.768 203.872L136.034 213.468C135.003 214.025 133.715 213.642 133.158 212.611L131.137 208.878L124.604 212.413C123.573 212.971 122.285 212.587 121.727 211.556L103.04 177.022C102.482 175.991 102.866 174.703 103.897 174.145L110.431 170.61L108.411 166.876Z" fill="#494949"/>
<path d="M109.267 163.999L112.297 169.6L109.267 163.999ZM127.001 154.404L123.971 148.803L127.001 154.404ZM137.454 169.262L131.854 172.293L134.884 177.893L140.485 174.863L137.454 169.262ZM180.389 146.031L183.419 151.631L189.019 148.6L185.989 143L180.389 146.031ZM172.813 132.029L167.213 135.059L172.813 132.029ZM194.28 120.413L188.68 123.443L194.28 120.413ZM196.301 124.147L190.7 127.177L193.731 132.778L199.331 129.747L196.301 124.147ZM205.711 121.469L200.111 124.499L205.711 121.469ZM224.397 156.003L229.997 152.973L224.397 156.003ZM217.007 162.415L213.977 156.815L208.377 159.845L211.407 165.445L217.007 162.415ZM218.171 169.025L215.14 163.425L218.171 169.025ZM200.437 178.621L203.467 184.221L200.437 178.621ZM197.56 177.764L191.96 180.794L197.56 177.764ZM189.985 163.764L195.585 160.734L192.555 155.134L186.954 158.164L189.985 163.764ZM147.05 186.996L144.02 181.396L138.42 184.426L141.45 190.026L147.05 186.996ZM153.768 203.872L150.738 198.272L153.768 203.872ZM136.034 213.468L139.065 219.068L136.034 213.468ZM133.158 212.611L127.557 215.641L133.158 212.611ZM131.137 208.878L136.738 205.847L133.707 200.247L128.107 203.277L131.137 208.878ZM124.604 212.413L127.634 218.013L124.604 212.413ZM110.431 170.61L113.461 176.21L119.061 173.18L116.031 167.579L110.431 170.61ZM106.237 158.399C102.113 160.631 100.579 165.783 102.81 169.906L114.011 163.846C115.126 165.908 114.359 168.484 112.297 169.6L106.237 158.399ZM123.971 148.803L106.237 158.399L112.297 169.6L130.031 160.004L123.971 148.803ZM135.478 152.23C133.247 148.106 128.095 146.572 123.971 148.803L130.031 160.004C127.969 161.119 125.393 160.352 124.278 158.29L135.478 152.23ZM143.055 166.232L135.478 152.23L124.278 158.29L131.854 172.293L143.055 166.232ZM177.359 140.43L134.424 163.662L140.485 174.863L183.419 151.631L177.359 140.43ZM167.213 135.059L174.789 149.061L185.989 143L178.413 128.999L167.213 135.059ZM170.639 123.552C166.515 125.784 164.981 130.936 167.213 135.059L178.413 128.999C179.529 131.061 178.762 133.637 176.7 134.753L170.639 123.552ZM188.373 113.956L170.639 123.552L176.7 134.753L194.434 125.157L188.373 113.956ZM199.88 117.383C197.649 113.259 192.497 111.725 188.373 113.956L194.434 125.157C192.372 126.272 189.796 125.505 188.68 123.443L199.88 117.383ZM201.901 121.117L199.88 117.383L188.68 123.443L190.7 127.177L201.901 121.117ZM199.804 115.012L193.27 118.547L199.331 129.747L205.864 126.212L199.804 115.012ZM211.311 118.438C209.079 114.315 203.928 112.78 199.804 115.012L205.864 126.212C203.802 127.328 201.226 126.561 200.111 124.499L211.311 118.438ZM229.997 152.973L211.311 118.438L200.111 124.499L218.797 159.033L229.997 152.973ZM226.571 164.48C230.695 162.249 232.229 157.097 229.997 152.973L218.797 159.033C217.681 156.971 218.448 154.395 220.51 153.28L226.571 164.48ZM220.038 168.015L226.571 164.48L220.51 153.28L213.977 156.815L220.038 168.015ZM224.627 163.118L222.608 159.385L211.407 165.445L213.427 169.178L224.627 163.118ZM221.201 174.625C225.325 172.394 226.859 167.242 224.627 163.118L213.427 169.178C212.311 167.116 213.078 164.54 215.14 163.425L221.201 174.625ZM203.467 184.221L221.201 174.625L215.14 163.425L197.406 173.02L203.467 184.221ZM191.96 180.794C194.191 184.918 199.343 186.452 203.467 184.221L197.406 173.02C199.468 171.905 202.044 172.672 203.16 174.734L191.96 180.794ZM184.385 166.795L191.96 180.794L203.16 174.734L195.585 160.734L184.385 166.795ZM150.08 192.596L193.015 169.365L186.954 158.164L144.02 181.396L150.08 192.596ZM160.225 197.965L152.65 183.966L141.45 190.026L149.025 204.025L160.225 197.965ZM156.799 209.472C160.922 207.241 162.456 202.089 160.225 197.965L149.025 204.025C147.909 201.963 148.676 199.387 150.738 198.272L156.799 209.472ZM139.065 219.068L156.799 209.472L150.738 198.272L133.004 207.867L139.065 219.068ZM127.557 215.641C129.789 219.765 134.941 221.299 139.065 219.068L133.004 207.867C135.066 206.752 137.642 207.519 138.758 209.581L127.557 215.641ZM125.537 211.908L127.557 215.641L138.758 209.581L136.738 205.847L125.537 211.908ZM127.634 218.013L134.168 214.478L128.107 203.277L121.573 206.813L127.634 218.013ZM116.127 214.587C118.358 218.71 123.51 220.245 127.634 218.013L121.573 206.813C123.635 205.697 126.211 206.464 127.327 208.526L116.127 214.587ZM97.4402 180.052L116.127 214.587L127.327 208.526L108.641 173.992L97.4402 180.052ZM100.867 168.545C96.7429 170.776 95.2087 175.928 97.4402 180.052L108.641 173.992C109.756 176.054 108.989 178.63 106.927 179.745L100.867 168.545ZM107.4 165.009L100.867 168.545L106.927 179.745L113.461 176.21L107.4 165.009ZM102.81 169.906L104.831 173.64L116.031 167.579L114.011 163.846L102.81 169.906Z" fill="white" mask="url(#path-41-outside-1_8529_69210)"/>
<rect x="102.031" y="175.155" width="18.0411" height="43.5109" rx="2.12248" transform="rotate(-28.4177 102.031 175.155)" fill="#434343"/>
<rect x="132.787" y="171.787" width="59.4295" height="20.1636" rx="2.12248" transform="rotate(-28.4177 132.787 171.787)" fill="#D9D9D9"/>
<rect width="18.0411" height="43.5109" rx="2.12248" transform="matrix(-0.879501 0.475896 0.475896 0.879501 204.701 119.601)" fill="#434343"/>
<rect x="107.4" y="165.009" width="24.4085" height="56.2458" rx="2.12248" transform="rotate(-28.4177 107.4 165.009)" fill="#595959"/>
<rect width="24.4085" height="56.2458" rx="2.12248" transform="matrix(-0.879501 0.475896 0.475896 0.879501 193.27 118.546)" fill="#595959"/>
<path d="M256.48 168.485C254.721 174.555 257.566 180.877 262.97 183.672L258.145 191.98C256.601 194.64 259.358 197.724 262.174 196.485L271.84 192.231C273.662 194.907 276.391 196.993 279.744 197.964C287.419 200.188 295.433 195.743 297.659 188.062C298.473 185.251 298.4 182.389 297.604 179.784C298.621 178.354 299.418 176.732 299.932 174.957C302.383 166.496 297.54 157.642 289.089 155.193C283.099 153.458 276.924 155.412 272.962 159.703C272.836 159.663 272.708 159.624 272.58 159.586C265.682 157.588 258.48 161.583 256.48 168.485Z" fill="#72B0F5" stroke="white" stroke-width="5"/>
<path d="M245.194 134.82C246.397 138.739 249.992 141.274 253.886 141.29L254.163 146.433C254.315 149.263 257.998 150.248 259.542 147.872L257.446 146.509L259.542 147.872L262.774 142.898C264.673 143.52 266.777 143.584 268.832 142.953C274.144 141.322 277.109 135.684 275.479 130.374C274.93 128.584 273.926 127.055 272.634 125.878C272.631 124.813 272.473 123.732 272.146 122.665C270.365 116.865 264.23 113.586 258.43 115.367C254.515 116.569 251.77 119.763 250.944 123.492C246.3 125.084 243.744 130.096 245.194 134.82Z" fill="#B6D5FF" stroke="white" stroke-width="5"/>
<mask id="path-50-outside-2_8529_69210" maskUnits="userSpaceOnUse" x="143.137" y="199.138" width="154.469" height="165.64" fill="black">
<rect fill="white" x="143.137" y="199.138" width="154.469" height="165.64"/>
<path fill-rule="evenodd" clip-rule="evenodd" d="M188.718 209.65C186.274 209.324 184.03 211.041 183.705 213.485L182.233 224.544C181.921 226.888 183.488 229.048 185.773 229.507L186.051 235.182L175.221 233.741C169.811 233.021 164.841 236.822 164.121 242.232C162.321 255.757 171.826 268.181 185.351 269.981L187.249 270.233C187.654 270.287 188.055 270.31 188.45 270.303C190.668 279.187 196.231 286.778 203.785 291.604C203.682 291.945 203.605 292.299 203.556 292.663L203.262 294.875C202.774 298.54 205.35 301.906 209.014 302.394L207.984 310.136L192.501 308.075C190.058 307.75 187.813 309.467 187.488 311.91L187.047 315.228C186.721 317.671 188.438 319.915 190.882 320.241L174.292 318.033C171.849 317.707 169.605 319.424 169.28 321.868L167.072 338.457C166.747 340.9 168.464 343.144 170.907 343.469L251.641 354.215C254.084 354.54 256.328 352.823 256.654 350.38L258.862 333.791C259.187 331.347 257.47 329.103 255.027 328.778L238.437 326.57C240.881 326.895 243.125 325.178 243.45 322.735L243.892 319.417C244.217 316.974 242.5 314.73 240.057 314.405L224.573 312.344L225.604 304.602C229.268 305.09 232.635 302.515 233.123 298.85L233.417 296.638C233.465 296.273 233.484 295.912 233.473 295.556C242.027 292.874 249.381 287.002 253.845 279.007C254.225 279.117 254.618 279.2 255.023 279.254L256.922 279.506C270.446 281.307 282.87 271.802 284.67 258.277C285.39 252.867 281.588 247.898 276.178 247.178L265.348 245.736L267.1 240.332C269.426 240.486 271.503 238.811 271.815 236.467L273.287 225.408C273.612 222.964 271.895 220.72 269.452 220.395L188.718 209.65ZM262.548 254.368L257.299 270.552L258.099 270.659C266.738 271.809 274.672 265.738 275.822 257.099C275.892 256.576 275.524 256.095 275 256.025L262.548 254.368ZM187.329 261.24L186.495 244.246L174.043 242.588C173.519 242.519 173.039 242.886 172.969 243.41C171.819 252.048 177.89 259.983 186.528 261.133L187.329 261.24Z"/>
</mask>
<path fill-rule="evenodd" clip-rule="evenodd" d="M188.718 209.65C186.274 209.324 184.03 211.041 183.705 213.485L182.233 224.544C181.921 226.888 183.488 229.048 185.773 229.507L186.051 235.182L175.221 233.741C169.811 233.021 164.841 236.822 164.121 242.232C162.321 255.757 171.826 268.181 185.351 269.981L187.249 270.233C187.654 270.287 188.055 270.31 188.45 270.303C190.668 279.187 196.231 286.778 203.785 291.604C203.682 291.945 203.605 292.299 203.556 292.663L203.262 294.875C202.774 298.54 205.35 301.906 209.014 302.394L207.984 310.136L192.501 308.075C190.058 307.75 187.813 309.467 187.488 311.91L187.047 315.228C186.721 317.671 188.438 319.915 190.882 320.241L174.292 318.033C171.849 317.707 169.605 319.424 169.28 321.868L167.072 338.457C166.747 340.9 168.464 343.144 170.907 343.469L251.641 354.215C254.084 354.54 256.328 352.823 256.654 350.38L258.862 333.791C259.187 331.347 257.47 329.103 255.027 328.778L238.437 326.57C240.881 326.895 243.125 325.178 243.45 322.735L243.892 319.417C244.217 316.974 242.5 314.73 240.057 314.405L224.573 312.344L225.604 304.602C229.268 305.09 232.635 302.515 233.123 298.85L233.417 296.638C233.465 296.273 233.484 295.912 233.473 295.556C242.027 292.874 249.381 287.002 253.845 279.007C254.225 279.117 254.618 279.2 255.023 279.254L256.922 279.506C270.446 281.307 282.87 271.802 284.67 258.277C285.39 252.867 281.588 247.898 276.178 247.178L265.348 245.736L267.1 240.332C269.426 240.486 271.503 238.811 271.815 236.467L273.287 225.408C273.612 222.964 271.895 220.72 269.452 220.395L188.718 209.65ZM262.548 254.368L257.299 270.552L258.099 270.659C266.738 271.809 274.672 265.738 275.822 257.099C275.892 256.576 275.524 256.095 275 256.025L262.548 254.368ZM187.329 261.24L186.495 244.246L174.043 242.588C173.519 242.519 173.039 242.886 172.969 243.41C171.819 252.048 177.89 259.983 186.528 261.133L187.329 261.24Z" fill="#FFDC6B"/>
<path d="M188.718 209.65L187.834 216.285L188.718 209.65ZM185.773 229.507L192.459 229.179L192.203 223.972L187.092 222.945L185.773 229.507ZM186.051 235.182L185.168 241.818L193.131 242.878L192.737 234.854L186.051 235.182ZM188.45 270.303L194.945 268.682L193.657 263.521L188.339 263.61L188.45 270.303ZM203.785 291.604L210.193 293.539L211.657 288.69L207.389 285.963L203.785 291.604ZM209.014 302.394L215.65 303.277L216.533 296.642L209.898 295.759L209.014 302.394ZM207.984 310.136L207.101 316.772L213.737 317.655L214.62 311.019L207.984 310.136ZM192.501 308.075L191.618 314.711L192.501 308.075ZM174.292 318.033L173.409 324.668L174.292 318.033ZM169.28 321.868L162.644 320.984L169.28 321.868ZM167.072 338.457L173.707 339.34L167.072 338.457ZM256.654 350.38L250.018 349.497L256.654 350.38ZM258.862 333.791L265.497 334.674L258.862 333.791ZM255.027 328.778L255.91 322.142L255.027 328.778ZM243.45 322.735L250.086 323.618L243.45 322.735ZM243.892 319.417L237.256 318.534L243.892 319.417ZM240.057 314.405L239.173 321.04L240.057 314.405ZM224.573 312.344L217.938 311.461L217.054 318.096L223.69 318.98L224.573 312.344ZM225.604 304.602L226.487 297.967L219.851 297.083L218.968 303.719L225.604 304.602ZM233.123 298.85L239.758 299.733L233.123 298.85ZM233.417 296.638L226.781 295.755L233.417 296.638ZM233.473 295.556L231.471 289.168L226.638 290.683L226.782 295.746L233.473 295.556ZM253.845 279.007L255.704 272.576L250.594 271.099L248 275.744L253.845 279.007ZM276.178 247.178L275.295 253.813L276.178 247.178ZM265.348 245.736L258.98 243.671L256.502 251.312L264.464 252.372L265.348 245.736ZM267.1 240.332L267.543 233.652L262.341 233.307L260.733 238.266L267.1 240.332ZM269.452 220.395L270.335 213.759L269.452 220.395ZM257.299 270.552L250.931 268.487L248.453 276.128L256.415 277.188L257.299 270.552ZM262.548 254.368L263.431 247.732L257.901 246.996L256.18 252.303L262.548 254.368ZM275 256.025L274.117 262.661L275 256.025ZM186.495 244.246L193.182 243.918L192.908 238.346L187.379 237.61L186.495 244.246ZM187.329 261.24L186.446 267.875L194.408 268.935L194.015 260.912L187.329 261.24ZM174.043 242.588L174.926 235.952L174.043 242.588ZM186.528 261.133L187.412 254.497L186.528 261.133ZM190.341 214.368C190.178 215.589 189.056 216.448 187.834 216.285L189.601 203.014C183.493 202.201 177.882 206.493 177.069 212.601L190.341 214.368ZM188.869 225.427L190.341 214.368L177.069 212.601L175.597 223.661L188.869 225.427ZM187.092 222.945C188.241 223.176 189.025 224.253 188.869 225.427L175.597 223.661C174.817 229.522 178.735 234.92 184.453 236.07L187.092 222.945ZM192.737 234.854L192.459 229.179L179.086 229.835L179.365 235.51L192.737 234.854ZM174.337 240.376L185.168 241.818L186.934 228.546L176.104 227.105L174.337 240.376ZM170.757 243.116C170.989 241.37 172.592 240.144 174.337 240.376L176.104 227.105C167.029 225.897 158.693 232.274 157.486 241.349L170.757 243.116ZM186.234 263.345C176.374 262.033 169.445 252.976 170.757 243.116L157.486 241.349C155.198 258.539 167.278 274.328 184.468 276.616L186.234 263.345ZM188.132 263.598L186.234 263.345L184.468 276.616L186.366 276.869L188.132 263.598ZM188.339 263.61C188.276 263.611 188.207 263.608 188.132 263.598L186.366 276.869C187.101 276.967 187.835 277.009 188.562 276.997L188.339 263.61ZM207.389 285.963C201.255 282.044 196.742 275.881 194.945 268.682L181.956 271.924C184.594 282.494 191.207 291.512 200.181 297.245L207.389 285.963ZM210.192 293.547C210.193 293.539 210.194 293.537 210.193 293.539L197.376 289.67C197.17 290.353 197.017 291.058 196.921 291.78L210.192 293.547ZM209.898 295.759L210.192 293.547L196.921 291.78L196.626 293.992L209.898 295.759ZM209.898 295.759L209.898 295.759L196.626 293.992C195.651 301.322 200.802 308.054 208.131 309.03L209.898 295.759ZM214.62 311.019L215.65 303.277L202.379 301.511L201.348 309.253L214.62 311.019ZM191.618 314.711L207.101 316.772L208.867 303.5L193.384 301.439L191.618 314.711ZM194.124 312.793C193.961 314.015 192.839 314.873 191.618 314.711L193.384 301.439C187.276 300.627 181.665 304.919 180.852 311.027L194.124 312.793ZM193.682 316.111L194.124 312.793L180.852 311.027L180.411 314.345L193.682 316.111ZM191.765 313.605C192.986 313.767 193.845 314.89 193.682 316.111L180.411 314.345C179.598 320.453 183.89 326.063 189.998 326.876L191.765 313.605ZM173.409 324.668L189.998 326.876L191.765 313.605L175.175 311.397L173.409 324.668ZM175.915 322.751C175.753 323.972 174.631 324.831 173.409 324.668L175.175 311.397C169.067 310.584 163.457 314.876 162.644 320.984L175.915 322.751ZM173.707 339.34L175.915 322.751L162.644 320.984L160.436 337.574L173.707 339.34ZM171.79 336.834C173.012 336.996 173.87 338.118 173.707 339.34L160.436 337.574C159.623 343.682 163.916 349.292 170.024 350.105L171.79 336.834ZM252.524 347.579L171.79 336.834L170.024 350.105L250.758 360.851L252.524 347.579ZM250.018 349.497C250.181 348.275 251.303 347.417 252.524 347.579L250.758 360.851C256.866 361.664 262.476 357.371 263.289 351.263L250.018 349.497ZM252.226 332.907L250.018 349.497L263.289 351.263L265.497 334.674L252.226 332.907ZM254.143 335.414C252.922 335.251 252.063 334.129 252.226 332.907L265.497 334.674C266.31 328.566 262.018 322.955 255.91 322.142L254.143 335.414ZM237.554 333.206L254.143 335.414L255.91 322.142L239.321 319.934L237.554 333.206ZM236.814 321.852C236.977 320.63 238.099 319.772 239.321 319.934L237.554 333.206C243.662 334.019 249.273 329.726 250.086 323.618L236.814 321.852ZM237.256 318.534L236.814 321.852L250.086 323.618L250.527 320.3L237.256 318.534ZM239.173 321.04C237.952 320.878 237.093 319.756 237.256 318.534L250.527 320.3C251.34 314.192 247.048 308.582 240.94 307.769L239.173 321.04ZM223.69 318.98L239.173 321.04L240.94 307.769L225.456 305.708L223.69 318.98ZM218.968 303.719L217.938 311.461L231.209 313.227L232.239 305.485L218.968 303.719ZM226.487 297.967L224.72 311.238C232.05 312.213 238.783 307.062 239.758 299.733L226.487 297.967ZM226.781 295.755L226.487 297.967L239.758 299.733L240.053 297.521L226.781 295.755ZM226.782 295.746C226.782 295.745 226.782 295.747 226.781 295.755L240.053 297.521C240.149 296.799 240.185 296.078 240.165 295.365L226.782 295.746ZM248 275.744C244.384 282.221 238.416 286.99 231.471 289.168L235.476 301.943C245.637 298.757 254.379 291.782 259.69 282.271L248 275.744ZM255.906 272.618C255.832 272.608 255.764 272.594 255.704 272.576L251.987 285.438C252.686 285.64 253.405 285.792 254.14 285.889L255.906 272.618ZM257.805 272.871L255.906 272.618L254.14 285.889L256.038 286.142L257.805 272.871ZM278.034 257.394C276.722 267.254 267.665 274.183 257.805 272.871L256.038 286.142C273.228 288.43 289.018 276.35 291.305 259.16L278.034 257.394ZM275.295 253.813C277.04 254.046 278.266 255.649 278.034 257.394L291.305 259.16C292.513 250.085 286.136 241.75 277.061 240.542L275.295 253.813ZM264.464 252.372L275.295 253.813L277.061 240.542L266.231 239.1L264.464 252.372ZM260.733 238.266L258.98 243.671L271.715 247.801L273.468 242.397L260.733 238.266ZM265.179 235.584C265.336 234.409 266.374 233.575 267.543 233.652L266.658 247.011C272.477 247.397 277.671 243.212 278.451 237.35L265.179 235.584ZM266.651 224.524L265.179 235.584L278.451 237.35L279.923 226.291L266.651 224.524ZM268.569 227.031C267.347 226.868 266.489 225.746 266.651 224.524L279.923 226.291C280.736 220.183 276.443 214.572 270.335 213.759L268.569 227.031ZM187.834 216.285L268.569 227.031L270.335 213.759L189.601 203.014L187.834 216.285ZM263.666 272.618L268.916 256.433L256.18 252.303L250.931 268.487L263.666 272.618ZM258.982 264.023L258.182 263.917L256.415 277.188L257.216 277.295L258.982 264.023ZM269.186 256.216C268.525 261.19 263.956 264.685 258.982 264.023L257.216 277.295C269.519 278.932 280.82 270.286 282.458 257.983L269.186 256.216ZM274.117 262.661C270.976 262.243 268.768 259.357 269.186 256.216L282.458 257.983C283.015 253.794 280.072 249.947 275.884 249.39L274.117 262.661ZM261.665 261.004L274.117 262.661L275.884 249.39L263.431 247.732L261.665 261.004ZM179.809 244.573L180.643 261.568L194.015 260.912L193.182 243.918L179.809 244.573ZM173.16 249.224L185.612 250.881L187.379 237.61L174.926 235.952L173.16 249.224ZM179.605 244.293C179.186 247.434 176.301 249.642 173.16 249.224L174.926 235.952C170.738 235.395 166.891 238.338 166.333 242.527L179.605 244.293ZM187.412 254.497C182.438 253.835 178.943 249.267 179.605 244.293L166.333 242.527C164.696 254.83 173.342 266.131 185.645 267.769L187.412 254.497ZM188.212 254.604L187.412 254.497L185.645 267.769L186.446 267.875L188.212 254.604Z" fill="white" mask="url(#path-50-outside-2_8529_69210)"/>
<path d="M168.546 242.821C168.941 239.854 171.666 237.77 174.633 238.164L189.969 240.206C191.081 240.354 191.911 241.304 191.906 242.426L191.827 262.331C191.818 264.456 189.945 266.09 187.839 265.81L185.94 265.557C174.859 264.082 167.071 253.903 168.546 242.821Z" stroke="#FFB114" stroke-width="8.92562"/>
<path d="M280.245 257.688C280.64 254.721 278.555 251.996 275.588 251.601L260.252 249.56C259.14 249.412 258.09 250.113 257.801 251.197L252.672 270.43C252.124 272.483 253.505 274.55 255.611 274.83L257.509 275.083C268.591 276.558 278.77 268.77 280.245 257.688Z" stroke="#FFB114" stroke-width="8.92562"/>
<rect x="210.045" y="294.653" width="16.7355" height="22.314" rx="6.69421" transform="rotate(7.58129 210.045 294.653)" fill="#FFB114"/>
<rect x="204.439" y="286.028" width="30.124" height="15.6198" rx="6.69421" transform="rotate(7.58129 204.439 286.028)" fill="#FFDC6B"/>
<path d="M185.598 225.951C185.573 225.448 186.01 225.047 186.508 225.113L267.539 235.898C268.038 235.964 268.354 236.466 268.199 236.944L256.621 272.639C251.337 288.931 235.169 299.122 218.192 296.863C201.215 294.603 188.275 280.538 187.436 263.431L185.598 225.951Z" fill="#FFDC6B"/>
<path d="M186.727 317.624C187.472 312.025 192.615 308.09 198.214 308.836L234.342 313.644C239.941 314.389 243.876 319.532 243.13 325.131C242.981 326.251 241.953 327.038 240.833 326.889L188.485 319.922C187.365 319.773 186.578 318.744 186.727 317.624Z" fill="#FFDC6B"/>
<path d="M222.544 249.502C223.373 247.733 225.986 248.081 226.324 250.005L227.36 255.898C227.511 256.757 228.202 257.419 229.066 257.534L234.966 258.319C236.873 258.573 237.357 261.111 235.676 262.048L230.33 265.03C229.586 265.444 229.187 266.284 229.334 267.123L230.398 273.17C230.734 275.083 228.421 276.305 227.031 274.948L222.833 270.849C222.199 270.231 221.234 270.102 220.461 270.533L215.337 273.391C213.64 274.337 211.727 272.553 212.552 270.795L215.16 265.236C215.522 264.465 215.356 263.55 214.747 262.956L210.367 258.68C208.99 257.335 210.12 255.012 212.028 255.266L217.927 256.051C218.792 256.166 219.631 255.708 220.002 254.918L222.544 249.502Z" fill="#FFB114"/>
<mask id="path-59-inside-3_8529_69210" fill="white">
<path d="M183.704 213.485C184.029 211.041 186.274 209.324 188.717 209.65L269.451 220.395C271.894 220.72 273.611 222.964 273.286 225.408L271.814 236.467C271.489 238.91 269.245 240.627 266.802 240.302L186.067 229.557C183.624 229.231 181.907 226.987 182.232 224.544L183.704 213.485Z"/>
</mask>
<path d="M183.704 213.485C184.029 211.041 186.274 209.324 188.717 209.65L269.451 220.395C271.894 220.72 273.611 222.964 273.286 225.408L271.814 236.467C271.489 238.91 269.245 240.627 266.802 240.302L186.067 229.557C183.624 229.231 181.907 226.987 182.232 224.544L183.704 213.485Z" fill="#FFDC6B"/>
<path d="M184.293 209.061L273.875 220.984L184.293 209.061ZM271.814 236.467C271.164 241.353 266.675 244.787 261.789 244.137L189.902 234.569C185.016 233.919 181.582 229.43 182.232 224.544C182.232 224.544 184.213 224.808 186.656 225.133L267.39 235.878C269.834 236.203 271.814 236.467 271.814 236.467ZM181.643 228.968L184.293 209.061L181.643 228.968ZM273.875 220.984L271.225 240.891L273.875 220.984Z" fill="#FFB114" mask="url(#path-59-inside-3_8529_69210)"/>
<path d="M169.28 321.868C169.606 319.424 171.85 317.707 174.293 318.033L255.027 328.778C257.47 329.103 259.187 331.347 258.862 333.791L256.654 350.38C256.329 352.823 254.085 354.54 251.642 354.215L170.907 343.469C168.464 343.144 166.747 340.9 167.072 338.457L169.28 321.868Z" fill="#62514C"/>
<path d="M196.487 328.865C196.649 327.644 197.772 326.785 198.993 326.948L228.854 330.922C230.075 331.085 230.934 332.207 230.771 333.429L229.447 343.382C229.284 344.604 228.162 345.462 226.94 345.3L197.08 341.325C195.858 341.163 194.999 340.041 195.162 338.819L196.487 328.865Z" fill="white"/>
</g>
<defs>
<clipPath id="clip0_8529_69210">
<rect width="327" height="440" fill="white"/>
</clipPath>
</defs>
</svg>
