<svg width="24" height="24" viewBox="0 0 24 24" fill="none" xmlns="http://www.w3.org/2000/svg">
<path fill-rule="evenodd" clip-rule="evenodd" d="M5 3C3.89543 3 3 3.89543 3 5V19C3 20.1046 3.89543 21 5 21H15.6322L21 15.6322V5C21 3.89543 20.1046 3 19 3H5Z" fill="#E9EBED"/>
<path d="M12 10C12 11.1046 11.1046 12 10 12C8.89543 12 8 11.1046 8 10C8 8.89543 8.89543 8 10 8C11.1046 8 12 8.89543 12 10Z" fill="#C2C8CC"/>
<path d="M16 10C16 11.1046 15.1046 12 14 12C12.8954 12 12 11.1046 12 10C12 8.89543 12.8954 8 14 8C15.1046 8 16 8.89543 16 10Z" fill="#C2C8CC"/>
<path d="M16 14C16 15.1046 15.1046 16 14 16C12.8954 16 12 15.1046 12 14C12 12.8954 12.8954 12 14 12C15.1046 12 16 12.8954 16 14Z" fill="#C2C8CC"/>
<path d="M12 14C12 15.1046 11.1046 16 10 16C8.89543 16 8 15.1046 8 14C8 12.8954 8.89543 12 10 12C11.1046 12 12 12.8954 12 14Z" fill="#C2C8CC"/>
<path fill-rule="evenodd" clip-rule="evenodd" d="M20.9976 15.6346C20.9683 15.2792 20.6706 15 20.3077 15H16.1538C15.5166 15 15 15.5166 15 16.1538V20.3077C15 20.6706 15.2792 20.9683 15.6346 20.9976L20.9976 15.6346Z" fill="#C2C8CC"/>
</svg>
