<svg width="24" height="24" viewBox="0 0 24 24" fill="none" xmlns="http://www.w3.org/2000/svg">
<path fill-rule="evenodd" clip-rule="evenodd" d="M10.5336 1.79274C10.7255 1.65003 10.9273 1.5 11.1627 1.5C11.7583 1.5 12.7538 2.42113 13.5928 3.19746C13.9334 3.5126 14.2483 3.80389 14.5 4C14.5 4 15.2339 2.80473 15.6255 2.5C15.739 2.41664 15.8865 2.41664 16 2.5C18.9564 4.8005 20.182 8.34839 20.5 12C20.5175 12.1998 20.5 13 20.5 13C20.4728 15.6596 19.4741 18.0507 17.6569 19.9942C16.1566 21.5986 14.1217 22.5 12 22.5C9.87827 22.5 7.84344 21.5986 6.34315 19.9942C4.84286 18.3897 4.23084 16.4675 4 13.9445C4 10.5 4.70871 7.85856 7 4.94965C7.95707 3.7346 9.74337 2.37163 10.4692 1.84034C10.4906 1.82471 10.512 1.80877 10.5336 1.79274ZM13.561 12.9784C13.1371 12.4324 12.66 11.9519 12.1405 11.5476C12.098 11.5165 12.0572 11.5 12 11.5C11.9428 11.5 11.902 11.5165 11.8595 11.5476C11.34 11.9519 10.8629 12.4324 10.439 12.9784C9.49739 14.1867 9 15.5196 9 16.8334C9 17.8058 9.31607 18.7384 9.87868 19.4261C10.4413 20.1137 11.2044 20.5 12 20.5C12.7956 20.5 13.5587 20.1137 14.1213 19.4261C14.6839 18.7384 15 17.8058 15 16.8334C15 15.5196 14.5026 14.1867 13.561 12.9784Z" fill="#C2C8CC"/>
</svg>
