<svg width="24" height="24" viewBox="0 0 24 24" fill="none" xmlns="http://www.w3.org/2000/svg">
<path fill-rule="evenodd" clip-rule="evenodd" d="M4.22222 2C2.99492 2 2 2.99492 2 4.22222V19.7778C2 21.0051 2.99492 22 4.22222 22H19.7778C21.0051 22 22 21.0051 22 19.7778V4.22222C22 2.99492 21.0051 2 19.7778 2H4.22222ZM18.6667 8.11111C18.6667 9.64524 17.423 10.8889 15.8889 10.8889C14.3548 10.8889 13.1111 9.64524 13.1111 8.11111C13.1111 6.57699 14.3548 5.33333 15.8889 5.33333C17.423 5.33333 18.6667 6.57699 18.6667 8.11111ZM7.55527 19.7778H6.44445C5.21715 19.7778 4.22222 18.7829 4.22222 17.5556V14.2219L5.98399 12.4602C6.85182 11.5923 8.25885 11.5923 9.12668 12.4602L11.9998 15.3333L7.55527 19.7778ZM19.7778 15.7255V17.5556C19.7778 18.7829 18.7829 19.7778 17.5556 19.7778H9.91667L15.477 14.5446C16.3326 13.7392 17.6674 13.7392 18.523 14.5446L19.7778 15.7255Z" fill="#41D797"/>
</svg>
