<svg width="46" height="46" viewBox="0 0 46 46" fill="none" xmlns="http://www.w3.org/2000/svg">
<path d="M23.2734 30.2969C26.38 30.2969 28.8984 27.7785 28.8984 24.6719C28.8984 21.5653 26.38 19.0469 23.2734 19.0469C20.1668 19.0469 17.6484 21.5653 17.6484 24.6719C17.6484 27.7785 20.1668 30.2969 23.2734 30.2969Z" fill="#9FA6FF"/>
<path d="M38.7422 13.4258H33.5566C33.293 13.4258 32.966 13.2553 32.7111 12.9863L30.4313 9.38809C30.3952 9.33098 30.3549 9.27663 30.3108 9.22549C29.5233 8.30703 28.459 7.80078 27.3164 7.80078H19.2305C18.0879 7.80078 17.0235 8.30703 16.236 9.22549C16.1919 9.27663 16.1517 9.33098 16.1156 9.38809L13.8357 12.9916C13.6406 13.2043 13.3664 13.4311 13.0781 13.4311H8.15625H7.80469C6.68616 13.4322 5.61378 13.8771 4.82287 14.668C4.03195 15.4589 3.5871 16.5313 3.58594 17.6498V34.5195C3.5871 35.6381 4.03195 36.7104 4.82287 37.5014C5.61378 38.2923 6.68616 38.7371 7.80469 38.7383H38.7422C39.8607 38.7371 40.9331 38.2923 41.724 37.5014C42.5149 36.7104 42.9598 35.6381 42.9609 34.5195V17.6445C42.9598 16.526 42.5149 15.4536 41.724 14.6627C40.9331 13.8718 39.8607 13.4269 38.7422 13.4258ZM23.2734 33.1133C21.6047 33.1133 19.9734 32.6184 18.5858 31.6913C17.1983 30.7642 16.1168 29.4464 15.4782 27.9047C14.8396 26.3629 14.6725 24.6664 14.9981 23.0297C15.3236 21.393 16.1272 19.8896 17.3072 18.7096C18.4872 17.5296 19.9906 16.726 21.6274 16.4004C23.2641 16.0748 24.9606 16.2419 26.5023 16.8805C28.0441 17.5192 29.3618 18.6006 30.289 19.9882C31.2161 21.3757 31.7109 23.007 31.7109 24.6758C31.7084 26.9128 30.8186 29.0574 29.2368 30.6392C27.655 32.221 25.5104 33.1107 23.2734 33.1133Z" fill="#D2D6FF"/>
<path d="M34.2845 2.45703C29.3202 2.45703 25.2812 6.49594 25.2812 11.4603C25.2812 16.4246 29.3202 20.4635 34.2845 20.4635C39.2488 20.4635 43.2878 16.4246 43.2878 11.4603C43.2878 6.49594 39.2488 2.45703 34.2845 2.45703ZM37.7473 12.1528H34.9771V14.9231C34.9771 15.1068 34.9041 15.2829 34.7742 15.4128C34.6443 15.5427 34.4682 15.6156 34.2845 15.6156C34.1008 15.6156 33.9247 15.5427 33.7948 15.4128C33.6649 15.2829 33.5919 15.1068 33.5919 14.9231V12.1528H30.8217C30.638 12.1528 30.4619 12.0799 30.332 11.95C30.2021 11.8201 30.1292 11.644 30.1292 11.4603C30.1292 11.2766 30.2021 11.1005 30.332 10.9706C30.4619 10.8407 30.638 10.7677 30.8217 10.7677H33.5919V7.9975C33.5919 7.81382 33.6649 7.63766 33.7948 7.50778C33.9247 7.3779 34.1008 7.30494 34.2845 7.30494C34.4682 7.30494 34.6443 7.3779 34.7742 7.50778C34.9041 7.63766 34.9771 7.81382 34.9771 7.9975V10.7677H37.7473C37.931 10.7677 38.1071 10.8407 38.237 10.9706C38.3669 11.1005 38.4399 11.2766 38.4399 11.4603C38.4399 11.644 38.3669 11.8201 38.237 11.95C38.1071 12.0799 37.931 12.1528 37.7473 12.1528Z" fill="#9FA6FF"/>
</svg>
