<svg width="24" height="24" viewBox="0 0 24 24" fill="none" xmlns="http://www.w3.org/2000/svg">
<path fill-rule="evenodd" clip-rule="evenodd" d="M19.0208 2.80443C18.6303 2.4139 17.9971 2.4139 17.6066 2.80443L10.3052 10.1059C10.1621 10.2489 10.0658 10.432 10.029 10.6309L9.38617 14.1021C9.25846 14.7918 9.8619 15.3952 10.5515 15.2675L14.0228 14.6247C14.2217 14.5878 14.4048 14.4915 14.5478 14.3485L21.8492 7.04707C22.2398 6.65655 22.2398 6.02338 21.8492 5.63286L19.0208 2.80443ZM6 5.4111C5.44772 5.4111 5 5.85881 5 6.4111V18C5 18.5523 5.44772 19 6 19H17.5889C18.1412 19 18.5889 18.5523 18.5889 18V13.5973C18.5889 13.045 19.0366 12.5973 19.5889 12.5973C20.1412 12.5973 20.5889 13.045 20.5889 13.5973V18C20.5889 19.6569 19.2458 21 17.5889 21H6C4.34315 21 3 19.6569 3 18V6.4111C3 4.75424 4.34315 3.4111 6 3.4111H11.7945C12.3467 3.4111 12.7945 3.85881 12.7945 4.4111C12.7945 4.96338 12.3467 5.4111 11.7945 5.4111H6Z" fill="#41D797"/>
</svg>
